<?xml version="1.0" encoding="UTF-8" standalone="no"?>
<!DOCTYPE svg PUBLIC "-//W3C//DTD SVG 1.1//EN" "http://www.w3.org/Graphics/SVG/1.1/DTD/svg11.dtd">
<svg width="100%" height="100%" viewBox="0 0 685 43" version="1.1" xmlns="http://www.w3.org/2000/svg" xmlns:xlink="http://www.w3.org/1999/xlink" xml:space="preserve" xmlns:serif="http://www.serif.com/" style="fill-rule:evenodd;clip-rule:evenodd;stroke-linejoin:round;stroke-miterlimit:2;">
    <g transform="matrix(1,0,0,1,-2861.19,-8417.14)">
        <g transform="matrix(0.780902,0,0,0.780902,2823.63,7984.92)">
            <text x="44.244px" y="607.51px" style="font-family:'Norwester-Regular', 'Norwester';font-stretch:condensed;font-size:77.163px;fill:rgb(241,96,93);fill-opacity:0.91;">da<tspan x="121.176px 157.442px 196.718px 238.155px 258.217px 277.199px 318.636px 338.698px 377.974px 417.404px 456.757px 493.024px 532.994px 572.27px 590.481px 626.747px 646.81px 691.333px 730.763px 770.116px 809.469px 848.822px 888.098px " y="607.51px 607.51px 607.51px 607.51px 607.51px 607.51px 607.51px 607.51px 607.51px 607.51px 607.51px 607.51px 607.51px 607.51px 607.51px 607.51px 607.51px 607.51px 607.51px 607.51px 607.51px 607.51px 607.51px ">ten in echtzeit abrufen</tspan></text>
        </g>
    </g>
</svg>
