<?xml version="1.0" encoding="UTF-8" standalone="no"?><!DOCTYPE svg PUBLIC "-//W3C//DTD SVG 1.1//EN" "http://www.w3.org/Graphics/SVG/1.1/DTD/svg11.dtd"><svg width="100%" height="100%" viewBox="0 0 243 243" version="1.1" xmlns="http://www.w3.org/2000/svg" xmlns:xlink="http://www.w3.org/1999/xlink" xml:space="preserve" xmlns:serif="http://www.serif.com/" style="fill-rule:evenodd;clip-rule:evenodd;stroke-linejoin:round;stroke-miterlimit:2;"><path d="M121.31,242.626c67,0 121.31,-54.316 121.31,-121.315c0,-66.998 -54.31,-121.311 -121.31,-121.311c-67,0 -121.31,54.313 -121.31,121.311c0,66.999 54.31,121.315 121.31,121.315Z" style="fill:#defaff;fill-rule:nonzero;"/><path d="M96.255,71.915c0,0 -39.942,49.563 -36.05,89.423c3.881,39.878 72.374,40.552 73.712,-1.202c1.042,-32.298 -37.662,-88.222 -37.662,-88.222Z" style="fill:#55c9f0;fill-rule:nonzero;"/><path d="M158.266,41.69c0,0 -26.752,33.043 -24.15,59.615c2.602,26.586 48.476,27.035 49.368,-0.801c0.702,-21.532 -25.217,-58.814 -25.217,-58.814Z" style="fill:#55c9f0;fill-rule:nonzero;"/></svg>