<?xml version="1.0" encoding="UTF-8" standalone="no"?>
<!DOCTYPE svg PUBLIC "-//W3C//DTD SVG 1.1//EN" "http://www.w3.org/Graphics/SVG/1.1/DTD/svg11.dtd">
<svg width="100%" height="100%" viewBox="0 0 1069 43" version="1.1" xmlns="http://www.w3.org/2000/svg" xmlns:xlink="http://www.w3.org/1999/xlink" xml:space="preserve" xmlns:serif="http://www.serif.com/" style="fill-rule:evenodd;clip-rule:evenodd;stroke-linejoin:round;stroke-miterlimit:2;">
    <g transform="matrix(1,0,0,1,-2861.19,-8514.46)">
        <g transform="matrix(0.780902,0,0,0.780902,2823.63,8082.23)">
            <text x="44.244px" y="607.51px" style="font-family:'Norwester-Regular', 'Norwester';font-stretch:condensed;font-size:77.163px;fill:rgb(241,96,93);fill-opacity:0.91;">b<tspan x="83.674px 123.027px 162.381px 201.657px 243.093px 282.446px 321.722px 361.075px 400.505px 439.859px 476.125px 515.401px 535.463px 574.045px 612.395px 648.661px 687.937px 729.374px 749.436px 768.418px 809.855px 829.917px 869.193px 908.623px 947.976px 984.243px 1024.21px 1063.49px 1081.7px 1117.97px 1138.03px 1182.55px 1221.98px 1261.34px 1300.69px 1340.04px 1379.32px " y="607.51px 607.51px 607.51px 607.51px 607.51px 607.51px 607.51px 607.51px 607.51px 607.51px 607.51px 607.51px 607.51px 607.51px 607.51px 607.51px 607.51px 607.51px 607.51px 607.51px 607.51px 607.51px 607.51px 607.51px 607.51px 607.51px 607.51px 607.51px 607.51px 607.51px 607.51px 607.51px 607.51px 607.51px 607.51px 607.51px 607.51px ">odenfeuchte daten in echtzeit abrufen</tspan></text>
        </g>
    </g>
</svg>
