<?xml version="1.0" encoding="UTF-8" standalone="no"?><!DOCTYPE svg PUBLIC "-//W3C//DTD SVG 1.1//EN" "http://www.w3.org/Graphics/SVG/1.1/DTD/svg11.dtd"><svg width="100%" height="100%" viewBox="0 0 243 243" version="1.1" xmlns="http://www.w3.org/2000/svg" xmlns:xlink="http://www.w3.org/1999/xlink" xml:space="preserve" xmlns:serif="http://www.serif.com/" style="fill-rule:evenodd;clip-rule:evenodd;stroke-linejoin:round;stroke-miterlimit:2;"><path d="M121.31,242.626c67,0 121.31,-54.316 121.31,-121.315c0,-66.998 -54.31,-121.311 -121.31,-121.311c-66.99,0 -121.31,54.313 -121.31,121.311c0,66.999 54.32,121.315 121.31,121.315Z" style="fill:#defaff;fill-rule:nonzero;"/><clipPath id="_clip1"><path d="M121.31,242.626c67,0 121.31,-54.316 121.31,-121.315c0,-66.998 -54.31,-121.311 -121.31,-121.311c-66.99,0 -121.31,54.313 -121.31,121.311c0,66.999 54.32,121.315 121.31,121.315Z" clip-rule="nonzero"/></clipPath><g clip-path="url(#_clip1)"><g opacity="0.4"><g><rect x="-12.37" y="0" width="260" height="93.596" style="fill:#989a91;fill-rule:nonzero;"/><rect x="-12.37" y="55.797" width="260" height="93.596" style="fill:#616455;fill-rule:nonzero;"/><rect x="-12.37" y="111.594" width="260" height="93.604" style="fill:#363722;fill-rule:nonzero;"/></g></g><rect x="-12.37" y="167.393" width="260" height="93.593" style="fill:#55c9f0;fill-rule:nonzero;"/></g></svg>