<?xml version="1.0" encoding="UTF-8" standalone="no"?><!DOCTYPE svg PUBLIC "-//W3C//DTD SVG 1.1//EN" "http://www.w3.org/Graphics/SVG/1.1/DTD/svg11.dtd"><svg width="100%" height="100%" viewBox="0 0 243 243" version="1.1" xmlns="http://www.w3.org/2000/svg" xmlns:xlink="http://www.w3.org/1999/xlink" xml:space="preserve" xmlns:serif="http://www.serif.com/" style="fill-rule:evenodd;clip-rule:evenodd;stroke-linejoin:round;stroke-miterlimit:2;"><g><path d="M121.31,242.626c67,0 121.31,-54.316 121.31,-121.315c0,-66.998 -54.31,-121.311 -121.31,-121.311c-66.99,0 -121.31,54.313 -121.31,121.311c0,66.999 54.32,121.315 121.31,121.315Z" style="fill:#fdfbfb;fill-rule:nonzero;"/><g opacity="0.05"><path d="M84.294,174.166l18.508,37.84l-37.016,0l18.508,-37.84Z" style="fill:#8a4e5a;"/><path d="M47.277,98.486l18.508,37.84l-37.016,0l18.508,-37.84Z" style="fill:#8a4e5a;"/><path d="M195.342,98.486l18.508,37.84l-37.016,0l18.508,-37.84Z" style="fill:#8a4e5a;"/><path d="M84.294,22.806l18.508,37.84l-37.016,0l18.508,-37.84Z" style="fill:#8a4e5a;"/><path d="M158.326,174.166l18.508,37.84l-37.016,0l18.508,-37.84Z" style="fill:#8a4e5a;"/><path d="M158.326,22.806l18.508,37.84l-37.016,0l18.508,-37.84Z" style="fill:#8a4e5a;"/><path d="M121.31,98.486l18.508,37.84l-37.016,0l18.508,-37.84Z" style="fill:#8a4e5a;"/></g></g></svg>