<?xml version="1.0" encoding="UTF-8"?>
<svg xmlns="http://www.w3.org/2000/svg" width="182" height="40" viewBox="0 0 182 40" fill="none"><path fill-rule="evenodd" clip-rule="evenodd" d="M74.188 1.9943C74.188 0.854701 73.2763 0 72.2507 0C71.225 0 70.2564 0.854701 70.3134 1.9943C70.3134 3.07692 71.225 3.93163 72.2507 3.93163C73.2763 3.93163 74.188 3.07692 74.188 1.9943ZM74.0171 5.4131H70.4273V18.1766H74.0171V5.4131ZM53.9601 1.02563H50.4273V18.1766H54.0171V14.5299L55.2706 13.1624L59.3162 18.1766H63.2478L57.4359 10.8262L62.5641 5.4131H58.6325L53.9601 10.6553V1.02563ZM122.108 23.9316C122.108 23.5328 121.766 23.1909 121.367 23.1909C120.969 23.1909 120.627 23.5328 120.627 23.9316C120.627 24.3305 120.969 24.6724 121.367 24.6724C121.766 24.6724 122.108 24.3305 122.108 23.9316ZM121.88 26.7806H120.798V36.1823H121.88V26.7806ZM55.0997 23.5328H50.4843V36.2393H55.1567C58.1196 36.2393 59.5441 34.7009 59.5441 32.5926C59.5441 30.7692 58.4615 29.6866 56.8091 29.2878C58.1196 28.8889 58.7464 27.8633 58.7464 26.5527C58.7464 24.8433 57.6638 23.5328 55.0997 23.5328ZM57.5498 26.6667C57.5498 27.9772 56.7521 28.8889 54.9287 28.8889H51.5099V24.5014H54.9287C56.7521 24.5014 57.5498 25.2992 57.5498 26.6667ZM58.2906 32.5356C58.2906 34.188 57.2079 35.2137 54.9857 35.2137H51.5099V29.8576H54.9857C57.2079 29.8576 58.2906 30.8832 58.2906 32.5356ZM64.0455 31.2251C62.0512 31.453 61.0826 32.3077 61.0826 33.8462C61.0826 35.5556 62.3362 36.3533 64.1595 36.5242C66.4957 36.5242 67.6353 35.2137 67.9202 34.6439H67.9772V36.3533H69.0028V29.9145C69.0028 27.6353 67.8062 26.7237 65.3561 26.7237C63.0199 26.7237 61.6524 27.5214 61.6524 29.4017V29.6866H62.678V29.4587C62.678 28.1482 63.5327 27.5214 65.2991 27.5214C67.0655 27.5214 67.9202 28.0912 67.9202 29.8006V30.3134C67.9202 30.5983 67.6353 30.8262 66.5527 30.9402L64.0455 31.2251ZM67.8632 32.9915C67.8632 33.8462 66.7236 35.4986 64.3304 35.4986C63.1339 35.4986 62.1652 35.0997 62.1082 33.7892C62.1082 32.9345 62.5641 32.2507 64.2165 32.0798L66.3817 31.8519C67.4074 31.6809 67.8062 31.51 67.8632 31.2821V32.9915ZM70.9401 31.51C70.9401 28.1482 72.9914 26.6097 75.2136 26.6097C76.5812 26.6097 78.0057 27.1795 78.7464 28.4331V23.5328H79.829V36.1824H78.7464V34.5299C78.0057 35.7835 76.6381 36.3533 75.2136 36.3533C72.9344 36.3533 70.9401 34.8718 70.9401 31.51ZM75.3276 35.4986C77.037 35.4986 78.7464 34.245 78.7464 31.51C78.7464 28.775 77.037 27.5214 75.3276 27.5214C73.5612 27.5214 71.9088 28.775 71.9088 31.51C71.9658 34.1881 73.5612 35.4986 75.3276 35.4986ZM91.4529 23.5328H86.8376V36.2393H91.5099C94.4729 36.2393 95.8974 34.7009 95.8974 32.5926C95.8974 30.7692 94.8148 29.6866 93.1623 29.2878C94.4729 28.8889 95.0997 27.8633 95.0997 26.5527C95.0997 24.8433 94.017 23.5328 91.4529 23.5328ZM93.9601 26.6667C93.9601 27.9772 93.1623 28.8889 91.339 28.8889H87.9202V24.5014H91.339C93.1623 24.5014 93.9601 25.2992 93.9601 26.6667ZM94.7008 32.5356C94.7008 34.188 93.6182 35.2137 91.396 35.2137H87.9202V29.8576H91.396C93.6182 29.8576 94.7008 30.8832 94.7008 32.5356ZM97.4928 31.51C97.4928 28.0912 99.4301 26.6097 101.823 26.6097C104.273 26.6097 105.926 28.2051 105.926 31.1681C105.926 31.453 105.926 31.6809 105.869 31.7949H98.5185C98.5754 34.245 99.772 35.4416 101.88 35.4416C103.02 35.4416 104.273 35.0997 104.729 33.6182H105.698C105.071 35.6695 103.476 36.2963 101.823 36.2963C99.2022 36.3533 97.4928 34.7578 97.4928 31.51ZM104.843 30.9971C104.843 28.661 103.59 27.4644 101.766 27.4644C99.9999 27.4644 98.6324 28.604 98.5185 30.9971H104.843ZM109.003 23.5328H107.92V36.1824H109.003V23.5328ZM111.168 35.2706L117.379 27.6923H111.339V26.7806H118.632V27.6923L112.422 35.2706H118.632V36.1823H111.168V35.2706ZM124.273 37.151H125.185C125.242 38.3476 126.496 39.1453 128.262 39.1453C130.142 39.1453 131.624 38.2906 131.624 36.1253V34.245C130.94 35.4986 129.516 36.0684 128.148 36.0684C125.983 36.0684 123.932 34.5869 123.932 31.339C123.932 28.0912 125.926 26.6097 128.148 26.6097C129.516 26.6097 130.94 27.1795 131.624 28.433H131.681V26.7806H132.763V36.1253C132.763 39.1453 130.427 40 128.319 40C126.268 40 124.33 39.1453 124.273 37.151ZM128.319 35.0997C130.028 35.0997 131.738 33.9031 131.738 31.339C131.738 28.7749 130.085 27.5214 128.319 27.5214C126.553 27.5214 125.014 28.7179 125.014 31.339C124.957 33.9031 126.553 35.0997 128.319 35.0997ZM64.3305 1.02563H67.9202V18.1766H64.3305V1.02563ZM90.4273 8.14814C89.1738 8.14814 88.1481 9.00284 88.1481 10.9402V18.1766H84.5584V10.9402C84.5584 9.00284 83.7607 8.14814 82.4501 8.14814C81.1966 8.14814 80.1709 9.00284 80.1709 10.9402V18.1766H76.5812V5.41309H80.1709V8.09116H80.3419C80.5128 6.89458 81.8233 5.18517 84.0456 5.18517C85.8119 5.18517 87.2934 6.15383 87.9202 8.09116C88.1481 6.89458 89.5726 5.18517 91.9658 5.18517C94.4159 5.18517 96.1823 6.78061 96.1823 10.0855V18.1766H92.5926V10.9402C92.5356 9.00284 91.7379 8.14814 90.4273 8.14814ZM102.564 10.9971C100.342 11.339 98.0627 11.9658 98.0627 14.7578C98.0627 17.3789 100.057 18.4045 102.165 18.4045C104.957 18.4045 105.983 16.5812 106.211 15.8974H106.382V18.1766H109.801V9.34471C109.801 6.55268 108.262 5.18517 104.387 5.18517C100.399 5.18517 98.7464 6.60967 98.7464 9.11679V9.68659H102.108V9.45867C102.108 8.09115 103.134 7.74927 104.273 7.74927C105.413 7.74927 106.268 8.09115 106.268 9.45867V9.57264C106.268 10.3134 105.926 10.4843 104.729 10.6553L102.564 10.9971ZM106.268 13.7322C106.268 14.7008 105.071 15.8404 103.362 15.8404C102.165 15.8404 101.652 15.2706 101.652 14.5299C101.652 13.8461 102.051 13.3333 103.134 13.1624L104.9 12.8205L104.972 12.8063C105.521 12.6968 106.104 12.5807 106.268 12.3077V13.7322ZM111.966 16.2963C111.966 15.0997 112.934 14.188 114.131 14.188C115.328 14.188 116.296 15.1567 116.296 16.2963C116.296 17.4929 115.328 18.4046 114.131 18.4046C112.934 18.4046 111.966 17.4929 111.966 16.2963ZM123.419 5.18518C120.741 5.18518 117.835 7.1225 117.835 11.7949C117.835 16.4672 120.798 18.4046 123.419 18.4046C125.299 18.4046 126.724 17.3789 127.179 16.2963V18.1766H130.769V1.02563H127.179V7.29345C126.724 6.15385 125.299 5.18518 123.419 5.18518ZM127.35 11.7949C127.35 14.302 125.926 15.4416 124.33 15.4416C122.735 15.4416 121.254 14.302 121.254 11.7949C121.254 9.28775 122.735 8.14815 124.33 8.14815C125.869 8.14815 127.35 9.28775 127.35 11.7949ZM132.707 14.7578C132.707 11.9658 134.986 11.339 137.208 10.9971L139.373 10.6553C140.57 10.4843 140.912 10.3134 140.912 9.57264V9.45867C140.912 8.09115 140.057 7.74927 138.917 7.74927C137.778 7.74927 136.752 8.09115 136.752 9.45867V9.68659H133.39V9.11679C133.39 6.60967 135.043 5.18517 139.031 5.18517C142.906 5.18517 144.444 6.55268 144.444 9.34471V18.1766H141.026V15.8974H140.855C140.627 16.5812 139.601 18.4045 136.809 18.4045C134.701 18.4045 132.707 17.3789 132.707 14.7578ZM138.006 15.8404C139.715 15.8404 140.912 14.7008 140.912 13.7322V12.3077C140.748 12.5807 140.165 12.6968 139.615 12.8063L139.544 12.8205L137.778 13.1624C136.695 13.3333 136.296 13.8461 136.296 14.5299C136.296 15.2706 136.809 15.8404 138.006 15.8404ZM147.92 8.20512V14.359C147.92 17.208 149.573 18.3476 152.194 18.3476C152.877 18.3476 153.561 18.2906 154.131 18.1197V15.4416C153.618 15.4986 153.39 15.4986 153.105 15.4986C151.795 15.4986 151.51 14.8148 151.51 13.8462V8.20512H154.017V5.4131H151.51V2.10827H147.92V5.4131H145.755V8.20512H147.92ZM155.157 11.7379C155.157 7.00855 158.177 5.1282 161.538 5.1282C164.843 5.1282 167.578 6.83761 167.578 11.6809C167.578 12.1368 167.578 12.3647 167.521 12.6496H158.575C158.746 14.7578 159.886 15.6125 161.652 15.6125C163.305 15.6125 163.989 14.9288 164.273 13.9031H167.407C166.781 16.8091 164.501 18.2906 161.538 18.2906C158.348 18.4046 155.157 16.6382 155.157 11.7379ZM164.217 10.5983C164.16 9.11681 163.419 7.92022 161.424 7.92022C159.772 7.92022 158.803 8.83191 158.519 10.5983H164.217ZM173.105 10.9402C173.105 9.00284 174.302 8.14814 175.783 8.14814C177.322 8.14814 178.177 9.00284 178.12 10.9402V18.1766H181.709V10.0855C181.709 6.78061 179.772 5.18517 177.322 5.18517C174.701 5.18517 173.504 6.89458 173.276 8.09116H173.105V5.41309H169.516V18.1766H173.105V10.9402Z" fill="#27865A"/><path d="M22.0513 0.0569763L8.88889 13.2194L0 8.88888V36.2393H36.1823V6.89458L22.0513 0.0569763ZM2.79202 23.1909L9.85755 24.1595L18.4615 17.7208L33.3903 20.9687V26.2678L26.4387 22.3362L21.5954 28.2051L2.73504 27.0655V23.1909H2.79202ZM9.45869 16.5812L22.6211 3.4188L33.3903 8.66097V18.1197L17.8348 14.7578L9.11681 21.3105L2.79202 20.4558V13.3903L9.45869 16.5812ZM2.79202 33.4473V29.9145L22.906 31.1111L27.1795 25.9259L33.4473 29.4587V33.4473H2.79202Z" fill="#27865A"/></svg>