<?xml version="1.0" encoding="UTF-8" standalone="no"?>
<!DOCTYPE svg PUBLIC "-//W3C//DTD SVG 1.1//EN" "http://www.w3.org/Graphics/SVG/1.1/DTD/svg11.dtd">
<svg width="100%" height="100%" viewBox="0 0 905 43" version="1.1" xmlns="http://www.w3.org/2000/svg" xmlns:xlink="http://www.w3.org/1999/xlink" xml:space="preserve" xmlns:serif="http://www.serif.com/" style="fill-rule:evenodd;clip-rule:evenodd;stroke-linejoin:round;stroke-miterlimit:2;">
    <g transform="matrix(1,0,0,1,-2861.19,-8291.18)">
        <g transform="matrix(0.780902,0,0,0.780902,2823.63,7858.95)">
            <text x="44.244px" y="607.51px" style="font-family:'Norwester-Regular', 'Norwester';font-stretch:condensed;font-size:77.163px;fill:rgb(241,96,93);fill-opacity:0.91;">b<tspan x="83.674px 123.027px 162.381px 201.657px 243.093px 282.446px 321.722px 361.075px 400.505px 439.859px 476.125px 515.401px 535.463px 574.816px 614.092px 655.529px 694.882px 734.235px 773.588px 812.864px 854.301px 874.363px 915.8px 953.532px 989.799px 1029.77px 1089.72px 1128.23px 1167.58px " y="607.51px 607.51px 607.51px 607.51px 607.51px 607.51px 607.51px 607.51px 607.51px 607.51px 607.51px 607.51px 607.51px 607.51px 607.51px 607.51px 607.51px 607.51px 607.51px 607.51px 607.51px 607.51px 607.51px 607.51px 607.51px 607.51px 607.51px 607.51px 607.51px ">odenfeuchte sensoren netzwerk</tspan></text>
        </g>
    </g>
</svg>
