<?xml version="1.0" encoding="UTF-8" standalone="no"?><!DOCTYPE svg PUBLIC "-//W3C//DTD SVG 1.1//EN" "http://www.w3.org/Graphics/SVG/1.1/DTD/svg11.dtd"><svg width="100%" height="100%" viewBox="0 0 243 243" version="1.1" xmlns="http://www.w3.org/2000/svg" xmlns:xlink="http://www.w3.org/1999/xlink" xml:space="preserve" xmlns:serif="http://www.serif.com/" style="fill-rule:evenodd;clip-rule:evenodd;stroke-linecap:round;stroke-miterlimit:2;"><path d="M121.31,242.626c67,0 121.31,-54.316 121.31,-121.315c0,-66.998 -54.31,-121.311 -121.31,-121.311c-67,0 -121.31,54.313 -121.31,121.311c0,66.999 54.31,121.315 121.31,121.315Z" style="fill:#defaff;fill-rule:nonzero;"/><clipPath id="_clip1"><path d="M121.31,242.626c67,0 121.31,-54.316 121.31,-121.315c0,-66.998 -54.31,-121.311 -121.31,-121.311c-67,0 -121.31,54.313 -121.31,121.311c0,66.999 54.31,121.315 121.31,121.315Z" clip-rule="nonzero"/></clipPath><g clip-path="url(#_clip1)"><rect x="-16.133" y="196.276" width="328" height="71" style="fill:#92cf9e;"/></g><path d="M171.283,179.996c0,0 49.268,-9.279 49.268,-48.129c0,-38.849 -35.028,-94.834 -49.268,-94.964c-17.086,-0.156 -49.268,56.115 -49.268,94.964c0,38.85 49.268,48.129 49.268,48.129Z" style="fill:#6dc368;fill-rule:nonzero;"/><path d="M156.028,99.489l14.855,17.311m23.754,-1.166l-22.927,25.384m-29.808,-11.544l28.731,28.471m0.651,-80.943l0,126.195" style="fill:none;stroke:#776e5c;stroke-width:7.95px;"/><path d="M90.535,189.829c0,0 61.972,-11.673 61.972,-60.54c0,-48.867 -44.06,-119.288 -61.972,-119.452c-21.492,-0.195 -61.972,70.585 -61.972,119.452c0,48.866 61.972,60.54 61.972,60.54Z" style="fill:#92d66d;fill-rule:nonzero;"/><path d="M71.347,88.562l18.685,21.775m29.878,-1.466l-28.839,31.929m-37.494,-14.521l36.139,35.813m0.819,-101.816l0,158.736" style="fill:none;stroke:#776e5c;stroke-width:10px;"/></svg>