<?xml version="1.0" encoding="UTF-8" standalone="no"?><!DOCTYPE svg PUBLIC "-//W3C//DTD SVG 1.1//EN" "http://www.w3.org/Graphics/SVG/1.1/DTD/svg11.dtd"><svg width="100%" height="100%" viewBox="0 0 243 243" version="1.1" xmlns="http://www.w3.org/2000/svg" xmlns:xlink="http://www.w3.org/1999/xlink" xml:space="preserve" xmlns:serif="http://www.serif.com/" style="fill-rule:evenodd;clip-rule:evenodd;stroke-linecap:round;stroke-miterlimit:2;"><path d="M121.31,242.626c67,0 121.31,-54.316 121.31,-121.315c0,-66.998 -54.31,-121.311 -121.31,-121.311c-67,0 -121.31,54.313 -121.31,121.311c0,66.999 54.31,121.315 121.31,121.315Z" style="fill:#defaff;fill-rule:nonzero;"/><clipPath id="_clip1"><path d="M121.31,242.626c67,0 121.31,-54.316 121.31,-121.315c0,-66.998 -54.31,-121.311 -121.31,-121.311c-67,0 -121.31,54.313 -121.31,121.311c0,66.999 54.31,121.315 121.31,121.315Z" clip-rule="nonzero"/></clipPath><g clip-path="url(#_clip1)"><rect x="-137.133" y="197.276" width="395" height="105" style="fill:#92cf9e;"/></g><path d="M91.889,181.835l0,23.884" style="fill:none;stroke:#776e5c;stroke-width:8px;"/><path d="M152.625,174.574l-35.817,-42.402l22.902,0c5.927,0 7.161,-4.66 2.744,-10.408l-27.203,-40.371l12.904,0c5.927,0 7.472,-5.117 3.436,-11.428l-32.404,-53.454c-4.024,-6.311 -10.563,-6.311 -14.599,0l-32.404,53.454c-4.024,6.311 -2.491,11.428 3.436,11.428l12.904,0l-27.203,40.371c-4.405,5.748 -3.183,10.408 2.744,10.408l22.902,0l-35.817,42.402c-4.716,5.216 -3.736,9.443 2.191,9.443l117.091,0c5.927,0 6.907,-4.227 2.191,-9.443Z" style="fill:#63aa98;fill-rule:nonzero;"/><path d="M165.021,187.503l0,20.043" style="fill:none;stroke:#776e5c;stroke-width:8px;"/><path d="M211.977,182.771l-25.854,-33.784l16.536,0c4.278,0 5.166,-3.712 1.972,-8.292l-19.638,-32.164l9.317,0c4.278,0 5.397,-4.076 2.479,-9.104l-23.386,-42.588c-2.906,-5.028 -7.634,-5.028 -10.54,0l-23.386,42.588c-2.918,5.028 -1.811,9.104 2.468,9.104l9.318,0l-19.627,32.164c-3.194,4.58 -2.306,8.292 1.972,8.292l16.536,0l-25.854,33.784c-3.413,4.155 -2.698,7.523 1.58,7.523l84.526,0c4.278,0 4.981,-3.368 1.58,-7.523Z" style="fill:#7cc8b5;fill-rule:nonzero;"/></svg>