<?xml version="1.0" encoding="UTF-8" standalone="no"?><!DOCTYPE svg PUBLIC "-//W3C//DTD SVG 1.1//EN" "http://www.w3.org/Graphics/SVG/1.1/DTD/svg11.dtd"><svg width="100%" height="100%" viewBox="0 0 243 243" version="1.1" xmlns="http://www.w3.org/2000/svg" xmlns:xlink="http://www.w3.org/1999/xlink" xml:space="preserve" xmlns:serif="http://www.serif.com/" style="fill-rule:evenodd;clip-rule:evenodd;stroke-linecap:round;stroke-miterlimit:2;"><path d="M121.31,242.626c67,0 121.31,-54.316 121.31,-121.315c0,-66.998 -54.31,-121.311 -121.31,-121.311c-67,0 -121.31,54.313 -121.31,121.311c0,66.999 54.31,121.315 121.31,121.315Z" style="fill:#defaff;fill-rule:nonzero;"/><clipPath id="_clip1"><path d="M121.31,242.626c67,0 121.31,-54.316 121.31,-121.315c0,-66.998 -54.31,-121.311 -121.31,-121.311c-67,0 -121.31,54.313 -121.31,121.311c0,66.999 54.31,121.315 121.31,121.315Z" clip-rule="nonzero"/></clipPath><g clip-path="url(#_clip1)"><rect x="-16.133" y="177.276" width="292" height="80" style="fill:#92cf9e;"/></g><g><path d="M46.551,170.231c0,0 31.944,-7.392 31.944,-38.343c0,-30.95 -22.708,-75.552 -31.944,-75.656c-11.071,-0.124 -31.936,44.705 -31.936,75.656c0,30.95 31.936,38.343 31.936,38.343Z" style="fill:#7cda77;fill-rule:nonzero;"/><path d="M36.506,107.545l10.323,12.834m14.185,5.43l-13.481,15.09m-19.568,-2.914l18.656,17.256m0.548,-68.582l0,106.925" style="fill:none;stroke:#817f7b;stroke-width:8px;"/></g><g><path d="M121.328,170.231c0,0 31.944,-7.392 31.944,-38.343c0,-30.95 -22.708,-75.552 -31.944,-75.656c-11.071,-0.124 -31.936,44.705 -31.936,75.656c0,30.95 31.936,38.343 31.936,38.343Z" style="fill:#7cda77;fill-rule:nonzero;"/><path d="M111.283,107.545l10.323,12.834m14.185,5.43l-13.481,15.09m-19.568,-2.914l18.656,17.256m0.548,-68.582l0,106.925" style="fill:none;stroke:#817f7b;stroke-width:8px;"/></g><g><path d="M195.542,170.231c0,0 31.944,-7.392 31.944,-38.343c0,-30.95 -22.708,-75.552 -31.944,-75.656c-11.071,-0.124 -31.936,44.705 -31.936,75.656c0,30.95 31.936,38.343 31.936,38.343Z" style="fill:#7cda77;fill-rule:nonzero;"/><path d="M185.497,107.545l10.323,12.834m14.185,5.43l-13.481,15.09m-19.568,-2.914l18.656,17.256m0.548,-68.582l0,106.925" style="fill:none;stroke:#817f7b;stroke-width:8px;"/></g></svg>