<?xml version="1.0" encoding="UTF-8" standalone="no"?><!DOCTYPE svg PUBLIC "-//W3C//DTD SVG 1.1//EN" "http://www.w3.org/Graphics/SVG/1.1/DTD/svg11.dtd"><svg width="100%" height="100%" viewBox="0 0 243 243" version="1.1" xmlns="http://www.w3.org/2000/svg" xmlns:xlink="http://www.w3.org/1999/xlink" xml:space="preserve" xmlns:serif="http://www.serif.com/" style="fill-rule:evenodd;clip-rule:evenodd;stroke-linejoin:round;stroke-miterlimit:2;"><path d="M121.31,242.626c67,0 121.31,-54.316 121.31,-121.315c0,-66.998 -54.31,-121.311 -121.31,-121.311c-67,0 -121.31,54.313 -121.31,121.311c0,66.999 54.31,121.315 121.31,121.315Z" style="fill:#defaff;fill-rule:nonzero;"/><clipPath id="_clip1"><path d="M121.31,242.626c67,0 121.31,-54.316 121.31,-121.315c0,-66.998 -54.31,-121.311 -121.31,-121.311c-67,0 -121.31,54.313 -121.31,121.311c0,66.999 54.31,121.315 121.31,121.315Z" clip-rule="nonzero"/></clipPath><g clip-path="url(#_clip1)"><g opacity="0.8"><rect x="-13.19" y="164.051" width="269" height="96.225" style="fill:#b6afa9;"/><g><g><path d="M197.486,123.076c4.901,5.373 13.548,6.248 19.311,1.951c5.762,-4.297 6.458,-12.138 1.557,-17.512c-4.901,-5.373 -13.548,-6.248 -19.31,-1.951c-5.763,4.297 -6.459,12.139 -1.558,17.512Z" style="fill:#4ba857;fill-rule:nonzero;"/><path d="M229.221,159.244c4.901,5.373 13.548,6.248 19.311,1.951c5.762,-4.297 6.458,-12.138 1.557,-17.512c-4.908,-5.38 -13.554,-6.255 -19.316,-1.958c-5.763,4.297 -6.459,12.139 -1.552,17.519Z" style="fill:#4ba857;fill-rule:nonzero;"/><path d="M181.793,114.227c4.908,5.38 13.554,6.255 19.316,1.958c5.763,-4.297 6.459,-12.139 1.551,-17.519c-4.901,-5.373 -13.548,-6.248 -19.311,-1.951c-5.762,4.297 -6.458,12.138 -1.557,17.512Z" style="fill:#4ba857;fill-rule:nonzero;"/><path d="M226.789,177.408c4.901,5.373 13.554,6.255 19.316,1.958c5.763,-4.297 6.453,-12.146 1.552,-17.519c-4.901,-5.373 -13.548,-6.248 -19.311,-1.951c-5.762,4.297 -6.458,12.138 -1.557,17.512Z" style="fill:#4ba857;fill-rule:nonzero;"/><path d="M164.968,124.232c4.901,5.373 13.548,6.248 19.311,1.951c5.762,-4.297 6.458,-12.138 1.557,-17.512c-4.908,-5.38 -13.554,-6.255 -19.316,-1.958c-5.763,4.297 -6.459,12.139 -1.551,17.519Z" style="fill:#4ba857;fill-rule:nonzero;"/><path d="M215.057,194.372c4.901,5.373 13.548,6.248 19.311,1.951c5.762,-4.297 6.458,-12.138 1.557,-17.512c-4.901,-5.373 -13.548,-6.248 -19.31,-1.951c-5.762,4.297 -6.459,12.139 -1.558,17.512Z" style="fill:#4ba857;fill-rule:nonzero;"/><path d="M145.389,134.585c4.901,5.373 13.554,6.255 19.316,1.958c5.762,-4.297 6.453,-12.146 1.552,-17.519c-4.901,-5.373 -13.548,-6.248 -19.311,-1.951c-5.762,4.297 -6.458,12.138 -1.557,17.512Z" style="fill:#4ba857;fill-rule:nonzero;"/><path d="M200.73,201.877c4.901,5.373 13.548,6.248 19.31,1.951c5.763,-4.297 6.459,-12.139 1.558,-17.512c-4.907,-5.38 -13.554,-6.255 -19.317,-1.958c-5.762,4.297 -6.458,12.138 -1.551,17.519Z" style="fill:#4ba857;fill-rule:nonzero;"/><path d="M135.968,150.093c4.908,5.38 13.555,6.255 19.317,1.958c5.762,-4.297 6.459,-12.139 1.551,-17.519c-4.901,-5.373 -13.548,-6.248 -19.311,-1.951c-5.762,4.297 -6.459,12.139 -1.558,17.512Z" style="fill:#4ba857;fill-rule:nonzero;"/><path d="M183.972,209.336c4.901,5.373 13.554,6.255 19.317,1.958c5.762,-4.297 6.452,-12.145 1.551,-17.519c-4.901,-5.373 -13.548,-6.248 -19.31,-1.951c-5.763,4.297 -6.459,12.139 -1.558,17.512Z" style="fill:#4ba857;fill-rule:nonzero;"/><path d="M129.301,168.619c4.901,5.373 13.548,6.248 19.311,1.951c5.762,-4.297 6.458,-12.138 1.557,-17.512c-4.908,-5.38 -13.554,-6.255 -19.316,-1.958c-5.762,4.297 -6.459,12.139 -1.551,17.519Z" style="fill:#4ba857;fill-rule:nonzero;"/><path d="M217.335,127.99c4.901,5.373 13.548,6.248 19.31,1.951c5.763,-4.297 6.459,-12.139 1.558,-17.512c-4.901,-5.373 -13.548,-6.248 -19.311,-1.951c-5.762,4.297 -6.458,12.138 -1.557,17.512Z" style="fill:#4ba857;fill-rule:nonzero;"/><path d="M224.475,141.802c4.901,5.373 13.548,6.248 19.311,1.951c5.762,-4.297 6.459,-12.139 1.558,-17.512c-4.907,-5.38 -13.555,-6.254 -19.317,-1.958c-5.762,4.297 -6.459,12.139 -1.552,17.519Z" style="fill:#4ba857;fill-rule:nonzero;"/><path d="M163.596,208.795c4.901,5.373 13.548,6.248 19.31,1.951c5.763,-4.297 6.459,-12.139 1.558,-17.512c-4.901,-5.373 -13.548,-6.248 -19.311,-1.951c-5.762,4.297 -6.458,12.138 -1.557,17.512Z" style="fill:#4ba857;fill-rule:nonzero;"/><path d="M144.876,190.831c17.01,18.648 51.186,18.553 76.34,-0.204c25.155,-18.758 31.763,-49.076 14.754,-67.724c-17.003,-18.641 -51.18,-18.547 -76.334,0.211c-25.155,18.758 -31.763,49.076 -14.76,67.717Z" style="fill:#4ba857;fill-rule:nonzero;"/></g></g><g><g><path d="M147.03,125.224c1.792,7.649 9.471,12.661 17.152,11.19c7.68,-1.471 12.453,-8.867 10.661,-16.516c-1.792,-7.649 -9.47,-12.661 -17.151,-11.19c-7.681,1.471 -12.454,8.867 -10.662,16.516Z" style="fill:#4db85a;fill-rule:nonzero;"/><path d="M157.908,176.107c1.792,7.649 9.471,12.661 17.152,11.19c7.68,-1.471 12.453,-8.867 10.661,-16.516c-1.794,-7.659 -9.473,-12.671 -17.153,-11.2c-7.681,1.471 -12.454,8.867 -10.66,16.526Z" style="fill:#4db85a;fill-rule:nonzero;"/><path d="M136.906,108.969c1.794,7.659 9.473,12.671 17.153,11.2c7.681,-1.471 12.454,-8.867 10.66,-16.526c-1.792,-7.649 -9.47,-12.661 -17.152,-11.19c-7.68,1.471 -12.453,8.866 -10.661,16.516Z" style="fill:#4db85a;fill-rule:nonzero;"/><path d="M146.08,192.846c1.792,7.649 9.473,12.671 17.153,11.2c7.681,-1.471 12.452,-8.876 10.66,-16.526c-1.792,-7.649 -9.471,-12.661 -17.152,-11.19c-7.68,1.471 -12.453,8.867 -10.661,16.516Z" style="fill:#4db85a;fill-rule:nonzero;"/><path d="M115.817,110.758c1.792,7.649 9.471,12.661 17.152,11.19c7.68,-1.471 12.453,-8.867 10.661,-16.516c-1.794,-7.659 -9.473,-12.671 -17.153,-11.2c-7.681,1.471 -12.454,8.867 -10.66,16.526Z" style="fill:#4db85a;fill-rule:nonzero;"/><path d="M126.13,203.939c1.792,7.649 9.471,12.661 17.152,11.19c7.68,-1.471 12.453,-8.867 10.661,-16.516c-1.792,-7.649 -9.47,-12.661 -17.151,-11.19c-7.68,1.471 -12.454,8.867 -10.662,16.516Z" style="fill:#4db85a;fill-rule:nonzero;"/><path d="M91.951,111.568c1.792,7.649 9.473,12.671 17.153,11.2c7.68,-1.471 12.452,-8.877 10.66,-16.526c-1.792,-7.649 -9.472,-12.661 -17.152,-11.19c-7.68,1.471 -12.453,8.867 -10.661,16.516Z" style="fill:#4db85a;fill-rule:nonzero;"/><path d="M108.703,204.462c1.792,7.649 9.471,12.661 17.151,11.19c7.681,-1.471 12.454,-8.867 10.662,-16.516c-1.794,-7.659 -9.473,-12.671 -17.154,-11.2c-7.68,1.471 -12.453,8.867 -10.659,16.525Z" style="fill:#4db85a;fill-rule:nonzero;"/><path d="M74.94,122.334c1.794,7.659 9.474,12.671 17.154,11.2c7.68,-1.471 12.454,-8.867 10.66,-16.526c-1.792,-7.649 -9.471,-12.661 -17.152,-11.19c-7.68,1.471 -12.454,8.867 -10.662,16.516Z" style="fill:#4db85a;fill-rule:nonzero;"/><path d="M89.013,203.774c1.792,7.649 9.473,12.671 17.154,11.2c7.68,-1.471 12.451,-8.876 10.659,-16.525c-1.792,-7.649 -9.471,-12.661 -17.151,-11.19c-7.681,1.471 -12.454,8.867 -10.662,16.516Z" style="fill:#4db85a;fill-rule:nonzero;"/><path d="M58.936,137.397c1.792,7.649 9.471,12.661 17.152,11.19c7.68,-1.471 12.453,-8.866 10.661,-16.516c-1.794,-7.659 -9.473,-12.671 -17.153,-11.2c-7.68,1.471 -12.454,8.867 -10.66,16.526Z" style="fill:#4db85a;fill-rule:nonzero;"/><path d="M163.133,139.594c1.792,7.649 9.471,12.661 17.151,11.19c7.681,-1.471 12.454,-8.867 10.662,-16.516c-1.792,-7.649 -9.47,-12.661 -17.152,-11.19c-7.68,1.471 -12.453,8.867 -10.661,16.516Z" style="fill:#4db85a;fill-rule:nonzero;"/><path d="M162.6,156.636c1.792,7.649 9.472,12.661 17.152,11.19c7.68,-1.471 12.454,-8.867 10.662,-16.516c-1.794,-7.659 -9.474,-12.67 -17.154,-11.2c-7.68,1.471 -12.454,8.867 -10.66,16.526Z" style="fill:#4db85a;fill-rule:nonzero;"/><path d="M70.119,193.462c1.792,7.649 9.471,12.661 17.151,11.19c7.681,-1.471 12.454,-8.867 10.662,-16.516c-1.792,-7.649 -9.471,-12.661 -17.152,-11.19c-7.68,1.471 -12.453,8.867 -10.661,16.516Z" style="fill:#4db85a;fill-rule:nonzero;"/><path d="M61.932,166.769c6.217,26.546 38.435,42.854 71.962,36.434c33.527,-6.42 55.667,-33.136 49.45,-59.682c-6.215,-26.536 -38.433,-42.844 -71.96,-36.424c-33.527,6.42 -55.667,33.136 -49.452,59.672Z" style="fill:#4db85a;fill-rule:nonzero;"/></g></g><g><g><path d="M14.048,162.795c4.579,-6.633 2.894,-15.059 -3.767,-18.818c-6.66,-3.758 -15.772,-1.426 -20.351,5.207c-4.579,6.633 -2.894,15.059 3.766,18.817c6.66,3.759 15.773,1.426 20.351,-5.206Z" style="fill:#59d368;fill-rule:nonzero;"/><path d="M45.256,119.325c4.579,-6.633 2.894,-15.059 -3.767,-18.818c-6.66,-3.758 -15.772,-1.426 -20.351,5.207c-4.585,6.641 -2.9,15.067 3.76,18.826c6.66,3.759 15.773,1.426 20.357,-5.215Z" style="fill:#59d368;fill-rule:nonzero;"/><path d="M8.868,180.853c4.585,-6.641 2.9,-15.068 -3.76,-18.826c-6.66,-3.759 -15.773,-1.426 -20.357,5.215c-4.579,6.633 -2.894,15.059 3.767,18.818c6.66,3.758 15.772,1.426 20.351,-5.207Z" style="fill:#59d368;fill-rule:nonzero;"/><path d="M66.618,114.689c4.579,-6.633 2.9,-15.067 -3.76,-18.826c-6.66,-3.759 -15.779,-1.418 -20.357,5.215c-4.579,6.633 -2.894,15.059 3.767,18.818c6.66,3.758 15.772,1.426 20.351,-5.207Z" style="fill:#59d368;fill-rule:nonzero;"/><path d="M25.429,192.793c4.579,-6.633 2.894,-15.059 -3.767,-18.818c-6.66,-3.758 -15.772,-1.426 -20.351,5.207c-4.585,6.641 -2.9,15.068 3.76,18.826c6.66,3.759 15.773,1.426 20.357,-5.215Z" style="fill:#59d368;fill-rule:nonzero;"/><path d="M89.498,119.214c4.579,-6.633 2.893,-15.06 -3.767,-18.818c-6.66,-3.758 -15.772,-1.426 -20.351,5.207c-4.579,6.633 -2.894,15.059 3.766,18.817c6.66,3.758 15.773,1.426 20.351,-5.206Z" style="fill:#59d368;fill-rule:nonzero;"/><path d="M43.238,207.18c4.579,-6.633 2.9,-15.068 -3.76,-18.826c-6.66,-3.758 -15.779,-1.418 -20.357,5.215c-4.579,6.633 -2.893,15.06 3.767,18.818c6.66,3.758 15.772,1.426 20.351,-5.207Z" style="fill:#59d368;fill-rule:nonzero;"/><path d="M102.449,129.769c4.579,-6.633 2.894,-15.059 -3.766,-18.818c-6.66,-3.759 -15.773,-1.426 -20.352,5.207c-4.585,6.641 -2.9,15.067 3.761,18.826c6.66,3.758 15.772,1.426 20.356,-5.215Z" style="fill:#59d368;fill-rule:nonzero;"/><path d="M63.751,210.097c4.585,-6.641 2.899,-15.068 -3.761,-18.827c-6.66,-3.758 -15.773,-1.426 -20.357,5.215c-4.579,6.633 -2.893,15.059 3.767,18.818c6.66,3.758 15.773,1.426 20.351,-5.206Z" style="fill:#59d368;fill-rule:nonzero;"/><path d="M116.102,142.616c4.579,-6.633 2.9,-15.067 -3.761,-18.826c-6.66,-3.758 -15.778,-1.417 -20.357,5.215c-4.579,6.633 -2.894,15.059 3.766,18.818c6.66,3.759 15.773,1.426 20.352,-5.207Z" style="fill:#59d368;fill-rule:nonzero;"/><path d="M86.834,209.287c4.579,-6.633 2.893,-15.059 -3.767,-18.818c-6.66,-3.758 -15.772,-1.426 -20.351,5.207c-4.585,6.641 -2.9,15.068 3.76,18.826c6.66,3.758 15.773,1.426 20.357,-5.215Z" style="fill:#59d368;fill-rule:nonzero;"/><path d="M13.477,142.345c4.579,-6.633 2.894,-15.059 -3.766,-18.818c-6.66,-3.759 -15.773,-1.426 -20.352,5.207c-4.579,6.633 -2.894,15.059 3.767,18.818c6.66,3.758 15.772,1.426 20.351,-5.207Z" style="fill:#59d368;fill-rule:nonzero;"/><path d="M26.937,130.406c4.579,-6.633 2.893,-15.06 -3.767,-18.818c-6.66,-3.758 -15.773,-1.426 -20.352,5.207c-4.585,6.641 -2.899,15.068 3.761,18.826c6.66,3.758 15.773,1.426 20.357,-5.215Z" style="fill:#59d368;fill-rule:nonzero;"/><path d="M121.798,161.895c4.579,-6.633 2.894,-15.059 -3.766,-18.818c-6.66,-3.759 -15.773,-1.426 -20.352,5.207c-4.579,6.633 -2.894,15.059 3.767,18.818c6.66,3.758 15.772,1.426 20.351,-5.207Z" style="fill:#59d368;fill-rule:nonzero;"/><path d="M107.213,186.254c15.89,-23.019 5.2,-54.973 -23.872,-71.38c-29.072,-16.407 -65.517,-11.054 -81.407,11.964c-15.884,23.01 -5.194,54.965 23.878,71.372c29.072,16.407 65.517,11.054 81.401,-11.956Z" style="fill:#59d368;fill-rule:nonzero;"/></g></g></g></g></svg>