<?xml version="1.0" encoding="UTF-8" standalone="no"?>
<!DOCTYPE svg PUBLIC "-//W3C//DTD SVG 1.1//EN" "http://www.w3.org/Graphics/SVG/1.1/DTD/svg11.dtd">
<svg width="100%" height="100%" viewBox="0 0 243 243" version="1.1" xmlns="http://www.w3.org/2000/svg" xmlns:xlink="http://www.w3.org/1999/xlink" xml:space="preserve" xmlns:serif="http://www.serif.com/" style="fill-rule:evenodd;clip-rule:evenodd;stroke-linejoin:round;stroke-miterlimit:2;">
    <g transform="matrix(1,0,0,1,-718.901813,-2362.229715)">
        <g transform="matrix(1,0,0,1,85.5,125)">
            <g transform="matrix(1,0,0,1,-4061.368206,2148.551736)">
                <path d="M4816.08,331.3C4883.08,331.3 4937.39,276.987 4937.39,209.989C4937.39,142.991 4883.08,88.678 4816.08,88.678C4749.08,88.678 4694.77,142.991 4694.77,209.989C4694.77,276.987 4749.08,331.3 4816.08,331.3Z" style="fill:rgb(168,168,168);fill-rule:nonzero;"/>
                <clipPath id="_clip1">
                    <path d="M4816.08,331.3C4883.08,331.3 4937.39,276.987 4937.39,209.989C4937.39,142.991 4883.08,88.678 4816.08,88.678C4749.08,88.678 4694.77,142.991 4694.77,209.989C4694.77,276.987 4749.08,331.3 4816.08,331.3Z" clip-rule="nonzero"/>
                </clipPath>
                <g clip-path="url(#_clip1)">
                    <g transform="matrix(1.241572,0,0,1.241572,-1160.775935,-92.121422)">
                        <g transform="matrix(1,0,0,1,3975.868206,-2273.551736)">
                            <path d="M673.77,2654.894L840.212,2326.898L732.77,2654.894L673.77,2654.894Z" style="fill:rgb(255,236,205);fill-opacity:0.47;"/>
                        </g>
                        <g transform="matrix(1,0,0,1,3928.063519,-2273.551736)">
                            <path d="M646.309,2604.852L888.017,2326.898L703.973,2604.852L646.309,2604.852Z" style="fill:rgb(255,236,205);fill-opacity:0.47;"/>
                        </g>
                        <g transform="matrix(1,0,0,1,3911.440473,-2322.616418)">
                            <path d="M667.896,2539.961L904.64,2375.963L723.086,2550.113L667.896,2539.961Z" style="fill:rgb(255,236,205);fill-opacity:0.47;"/>
                        </g>
                        <g transform="matrix(1,0,0,1,3975.868206,-2273.551736)">
                            <path d="M770.551,2654.894L840.212,2326.898L816.035,2654.894L770.551,2654.894Z" style="fill:rgb(255,236,205);fill-opacity:0.47;"/>
                        </g>
                        <g transform="matrix(1,0,0,1,3975.868206,-2273.551736)">
                            <path d="M857.555,2654.894L840.212,2326.898L907.145,2654.894" style="fill:rgb(255,236,205);fill-opacity:0.47;"/>
                        </g>
                        <g transform="matrix(1,0,0,1,3975.868206,-2273.551736)">
                            <path d="M953.328,2643.906L843.124,2341.168L990.879,2625.996L953.328,2643.906Z" style="fill:rgb(255,236,205);fill-opacity:0.47;"/>
                        </g>
                        <g transform="matrix(1,0,0,1,4013.77055,-2273.551736)">
                            <path d="M957.348,2572.102L802.31,2332.572L988.945,2552.619L957.348,2572.102Z" style="fill:rgb(255,236,205);fill-opacity:0.47;"/>
                        </g>
                        <g transform="matrix(1,0,0,1,4040.387737,-2300.168923)">
                            <path d="M954.139,2527.666L775.692,2359.189L962.328,2492.492L954.139,2527.666Z" style="fill:rgb(255,236,205);fill-opacity:0.47;"/>
                        </g>
                    </g>
                </g>
            </g>
        </g>
    </g>
</svg>
