<?xml version="1.0" encoding="UTF-8" standalone="no"?><!DOCTYPE svg PUBLIC "-//W3C//DTD SVG 1.1//EN" "http://www.w3.org/Graphics/SVG/1.1/DTD/svg11.dtd"><svg width="100%" height="100%" viewBox="0 0 243 243" version="1.1" xmlns="http://www.w3.org/2000/svg" xmlns:xlink="http://www.w3.org/1999/xlink" xml:space="preserve" xmlns:serif="http://www.serif.com/" style="fill-rule:evenodd;clip-rule:evenodd;stroke-linecap:round;stroke-miterlimit:2;"><g><path d="M121.31,242.622c67,0 121.31,-54.313 121.31,-121.312c0,-66.998 -54.31,-121.31 -121.31,-121.31c-67,0 -121.31,54.312 -121.31,121.31c0,66.999 54.31,121.312 121.31,121.312Z" style="fill:#defaff;fill-rule:nonzero;"/><clipPath id="_clip1"><path d="M121.31,242.622c67,0 121.31,-54.313 121.31,-121.312c0,-66.998 -54.31,-121.31 -121.31,-121.31c-67,0 -121.31,54.312 -121.31,121.31c0,66.999 54.31,121.312 121.31,121.312Z" clip-rule="nonzero"/></clipPath><g clip-path="url(#_clip1)"><rect x="-8.52" y="155.629" width="268" height="108.523" style="fill:#caa08a;fill-opacity:0.69;"/></g><g><path d="M93.199,75.017c4.148,6.702 10.892,6.702 15.04,0l21.845,-35.234c4.16,-6.703 1.13,-12.137 -6.757,-12.137l-45.217,0c-7.887,0 -10.917,5.434 -6.757,12.137l21.845,35.234Z" style="fill:#5edc56;fill-rule:nonzero;"/><path d="M94.93,195.142l-25.127,-117.295c-1.659,-7.711 3.402,-13.963 11.289,-13.963l39.253,0c7.887,0 12.936,6.252 11.289,13.963l-25.127,117.295l-11.578,0Z" style="fill:#f7b22c;"/><path d="M91.302,198.172l18.058,0" style="fill:none;stroke:#81675b;stroke-width:6px;"/></g><g><path d="M158.027,182.543c-11.21,-5.968 -18.815,-17.593 -18.815,-30.956c0,-19.451 16.112,-35.218 36.002,-35.218c19.89,0 36.013,15.767 36.013,35.218c0,13.353 -7.598,24.97 -18.797,30.942c-0.502,-0.22 -1.057,-0.342 -1.64,-0.342l-31.098,0c-0.592,0 -1.156,0.127 -1.665,0.357Z" style="fill:#d670b7;"/><path d="M167.908,126.839c5.769,-0.363 10.252,-5.342 10.013,-11.123c0,0 10.446,-5.997 -0.671,-16.01c-11.128,-10.014 -36.161,-14.442 -39.86,-10.409c-4.438,4.839 3.402,28.533 14.519,38.548c11.128,10.013 15.998,-1.006 15.998,-1.006Z" style="fill:#5edc56;fill-rule:nonzero;"/><path d="M179.298,121.836c1.695,5.531 7.601,8.803 13.188,7.305c0,0 11.982,10.085 20.63,-5.529c8.659,-15.615 6.895,-46.012 1.126,-49.274c-6.907,-3.913 -32.532,11.45 -41.191,27.064c-8.648,15.615 6.247,20.434 6.247,20.434Z" style="fill:#5edc56;fill-rule:nonzero;"/><path d="M146.596,184.556l57.36,0" style="fill:none;stroke:#81675b;stroke-width:6px;"/></g><g><path d="M41.388,180.892c-1.348,-30.548 -6.084,-136.816 -6.847,-139.473c0.709,2.369 19.204,83.646 16.046,138.426c0.808,0 1.605,-81.095 8.033,-97.926c0.808,0 -2.401,74.975 2.412,94.866c0.432,1.781 0.632,3.354 0.638,4.741c-1.289,-0.699 -2.766,-1.097 -4.336,-1.097l-13.074,0c-1.004,0 -1.97,0.162 -2.873,0.462Zm-6.85,-139.486c-0.006,-0.018 -0.012,-0.03 -0.017,-0.036c0,-0.013 0.006,-0.001 0.017,0.036Z" style="fill:#7ec087;"/><path d="M38.683,183.044l27.161,0" style="fill:none;stroke:#81675b;stroke-width:6px;"/></g></g></svg>