<?xml version="1.0" encoding="UTF-8" standalone="no"?><!DOCTYPE svg PUBLIC "-//W3C//DTD SVG 1.1//EN" "http://www.w3.org/Graphics/SVG/1.1/DTD/svg11.dtd"><svg width="100%" height="100%" viewBox="0 0 243 243" version="1.1" xmlns="http://www.w3.org/2000/svg" xmlns:xlink="http://www.w3.org/1999/xlink" xml:space="preserve" xmlns:serif="http://www.serif.com/" style="fill-rule:evenodd;clip-rule:evenodd;stroke-linejoin:round;stroke-miterlimit:2;"><g><path d="M121.32,242.622c66.99,0 121.31,-54.313 121.31,-121.311c0,-66.998 -54.32,-121.311 -121.31,-121.311c-67,0 -121.32,54.313 -121.32,121.311c0,66.998 54.32,121.311 121.32,121.311Z" style="fill:#defaff;fill-rule:nonzero;"/><clipPath id="_clip1"><path d="M121.32,242.622c66.99,0 121.31,-54.313 121.31,-121.311c0,-66.998 -54.32,-121.311 -121.31,-121.311c-67,0 -121.32,54.313 -121.32,121.311c0,66.998 54.32,121.311 121.32,121.311Z" clip-rule="nonzero"/></clipPath><g clip-path="url(#_clip1)"><g><path d="M171.727,61.709c-0.959,2.503 -5.465,8.6 -4.429,6.968c-0.058,-0.569 0.077,-1.201 0,-1.755c-2.028,-8.038 0.026,-35.062 1.083,-38.336l-0.271,0c-3.407,6.386 -3.104,6.316 -5.937,12.959c-8.863,21.698 -8.513,25.605 -9.456,27.537c-0.077,0.345 0.164,1.149 -0.135,1.35c-0.465,0.093 -1.147,-1.972 -1.209,-2.16c-7.793,-15.055 -4.481,-45.463 -4.051,-49.405l0,-2.43l-0.271,0c-0.042,0.174 -6.008,13.263 -9.988,31.317c-3.971,18.008 -3.881,17.804 -4.051,18.088c-0.951,2.68 -1.185,-1.11 -5.666,-35.097c-3.201,-24.28 -3.565,-24.074 -3.51,-26.187l-0.271,0c-0.004,0.113 -7.941,62.559 -8.103,62.633l-0.271,0c-0.943,-0.296 -4.686,-21.127 -7.291,-30.237c-5.894,-20.612 -7.521,-20.021 -7.687,-21.868c-0.108,0.024 1.25,12.613 0.938,23.217c-0.077,2.609 -0.85,28.925 -5.666,32.127l-0.271,0c-0.332,-0.091 0.27,-1.772 -5.395,-18.089c-4.121,-11.87 -5.641,-11.018 -9.988,-22.677l-0.272,-0c0.24,3.101 2.983,38.498 0.542,38.875l-0.271,0c-0.523,-0.073 -0.174,-0.782 -0.272,-1.08c-7.843,-17 -7.412,-17.27 -19.443,-31.587c-0.034,-0.036 -0.69,-1.246 -1.345,-1.35c-0.019,0.162 -0.029,0.385 0,0.54c1.633,3.074 13.32,25.066 12.821,41.576l100.898,-0.27c-0.259,-0.995 3.515,-19.439 5.811,-25.864" style="fill:#92cf9e;fill-rule:nonzero;"/><path d="M77.067,65.295c-0.977,2.536 -5.444,8.567 -4.429,6.968c-0.058,-0.568 0.077,-1.201 0,-1.755c-2.025,-8.019 0.016,-34.977 1.082,-38.336l-0.27,0c-3.38,6.313 -3.071,6.251 -5.947,12.958c-9.619,23.756 -8.12,24.742 -9.448,27.537c-0.076,0.345 0.165,1.149 -0.134,1.35c-0.464,0.093 -1.146,-1.971 -1.209,-2.159c-7.787,-15.075 -4.48,-45.464 -4.051,-49.406l0,-2.429l-0.271,0c-0.042,0.174 -6.008,13.264 -9.988,31.316c-3.97,18.008 -3.88,17.804 -4.051,18.089c-0.951,2.68 -1.185,-1.11 -5.666,-35.097c-3.201,-24.28 -3.564,-24.075 -3.51,-26.188l-0.271,0c-0.004,0.114 -7.941,62.56 -8.103,62.634l-0.271,0c-0.955,-0.301 -4.66,-21.039 -7.291,-30.237c-5.894,-20.612 -7.521,-20.021 -7.687,-21.868c-1.253,0.268 0.107,0.646 0.126,1.889c3.068,23.271 -2.687,52.016 -4.854,53.454l-0.271,0c-0.333,-0.09 0.271,-1.766 -5.395,-18.088c-4.128,-11.888 -5.633,-11.032 -9.998,-22.678l-0.261,0c0.228,3.102 2.835,38.527 0.532,38.876l-0.271,-0c-0.512,-0.073 -0.164,-0.783 -0.261,-1.08l-1.354,-3.78c-4.428,-10.25 -10.945,-19.305 -18.091,-27.807c-0.924,-0.987 -1.702,-2.241 -1.344,-0.81c1.615,3.083 12.821,24.476 12.821,41.576l100.896,-0.27c-0.37,-1.427 4.893,-24.448 5.811,-25.864" style="fill:#92cf9e;fill-rule:nonzero;"/><path d="M262.143,65.295c-0.716,1.973 -5.56,8.768 -4.419,6.968c-0.058,-0.568 0.077,-1.201 0,-1.755c-1.97,-7.797 -0.093,-34.124 1.073,-38.336l-0.271,-0c-3.271,6.491 -3.124,6.364 -5.937,12.958c-9.581,23.657 -8.166,24.83 -9.447,27.537c-0.077,0.345 0.164,1.149 -0.135,1.35c-0.44,0.088 -1.153,-1.972 -1.218,-2.159c-1.123,-2.265 -4.662,-16.341 -4.854,-27.808c-0.282,-16.853 0.803,-16.67 0.803,-24.027l-0.261,0c-0.443,1.847 -2.231,1.135 -7.832,22.407c-2.07,7.861 -5.551,25.903 -6.207,26.998c-1.102,3.079 -0.889,0.862 -1.083,-0.81c-0.436,-1.917 -4.738,-35.267 -5.134,-38.336c-2.653,-20.564 -2.992,-20.352 -2.968,-22.138l-0.271,-0c-0.003,0.222 -7.946,62.566 -8.093,62.634l-0.271,-0c-0.955,-0.296 -4.744,-21.314 -7.291,-30.237c-5.897,-20.662 -7.476,-20.026 -7.697,-21.868c-0.111,0.024 1.263,12.679 0.948,23.217c-0.078,2.609 -0.865,28.895 -5.666,32.126l-0.271,0c-0.384,-0.104 0.511,-1.014 -5.405,-18.088c-4.09,-11.806 -5.594,-10.956 -9.988,-22.678l-0.271,0c0.341,3.092 4.23,38.316 0.542,38.876l-0.271,0l-1.615,-4.86c-4.438,-10.25 -10.945,-19.305 -18.091,-27.807c-0.037,-0.039 -0.702,-1.245 -1.354,-1.35c-0.019,0.162 -0.029,0.385 0,0.54c0.833,1.455 4.358,7.617 7.832,19.439c0.512,1.742 4.999,17.009 4.999,22.137l100.897,-0.27c-0.249,-0.957 3.294,-18.6 5.801,-25.864" style="fill:#92cf9e;fill-rule:nonzero;"/><path d="M-7.013,73.567l266.7,0l-11.692,75.804l-40.372,21.765l-70.134,16.511l-63.746,-1.481l-59.502,-30.791l-34.006,-60.255l12.754,-21.552Z" style="fill:#92cf9e;fill-rule:nonzero;"/></g><g><path d="M146.882,140.498c-0.956,2.919 -5.452,10.029 -4.418,8.127c-0.058,-0.663 0.077,-1.4 0,-2.047c-2.023,-9.374 0.026,-40.889 1.08,-44.707l-0.27,0c-3.399,7.448 -3.096,7.365 -5.923,15.112c-8.842,25.304 -8.493,29.86 -9.434,32.114c-0.077,0.403 0.164,1.34 -0.135,1.574c-0.464,0.108 -1.144,-2.3 -1.206,-2.519c-7.775,-17.557 -4.47,-53.018 -4.042,-57.616l0,-2.834l-0.27,0c-0.042,0.203 -5.993,15.467 -9.965,36.522c-3.961,21.001 -3.872,20.763 -4.042,21.094c-0.949,3.126 -1.182,-1.294 -5.653,-40.929c-3.194,-28.314 -3.556,-28.075 -3.502,-30.539l-0.27,0c-0.004,0.132 -7.922,72.955 -8.083,73.042l-0.27,0c-0.941,-0.345 -4.675,-24.638 -7.273,-35.262c-5.88,-24.037 -7.504,-23.348 -7.669,-25.502c-0.108,0.028 1.247,14.709 0.936,27.076c-0.077,3.042 -0.848,33.731 -5.653,37.467l-0.27,0c-0.331,-0.106 0.269,-2.066 -5.383,-21.095c-4.111,-13.843 -5.628,-12.849 -9.965,-26.445l-0.271,-0c0.24,3.616 2.976,44.895 0.541,45.336l-0.27,0c-0.522,-0.086 -0.174,-0.912 -0.271,-1.26c-7.825,-19.825 -7.395,-20.139 -19.397,-36.836c-0.034,-0.042 -0.688,-1.453 -1.342,-1.574c-0.019,0.189 -0.029,0.449 0,0.63c1.629,3.584 13.288,29.231 12.791,48.485l100.659,-0.315c-0.258,-1.16 3.507,-22.669 5.797,-30.162" style="fill:#5cb167;fill-rule:nonzero;"/><path d="M54.544,137.527c-0.948,2.604 -5.279,8.798 -4.294,7.156c-0.056,-0.583 0.075,-1.233 0,-1.802c-1.964,-8.234 0.016,-35.918 1.049,-39.367l-0.261,0c-3.278,6.483 -2.977,6.419 -5.766,13.307c-9.327,24.395 -7.874,25.408 -9.161,28.278c-0.074,0.354 0.16,1.18 -0.13,1.386c-0.45,0.095 -1.112,-2.024 -1.172,-2.217c-7.55,-15.481 -4.344,-46.687 -3.928,-50.735l0,-2.494l-0.263,0c-0.041,0.179 -5.826,13.621 -9.685,32.159c-3.85,18.493 -3.763,18.283 -3.928,18.576c-0.922,2.752 -1.149,-1.14 -5.494,-36.041c-3.104,-24.934 -3.456,-24.722 -3.403,-26.892l-0.263,0c-0.003,0.117 -7.7,64.243 -7.857,64.32l-0.263,0c-0.926,-0.309 -4.519,-21.605 -7.069,-31.051c-5.715,-21.166 -7.293,-20.559 -7.454,-22.456c-1.215,0.275 0.104,0.663 0.122,1.94c2.975,23.897 -2.606,53.416 -4.707,54.893l-0.263,0c-0.323,-0.093 0.263,-1.814 -5.232,-18.575c-4.002,-12.208 -5.462,-11.328 -9.694,-23.288l-0.253,0c0.221,3.185 2.749,39.563 0.516,39.923l-0.262,-0c-0.497,-0.075 -0.159,-0.804 -0.253,-1.109l-1.313,-3.881c-4.294,-10.526 -10.613,-19.825 -17.542,-28.556c-0.896,-1.014 -1.65,-2.301 -1.303,-0.832c1.566,3.166 12.432,25.134 12.432,42.695l97.833,-0.277c-0.359,-1.465 4.744,-25.106 5.635,-26.56" style="fill:#5cb167;fill-rule:nonzero;"/><path d="M235.675,149.24c-0.694,2.026 -5.391,9.003 -4.285,7.156c-0.056,-0.583 0.075,-1.233 0,-1.802c-1.91,-8.007 -0.09,-35.042 1.041,-39.367l-0.263,-0c-3.172,6.665 -3.029,6.535 -5.756,13.307c-9.29,24.294 -7.918,25.498 -9.16,28.278c-0.075,0.354 0.159,1.18 -0.131,1.386c-0.427,0.09 -1.118,-2.025 -1.181,-2.217c-1.089,-2.326 -4.521,-16.781 -4.707,-28.556c-0.273,-17.306 0.778,-17.119 0.778,-24.673l-0.253,0c-0.429,1.896 -2.164,1.166 -7.594,23.01c-2.007,8.072 -5.383,26.6 -6.019,27.724c-1.069,3.161 -0.862,0.885 -1.05,-0.832c-0.423,-1.969 -4.595,-36.216 -4.978,-39.367c-2.572,-21.117 -2.901,-20.899 -2.878,-22.734l-0.263,-0c-0.003,0.228 -7.705,64.25 -7.847,64.32l-0.263,-0c-0.926,-0.304 -4.6,-21.888 -7.069,-31.051c-5.718,-21.218 -7.249,-20.565 -7.463,-22.456c-0.108,0.024 1.225,13.02 0.919,23.842c-0.076,2.679 -0.839,29.673 -5.494,32.991l-0.263,0c-0.372,-0.107 0.495,-1.041 -5.241,-18.575c-3.966,-12.123 -5.425,-11.251 -9.685,-23.288l-0.263,0c0.331,3.175 4.101,39.347 0.525,39.923l-0.263,0l-1.566,-4.99c-4.303,-10.526 -10.613,-19.825 -17.542,-28.556c-0.036,-0.04 -0.68,-1.279 -1.313,-1.386c-0.019,0.167 -0.028,0.395 0,0.554c0.807,1.494 4.226,7.822 7.594,19.962c0.496,1.789 4.847,17.467 4.847,22.733l97.834,-0.277c-0.242,-0.983 3.194,-19.101 5.625,-26.56" style="fill:#5cb167;fill-rule:nonzero;"/><path d="M-0.762,147.217l247.264,14.399l-14.737,66.282l-38.549,17.033l-65.872,10.788l-59.025,-4.749l-53.583,-30.392l-28.43,-55.024l12.932,-18.335Z" style="fill:#5cb167;fill-rule:nonzero;"/></g></g></g></svg>