<?xml version="1.0" encoding="UTF-8" standalone="no"?><!DOCTYPE svg PUBLIC "-//W3C//DTD SVG 1.1//EN" "http://www.w3.org/Graphics/SVG/1.1/DTD/svg11.dtd"><svg width="100%" height="100%" viewBox="0 0 243 243" version="1.1" xmlns="http://www.w3.org/2000/svg" xmlns:xlink="http://www.w3.org/1999/xlink" xml:space="preserve" xmlns:serif="http://www.serif.com/" style="fill-rule:evenodd;clip-rule:evenodd;stroke-linecap:round;stroke-miterlimit:2;"><path d="M121.31,242.626c67,0 121.31,-54.316 121.31,-121.315c0,-66.998 -54.31,-121.311 -121.31,-121.311c-67,0 -121.31,54.313 -121.31,121.311c0,66.999 54.31,121.315 121.31,121.315Z" style="fill:#defaff;fill-rule:nonzero;"/><clipPath id="_clip1"><path d="M121.31,242.626c67,0 121.31,-54.316 121.31,-121.315c0,-66.998 -54.31,-121.311 -121.31,-121.311c-67,0 -121.31,54.313 -121.31,121.311c0,66.999 54.31,121.315 121.31,121.315Z" clip-rule="nonzero"/></clipPath><g clip-path="url(#_clip1)"><rect x="-169.133" y="197.276" width="452" height="105" style="fill:#92cf9e;"/></g><path d="M170.181,137.002l0,76.195" style="fill:none;stroke:#776e5c;stroke-width:7.95px;"/><path d="M94.433,189.829c0,0 61.972,-11.673 61.972,-60.54c0,-48.867 -44.06,-119.288 -61.972,-119.452c-21.492,-0.195 -61.972,70.585 -61.972,119.452c0,48.866 61.972,60.54 61.972,60.54Z" style="fill:#92d66d;fill-rule:nonzero;"/><path d="M76.245,88.562l18.685,21.775m29.878,-1.466l-28.839,31.929m-37.494,-14.521l36.139,35.813m0.819,-101.816l0,158.736" style="fill:none;stroke:#776e5c;stroke-width:10px;"/><path d="M212.61,182.996l-25.666,-32.881l16.413,0c4.245,0 5.131,-3.613 1.962,-8.071l-19.482,-31.305l9.242,0c4.245,0 5.353,-3.968 2.46,-8.861l-23.206,-41.451c-2.892,-4.894 -7.58,-4.894 -10.473,0l-23.206,41.451c-2.893,4.894 -1.795,8.861 2.46,8.861l9.242,0l-19.482,31.305c-3.17,4.458 -2.283,8.071 1.962,8.071l16.413,0l-25.666,32.881c-3.38,4.044 -2.682,7.323 1.574,7.323l83.882,0c4.244,0 4.954,-3.278 1.574,-7.323Z" style="fill:#63aa98;fill-rule:nonzero;"/></svg>