<?xml version="1.0" encoding="UTF-8" standalone="no"?><!DOCTYPE svg PUBLIC "-//W3C//DTD SVG 1.1//EN" "http://www.w3.org/Graphics/SVG/1.1/DTD/svg11.dtd"><svg width="100%" height="100%" viewBox="0 0 243 243" version="1.1" xmlns="http://www.w3.org/2000/svg" xmlns:xlink="http://www.w3.org/1999/xlink" xml:space="preserve" xmlns:serif="http://www.serif.com/" style="fill-rule:evenodd;clip-rule:evenodd;stroke-linejoin:round;stroke-miterlimit:2;"><path d="M121.32,242.622c66.99,0 121.31,-54.313 121.31,-121.311c0,-66.998 -54.32,-121.311 -121.31,-121.311c-67,0 -121.32,54.313 -121.32,121.311c0,66.998 54.32,121.311 121.32,121.311Z" style="fill:#defaff;fill-rule:nonzero;"/><clipPath id="_clip1"><path d="M121.32,242.622c66.99,0 121.31,-54.313 121.31,-121.311c0,-66.998 -54.32,-121.311 -121.31,-121.311c-67,0 -121.32,54.313 -121.32,121.311c0,66.998 54.32,121.311 121.32,121.311Z" clip-rule="nonzero"/></clipPath><g clip-path="url(#_clip1)"><g><path d="M232.52,110.291c-0.243,0.635 -2.05,3.755 -2.204,4.212c-0.128,0.36 -2.319,3.195 -2.588,3.771c-0.115,0.237 -1.076,1.252 -1.076,1.252c-0.077,-0.753 0.103,-1.591 0,-2.326c-0.243,-0.965 -0.205,-1.596 -0.359,-2.505c-0.102,-0.931 -0.243,-1.912 -0.358,-2.861c-0.128,-1.343 -0.282,-2.564 -0.359,-3.936c-0.461,-6.668 -0.359,-13.011 0,-19.675c0.077,-1.579 0.269,-3.11 0.359,-4.651c0.102,-1.345 0.218,-2.598 0.358,-3.935c0.103,-1.112 0.231,-2.123 0.359,-3.22c0.115,-0.983 0.218,-1.877 0.359,-2.862c0.103,-0.756 0.243,-1.424 0.359,-2.146c0.115,-0.721 0.243,-1.443 0.359,-2.147c0.103,-0.591 0.256,-1.224 0.359,-1.789c0.051,-0.332 -0.09,-0.794 0,-1.072l-0.359,0c-0.243,0.456 -0.346,0.334 -0.359,0.357c-2.306,5.729 -5.1,11.166 -7.508,16.814c-1.576,3.859 -3.216,7.908 -4.651,11.806c-0.359,0.929 -0.73,1.93 -1.076,2.862c-0.243,0.68 -0.538,1.295 -0.717,1.789c-0.128,0.347 -0.231,0.709 -0.359,1.074c-0.115,0.347 -0.231,0.711 -0.359,1.072c-0.115,0.35 -0.231,0.712 -0.359,1.072c-0.115,0.35 -0.231,0.718 -0.359,1.074c-0.115,0.351 -0.231,0.721 -0.359,1.074c-0.115,0.35 -0.243,0.728 -0.359,1.072c-0.115,0.352 -0.243,0.734 -0.346,1.074c-0.115,0.355 -0.256,0.739 -0.358,1.074c-0.115,0.361 -0.257,0.737 -0.359,1.074c-0.141,0.437 -0.192,0.884 -0.359,1.431c-0.115,0.364 -0.269,0.758 -0.359,1.072c-0.141,0.459 -0.218,0.929 -0.359,1.431c-0.115,0.363 -0.269,0.757 -0.359,1.072c-0.128,0.456 -0.218,0.932 -0.359,1.431c-0.128,0.466 -0.205,0.924 -0.359,1.431c-0.102,0.363 -0.269,0.761 -0.358,1.074c-0.141,0.491 0.038,0.618 -0.359,1.431c-0.103,0.457 0.218,1.522 -0.18,1.789c-1.358,0.27 -0.692,-0.796 -0.884,-1.074c-0.705,-1.002 -0.449,-0.974 -0.718,-1.789c-0.32,-0.619 -0.243,-0.765 -0.359,-1.074c-0.166,-0.427 -0.231,-0.712 -0.359,-1.072c-0.141,-0.378 -0.231,-0.719 -0.358,-1.074c-0.141,-0.382 -0.231,-0.684 -0.359,-1.074c-0.167,-0.525 -0.218,-0.962 -0.359,-1.431c-0.09,-0.325 -0.243,-0.692 -0.359,-1.072c-0.128,-0.491 -0.231,-0.951 -0.359,-1.431c-0.115,-0.486 -0.231,-0.937 -0.359,-1.431c-0.102,-0.466 -0.243,-0.934 -0.359,-1.431c-0.128,-0.62 -0.231,-1.183 -0.346,-1.789c-0.128,-0.607 -0.243,-1.175 -0.358,-1.789c-0.115,-0.591 -0.257,-1.169 -0.359,-1.789c-0.103,-0.571 -0.269,-1.163 -0.359,-1.789c-0.141,-0.856 -0.243,-1.648 -0.359,-2.504c-0.128,-0.962 -0.243,-1.894 -0.359,-2.862c-0.115,-0.947 -0.256,-1.886 -0.359,-2.862c-0.128,-1.326 -0.256,-2.597 -0.359,-3.935c-0.141,-2.174 -0.282,-4.253 -0.359,-6.44c-0.205,-5.173 -0.192,-9.853 0,-15.026c0.077,-2.187 0.218,-4.267 0.359,-6.44c0.103,-1.313 0.256,-2.646 0.359,-3.935c0.115,-1.074 0.243,-2.16 0.359,-3.22l0,-3.22l-0.359,0c-0.448,1.872 -1.153,2.715 -1.794,4.294c-0.577,1.555 -1.217,3.116 -1.781,4.651c-0.166,0.422 -0.346,0.678 -0.359,0.715c-0.128,0.334 -0.218,0.693 -0.358,1.074c-0.128,0.337 -0.218,0.698 -0.359,1.072c-0.128,0.342 -0.218,0.703 -0.359,1.074c-0.128,0.342 -0.231,0.707 -0.359,1.072c-0.115,0.345 -0.231,0.715 -0.359,1.074c-0.179,0.52 -0.346,0.678 -0.359,0.715c-0.115,0.351 -0.231,0.721 -0.359,1.074c-0.115,0.352 -0.231,0.725 -0.346,1.074c-0.128,0.351 -0.256,0.73 -0.359,1.072c-0.115,0.354 -0.256,0.738 -0.358,1.074c-0.115,0.357 -0.257,0.741 -0.359,1.074c-0.141,0.448 -0.205,0.916 -0.359,1.431c-0.115,0.36 -0.269,0.753 -0.359,1.072c-0.115,0.363 -0.269,0.758 -0.359,1.074c-0.128,0.456 -0.218,0.932 -0.359,1.431c-0.115,0.415 -0.295,0.861 -0.359,1.072c-0.128,0.46 -0.231,0.949 -0.359,1.431c-0.115,0.432 -0.307,0.879 -0.358,1.074c-0.115,0.462 -0.231,0.952 -0.359,1.431c-0.115,0.465 -0.231,0.956 -0.359,1.43c-0.115,0.469 -0.231,0.962 -0.346,1.431c-0.128,0.469 -0.243,0.967 -0.359,1.431c-0.128,0.473 -0.243,0.969 -0.359,1.431c-0.115,0.477 -0.243,0.966 -0.359,1.431c-0.141,0.578 -0.205,1.163 -0.359,1.789c-0.115,0.474 -0.256,0.975 -0.359,1.431c-0.141,0.578 -0.218,1.172 -0.358,1.789c-0.141,0.579 -0.218,1.178 -0.359,1.789c-0.128,0.584 -0.218,1.178 -0.359,1.789c-0.128,0.583 -0.218,1.183 -0.359,1.789c-0.128,0.588 -0.218,1.179 -0.359,1.789c-0.154,0.701 -0.179,1.38 -0.359,2.146c-0.103,0.48 -0.256,0.992 -0.359,1.431c-0.128,0.591 -0.218,1.179 -0.346,1.789c-0.128,0.484 -0.243,0.956 -0.359,1.431c-0.154,0.588 -0.192,1.137 -0.358,1.789c-0.128,0.506 -0.218,0.925 -0.359,1.431c-0.128,0.464 -0.231,0.946 -0.359,1.431c-0.141,0.51 -0.18,0.852 -0.359,1.431c-0.128,0.397 -0.218,0.687 -0.359,1.072c-0.128,0.364 0.038,0.411 -0.359,1.074c-1.448,4.08 -1.179,1.142 -1.435,-1.074c-0.231,-1.07 -0.192,-1.851 -0.359,-2.861c-0.115,-0.829 -0.231,-1.673 -0.346,-2.505c-0.128,-0.837 -0.243,-1.666 -0.359,-2.504c-0.141,-0.962 -0.231,-1.913 -0.359,-2.862c-0.115,-0.824 -0.243,-1.671 -0.359,-2.504c-0.128,-0.957 -0.231,-1.914 -0.359,-2.862c-0.115,-0.821 -0.243,-1.671 -0.359,-2.505c-0.115,-0.82 -0.243,-1.669 -0.358,-2.504c-0.128,-0.958 -0.231,-1.913 -0.359,-2.862c-0.115,-0.817 -0.244,-1.671 -0.359,-2.504c-0.128,-0.957 -0.231,-1.913 -0.359,-2.862c-0.103,-0.817 -0.243,-1.67 -0.359,-2.505c-0.103,-0.816 -0.243,-1.669 -0.359,-2.504c-0.115,-0.952 -0.231,-1.913 -0.346,-2.862c-0.115,-0.816 -0.256,-1.668 -0.359,-2.504c-0.128,-0.953 -0.243,-1.913 -0.358,-2.862c-0.128,-0.951 -0.244,-1.912 -0.359,-2.862c-0.115,-0.812 -0.257,-1.67 -0.359,-2.504c-0.128,-0.951 -0.231,-1.912 -0.359,-2.862c-0.103,-0.811 -0.256,-1.67 -0.359,-2.504c-0.128,-0.949 -0.231,-1.912 -0.359,-2.862c-0.115,-0.949 -0.231,-1.912 -0.359,-2.862c-0.115,-0.947 -0.231,-1.91 -0.359,-2.862c-0.115,-0.947 -0.231,-1.91 -0.359,-2.861c-0.115,-0.946 -0.231,-1.909 -0.358,-2.862c-0.115,-0.946 -0.231,-1.912 -0.359,-2.862c-0.09,-0.802 -0.244,-1.669 -0.346,-2.504c-0.128,-0.949 -0.243,-1.905 -0.359,-2.862c-0.077,-0.656 -0.282,-1.415 -0.359,-2.146c-0.051,-0.51 -0.384,-1.154 -0.359,-2.146l-0.359,0c-0.026,0.826 -0.333,1.529 -0.359,1.789c-0.089,0.962 -0.269,1.945 -0.358,2.862c-0.128,1.193 -0.218,2.378 -0.359,3.576c-0.103,0.96 -0.244,1.923 -0.359,2.862c-0.115,0.956 -0.243,1.922 -0.359,2.862c-0.115,0.953 -0.243,1.922 -0.359,2.861c-0.115,0.953 -0.243,1.921 -0.359,2.862c-0.103,0.837 -0.256,1.702 -0.359,2.505c-0.115,0.951 -0.231,1.919 -0.346,2.862c-0.141,1.067 -0.231,2.141 -0.359,3.219c-0.128,0.952 -0.243,1.918 -0.358,2.862c-0.128,0.952 -0.244,1.917 -0.359,2.862c-0.103,0.835 -0.257,1.698 -0.359,2.505c-0.115,0.949 -0.243,1.916 -0.359,2.861c-0.115,0.952 -0.231,1.913 -0.359,2.862c-0.115,0.951 -0.231,1.913 -0.359,2.862c-0.115,0.949 -0.231,1.912 -0.359,2.861c-0.102,0.835 -0.243,1.693 -0.359,2.505c-0.115,0.949 -0.231,1.912 -0.358,2.861c-0.115,0.952 -0.231,1.91 -0.359,2.862c-0.115,0.949 -0.231,1.912 -0.359,2.862c-0.103,0.834 -0.243,1.69 -0.346,2.504c-0.128,0.951 -0.231,1.909 -0.359,2.862c-0.128,0.951 -0.231,1.907 -0.359,2.862c-0.128,0.952 -0.231,1.903 -0.359,2.861c-0.115,0.837 -0.243,1.682 -0.359,2.505c-0.128,0.958 -0.218,1.89 -0.359,2.862c-0.141,0.952 -0.218,1.889 -0.358,2.862c-0.141,0.882 -0.154,1.58 -0.359,2.504c-0.115,0.621 0.346,1.821 -0.359,2.146l-0.359,0c-0.743,-0.233 -0.577,-1.426 -0.718,-1.789c-0.269,-0.58 -0.218,-0.689 -0.346,-1.074c-0.128,-0.373 -0.243,-0.674 -0.359,-1.072c-0.218,-0.62 -0.218,-0.93 -0.359,-1.431c-0.141,-0.498 -0.231,-0.957 -0.358,-1.431c-0.141,-0.501 -0.244,-0.934 -0.359,-1.431c-0.115,-0.474 -0.244,-0.937 -0.359,-1.431c-0.167,-0.639 -0.218,-1.201 -0.359,-1.789c-0.115,-0.468 -0.243,-0.944 -0.359,-1.431c-0.128,-0.605 -0.231,-1.202 -0.359,-1.789c-0.128,-0.606 -0.231,-1.204 -0.359,-1.787c-0.166,-0.761 -0.192,-1.453 -0.359,-2.147c-0.128,-0.61 -0.218,-1.207 -0.358,-1.789c-0.141,-0.615 -0.218,-1.206 -0.359,-1.789c-0.141,-0.615 -0.218,-1.21 -0.346,-1.789c-0.154,-0.62 -0.231,-1.211 -0.359,-1.789c-0.115,-0.457 -0.243,-0.957 -0.359,-1.431c-0.154,-0.627 -0.218,-1.208 -0.359,-1.789c-0.115,-0.463 -0.243,-0.953 -0.359,-1.431c-0.115,-0.46 -0.243,-0.958 -0.359,-1.431c-0.115,-0.464 -0.243,-0.961 -0.359,-1.431c-0.115,-0.468 -0.243,-0.964 -0.358,-1.431c-0.115,-0.474 -0.231,-0.962 -0.359,-1.43c-0.038,-0.173 -0.244,-0.637 -0.359,-1.074c-0.128,-0.479 -0.231,-0.966 -0.359,-1.431c-0.128,-0.482 -0.231,-0.97 -0.359,-1.431c-0.051,-0.21 -0.231,-0.652 -0.359,-1.072c-0.064,-0.228 -0.231,-0.662 -0.346,-1.074c-0.154,-0.504 -0.231,-0.976 -0.359,-1.431c-0.102,-0.319 -0.256,-0.71 -0.358,-1.072c-0.103,-0.323 -0.257,-0.711 -0.359,-1.074c-0.103,-0.325 -0.244,-0.714 -0.359,-1.074c-0.167,-0.543 -0.218,-1.001 -0.359,-1.431c-0.103,-0.337 -0.243,-0.72 -0.359,-1.072c-0.115,-0.345 -0.243,-0.721 -0.359,-1.074c-0.115,-0.349 -0.243,-0.721 -0.359,-1.074c-0.013,-0.037 -0.179,-0.185 -0.359,-0.715c-0.115,-0.35 -0.231,-0.726 -0.359,-1.074c-0.115,-0.357 -0.231,-0.725 -0.358,-1.072c-0.115,-0.364 -0.231,-0.725 -0.346,-1.074c-0.128,-0.365 -0.244,-0.724 -0.359,-1.072c-0.128,-0.365 -0.243,-0.732 -0.359,-1.074c-0.013,-0.038 -0.192,-0.252 -0.359,-0.715c-0.141,-0.375 -0.231,-0.737 -0.359,-1.074c-0.141,-0.379 -0.231,-0.741 -0.359,-1.074c-0.218,-0.57 -0.487,-1.203 -0.717,-1.789c-0.128,-0.37 -0.231,-0.737 -0.359,-1.074c-0.205,-0.56 -0.487,-1.199 -0.718,-1.789c-0.18,-0.468 -0.282,-0.905 -0.359,-1.074c-0.256,-0.569 -0.256,-0.875 -0.359,-1.072c-0.243,-0.529 -0.32,-1.025 -0.346,-1.072c-0.026,-0.04 -0.5,-0.287 -0.538,-0.716c-0.282,0.062 -0.192,0.815 -0.18,1.074c0,0.073 0.333,0.582 0.359,1.431c0.167,1.359 0.231,2.587 0.359,3.935c0.115,1.666 0.243,3.331 0.346,5.009c0.141,2.525 0.295,4.97 0.359,7.512c0.115,4.074 0.115,7.731 0,11.806c-0.064,2.669 -0.192,5.214 -0.359,7.871c-0.103,1.457 -0.218,2.844 -0.346,4.294c-0.102,1.095 -0.243,2.145 -0.359,3.219c-0.115,0.97 -0.243,1.909 -0.359,2.862c-0.115,0.857 -0.231,1.659 -0.358,2.505c-0.115,0.743 -0.244,1.425 -0.359,2.146c-0.128,0.728 -0.231,1.418 -0.359,2.146c-0.115,0.614 -0.231,1.189 -0.359,1.789c-0.128,0.605 -0.231,1.18 -0.359,1.789c-0.103,0.495 -0.256,0.975 -0.359,1.431c-0.115,0.501 -0.231,0.947 -0.359,1.431c-0.115,0.484 -0.218,0.94 -0.359,1.431c-0.115,0.455 -0.295,0.85 -0.358,1.072c-0.128,0.486 -0.192,0.903 -0.359,1.431c-0.115,0.384 -0.218,0.702 -0.346,1.074c-0.128,0.361 -0.231,0.7 -0.359,1.074c-0.128,0.364 -0.205,0.677 -0.359,1.072c-0.128,0.32 -0.103,0.507 -0.359,1.074c-0.282,0.812 -0.154,2.249 -1.076,2.862l-0.358,0c-0.718,-0.196 -0.192,-1.325 -0.359,-1.789c-0.218,-0.632 -0.218,-0.919 -0.359,-1.431c-0.128,-0.501 -0.231,-0.939 -0.359,-1.431c-0.115,-0.457 -0.231,-0.992 -0.359,-1.431c-0.064,-0.228 -0.231,-0.668 -0.359,-1.074c-0.141,-0.502 -0.218,-0.971 -0.346,-1.431c-0.102,-0.313 -0.256,-0.709 -0.359,-1.072c-0.102,-0.319 -0.256,-0.709 -0.359,-1.072c-0.179,-0.548 -0.218,-0.994 -0.358,-1.431c-0.103,-0.337 -0.244,-0.711 -0.359,-1.074c-0.103,-0.333 -0.244,-0.718 -0.359,-1.074c-0.115,-0.341 -0.243,-0.714 -0.359,-1.074c-0.115,-0.339 -0.243,-0.718 -0.359,-1.072c-0.115,-0.343 -0.243,-0.721 -0.359,-1.074c-0.115,-0.348 -0.231,-0.724 -0.359,-1.074c-0.115,-0.355 -0.231,-0.724 -0.359,-1.072c-0.115,-0.36 -0.231,-0.725 -0.358,-1.072c-0.115,-0.363 -0.231,-0.729 -0.346,-1.074c-0.141,-0.366 -0.244,-0.73 -0.359,-1.074c-0.141,-0.37 -0.243,-0.733 -0.359,-1.074c-0.013,-0.037 -0.194,-0.263 -0.359,-0.715c-0.142,-0.373 -0.231,-0.733 -0.359,-1.074c-0.218,-0.568 -0.487,-1.181 -0.719,-1.789c-0.32,-0.82 -0.498,-1.611 -0.716,-2.146c-0.449,-1.16 -0.961,-2.404 -1.435,-3.577c-2.716,-6.761 -7.214,-14.22 -9.648,-20.749l-0.36,0c0.027,0.347 -0.063,0.732 0,1.072c0.078,0.545 0.258,1.181 0.36,1.789c0.154,0.885 0.229,1.635 0.359,2.505c0.115,0.841 0.242,1.645 0.346,2.504c0.141,0.976 0.256,1.868 0.359,2.862c0.14,1.211 0.256,2.354 0.359,3.577c0.152,1.581 0.269,3.061 0.359,4.651c0.166,2.659 0.32,5.194 0.359,7.87c0.05,2.623 0.063,4.887 0,7.513c-0.064,2.322 -0.192,4.49 -0.359,6.797c-0.115,1.329 -0.219,2.609 -0.359,3.936c-0.115,0.957 -0.232,1.909 -0.359,2.861c-0.142,0.807 -0.09,1.277 -0.359,2.146c-0.104,0.437 0.307,1.33 -0.346,1.431l-0.359,0c-0.693,-0.097 -0.231,-1.037 -0.36,-1.431c-0.498,-1.08 -0.447,-1.423 -0.716,-2.146c-0.141,-0.377 -0.232,-0.728 -0.359,-1.074c-0.206,-0.542 -0.487,-1.217 -0.718,-1.787c-5.868,-13.583 -14.504,-25.582 -23.973,-36.85c-0.679,-0.724 -0.666,-0.896 -1.064,-1.431c-0.026,-0.019 -0.117,0.038 -0.359,-0.357c-0.091,-0.036 -0.231,0.02 -0.36,0c-0.026,0.215 -0.038,0.51 0,0.716c0.142,0.268 0.232,0.456 0.36,0.715c0.013,0.023 0.128,-0.108 0.359,0.357c1.818,3.534 2.818,5.52 4.292,9.302c0.256,0.616 0.461,1.186 0.703,1.789c0.32,0.837 0.488,1.507 0.719,2.146c0.013,0.037 0.192,0.251 0.359,0.716c0.167,0.418 0.229,0.733 0.359,1.072c0.154,0.39 0.229,0.724 0.359,1.074c0.14,0.382 0.231,0.72 0.359,1.072c0.14,0.377 0.231,0.716 0.359,1.074c0.128,0.368 0.231,0.711 0.359,1.074c0.115,0.359 0.231,0.709 0.357,1.074c0.117,0.348 0.245,0.706 0.359,1.072c0.104,0.341 0.245,0.709 0.36,1.074c0.103,0.338 0.242,0.705 0.359,1.074c0.103,0.332 0.242,0.698 0.346,1.072c0.152,0.514 0.231,0.962 0.359,1.431c0.077,0.245 0.243,0.644 0.359,1.072c0.14,0.501 0.231,0.955 0.359,1.431c0.05,0.192 0.243,0.615 0.357,1.074c0.13,0.489 0.232,0.955 0.359,1.431c0.13,0.486 0.232,0.948 0.36,1.431c0.115,0.478 0.242,0.943 0.359,1.431c0.115,0.465 0.242,0.942 0.359,1.431c0.103,0.455 0.243,0.94 0.359,1.431c0.103,0.446 0.243,0.939 0.359,1.43c0.14,0.619 0.218,1.195 0.359,1.789c0.128,0.611 0.218,1.199 0.346,1.789c0.141,0.611 0.243,1.193 0.357,1.79c0.142,0.727 0.232,1.438 0.359,2.146c0.142,0.729 0.232,1.443 0.36,2.146c0.167,0.875 0.205,1.675 0.359,2.504c0.18,0.799 0.242,2.203 0.359,2.505c0.026,0.056 0.551,0.607 0.537,1.074l133.704,-0.357c-0.243,-0.935 0.179,-1.682 0.359,-2.505c0.166,-0.805 0.192,-1.63 0.359,-2.505c0.141,-0.684 0.231,-1.43 0.359,-2.146c0.141,-0.7 0.205,-1.408 0.358,-2.146c0.115,-0.611 0.231,-1.176 0.359,-1.789c0.128,-0.591 0.231,-1.184 0.359,-1.789c0.128,-0.597 0.218,-1.172 0.359,-1.789c0.128,-0.592 0.218,-1.17 0.359,-1.79c0.103,-0.484 0.243,-0.979 0.359,-1.43c0.102,-0.488 0.243,-0.971 0.346,-1.431c0.128,-0.489 0.243,-0.956 0.359,-1.431c0.128,-0.483 0.243,-0.949 0.358,-1.431c0.128,-0.477 0.231,-0.944 0.359,-1.431c0.128,-0.462 0.307,-0.885 0.359,-1.072c0.128,-0.478 0.218,-0.934 0.359,-1.431c0.103,-0.379 0.269,-0.755 0.359,-1.074c0.141,-0.469 0.205,-0.914 0.359,-1.43c0.115,-0.377 0.256,-0.748 0.359,-1.074c0.115,-0.373 1.243,-4.543 1.256,-4.579" style="fill:#92cf9e;fill-rule:nonzero;"/><path d="M107.082,115.043c-0.245,0.635 -2.05,3.757 -2.204,4.213c-0.128,0.36 -2.319,3.194 -2.588,3.77c-0.115,0.238 -1.076,1.252 -1.076,1.252c-0.077,-0.752 0.103,-1.591 0,-2.326c-0.243,-0.963 -0.205,-1.595 -0.359,-2.504c-0.104,-0.933 -0.243,-1.912 -0.359,-2.862c-0.128,-1.342 -0.282,-2.564 -0.36,-3.935c-0.473,-6.669 -0.359,-13.013 0,-19.677c0.078,-1.577 0.258,-3.11 0.36,-4.651c0.103,-1.345 0.218,-2.597 0.359,-3.935c0.103,-1.111 0.229,-2.123 0.359,-3.22c0.115,-0.982 0.216,-1.877 0.359,-2.862c0.103,-0.755 0.243,-1.422 0.359,-2.146c0.114,-0.721 0.243,-1.443 0.359,-2.146c0.101,-0.592 0.256,-1.225 0.357,-1.789c0.051,-0.333 -0.088,-0.796 0,-1.074l-0.357,0c-0.245,0.457 -0.346,0.336 -0.359,0.357c-2.306,5.729 -5.1,11.166 -7.521,16.814c-1.563,3.861 -3.203,7.908 -4.638,11.806c-0.359,0.929 -0.73,1.93 -1.076,2.862c-0.243,0.682 -0.538,1.297 -0.719,1.789c-0.127,0.347 -0.229,0.71 -0.359,1.074c-0.127,0.348 -0.229,0.711 -0.357,1.072c-0.115,0.351 -0.231,0.714 -0.359,1.074c-0.115,0.35 -0.232,0.718 -0.359,1.074c-0.115,0.35 -0.232,0.721 -0.359,1.072c-0.115,0.351 -0.243,0.728 -0.359,1.074c-0.117,0.352 -0.243,0.734 -0.359,1.074c-0.104,0.355 -0.243,0.738 -0.346,1.072c-0.115,0.361 -0.256,0.738 -0.36,1.074c-0.14,0.437 -0.191,0.885 -0.359,1.431c-0.114,0.364 -0.269,0.758 -0.357,1.074c-0.141,0.457 -0.218,0.928 -0.359,1.43c-0.115,0.363 -0.269,0.759 -0.359,1.074c-0.141,0.455 -0.219,0.931 -0.359,1.431c-0.13,0.465 -0.205,0.924 -0.359,1.431c-0.104,0.361 -0.269,0.761 -0.359,1.072c-0.141,0.491 0.026,0.619 -0.36,1.431c-0.101,0.457 0.219,1.522 -0.178,1.789c-1.358,0.272 -0.692,-0.794 -0.897,-1.072c-0.692,-1.002 -0.436,-0.975 -0.705,-1.789c-0.32,-0.62 -0.243,-0.765 -0.359,-1.074c-0.168,-0.428 -0.231,-0.712 -0.359,-1.074c-0.141,-0.377 -0.231,-0.718 -0.359,-1.072c-0.141,-0.383 -0.231,-0.686 -0.36,-1.074c-0.165,-0.527 -0.216,-0.962 -0.359,-1.431c-0.101,-0.325 -0.242,-0.693 -0.357,-1.072c-0.128,-0.491 -0.232,-0.951 -0.359,-1.431c-0.128,-0.486 -0.245,-0.937 -0.359,-1.431c-0.103,-0.468 -0.243,-0.934 -0.359,-1.431c-0.142,-0.621 -0.231,-1.183 -0.359,-1.789c-0.13,-0.607 -0.231,-1.176 -0.346,-1.789c-0.117,-0.592 -0.256,-1.17 -0.359,-1.79c-0.102,-0.57 -0.269,-1.163 -0.36,-1.787c-0.14,-0.857 -0.242,-1.648 -0.359,-2.505c-0.127,-0.962 -0.242,-1.894 -0.357,-2.862c-0.115,-0.946 -0.271,-1.886 -0.359,-2.861c-0.128,-1.327 -0.256,-2.598 -0.359,-3.936c-0.155,-2.174 -0.282,-4.251 -0.359,-6.44c-0.205,-5.173 -0.205,-9.853 0,-15.024c0.077,-2.187 0.216,-4.267 0.359,-6.44c0.103,-1.315 0.256,-2.646 0.359,-3.936c0.114,-1.072 0.243,-2.159 0.359,-3.22l0,-3.219l-0.359,0c-0.449,1.872 -1.155,2.714 -1.795,4.292c-0.575,1.556 -1.229,3.116 -1.78,4.651c-0.168,0.422 -0.346,0.678 -0.359,0.715c-0.13,0.336 -0.218,0.694 -0.359,1.074c-0.128,0.337 -0.218,0.7 -0.359,1.074c-0.128,0.341 -0.231,0.702 -0.36,1.072c-0.127,0.343 -0.229,0.709 -0.359,1.074c-0.114,0.343 -0.229,0.715 -0.357,1.072c-0.18,0.52 -0.346,0.679 -0.359,0.716c-0.115,0.35 -0.232,0.721 -0.359,1.074c-0.115,0.352 -0.243,0.724 -0.359,1.072c-0.117,0.352 -0.243,0.732 -0.359,1.074c-0.117,0.354 -0.243,0.737 -0.346,1.074c-0.115,0.357 -0.256,0.739 -0.36,1.072c-0.14,0.448 -0.204,0.916 -0.359,1.431c-0.114,0.361 -0.268,0.755 -0.357,1.072c-0.115,0.364 -0.271,0.758 -0.359,1.074c-0.141,0.456 -0.219,0.933 -0.359,1.431c-0.115,0.416 -0.295,0.861 -0.359,1.074c-0.13,0.46 -0.231,0.948 -0.359,1.431c-0.117,0.431 -0.307,0.878 -0.359,1.072c-0.128,0.464 -0.231,0.953 -0.359,1.431c-0.115,0.466 -0.231,0.957 -0.36,1.431c-0.114,0.469 -0.229,0.961 -0.359,1.431c-0.114,0.469 -0.242,0.966 -0.357,1.431c-0.115,0.473 -0.245,0.967 -0.346,1.431c-0.128,0.475 -0.245,0.966 -0.359,1.43c-0.141,0.578 -0.206,1.165 -0.359,1.79c-0.117,0.474 -0.256,0.975 -0.359,1.43c-0.142,0.579 -0.218,1.174 -0.359,1.789c-0.141,0.58 -0.218,1.178 -0.36,1.789c-0.127,0.584 -0.216,1.178 -0.359,1.789c-0.127,0.583 -0.216,1.184 -0.357,1.79c-0.128,0.588 -0.218,1.179 -0.359,1.789c-0.154,0.701 -0.179,1.38 -0.359,2.146c-0.103,0.479 -0.256,0.992 -0.359,1.431c-0.128,0.591 -0.218,1.178 -0.359,1.789c-0.115,0.483 -0.231,0.955 -0.346,1.431c-0.154,0.588 -0.192,1.136 -0.359,1.789c-0.128,0.505 -0.218,0.925 -0.359,1.431c-0.128,0.464 -0.231,0.944 -0.359,1.431c-0.141,0.509 -0.179,0.852 -0.359,1.43c-0.128,0.399 -0.218,0.688 -0.359,1.074c-0.128,0.364 0.038,0.411 -0.359,1.074c-1.448,4.08 -1.179,1.142 -1.435,-1.074c-0.231,-1.071 -0.192,-1.853 -0.359,-2.862c-0.115,-0.829 -0.231,-1.672 -0.359,-2.504c-0.115,-0.837 -0.231,-1.667 -0.346,-2.505c-0.141,-0.962 -0.231,-1.912 -0.359,-2.862c-0.115,-0.824 -0.243,-1.671 -0.359,-2.504c-0.141,-0.957 -0.231,-1.914 -0.359,-2.862c-0.115,-0.821 -0.244,-1.671 -0.359,-2.504c-0.115,-0.821 -0.243,-1.67 -0.359,-2.505c-0.128,-0.958 -0.231,-1.912 -0.359,-2.861c-0.115,-0.819 -0.244,-1.671 -0.359,-2.505c-0.128,-0.957 -0.231,-1.913 -0.359,-2.862c-0.102,-0.816 -0.243,-1.669 -0.359,-2.504c-0.102,-0.817 -0.243,-1.671 -0.359,-2.504c-0.128,-0.953 -0.231,-1.914 -0.359,-2.862c-0.103,-0.816 -0.244,-1.669 -0.359,-2.505c-0.115,-0.952 -0.231,-1.912 -0.346,-2.861c-0.128,-0.952 -0.243,-1.913 -0.359,-2.862c-0.115,-0.812 -0.256,-1.671 -0.359,-2.505c-0.128,-0.949 -0.244,-1.912 -0.359,-2.861c-0.102,-0.812 -0.256,-1.671 -0.359,-2.505c-0.128,-0.949 -0.243,-1.912 -0.359,-2.861c-0.128,-0.949 -0.231,-1.912 -0.359,-2.862c-0.115,-0.948 -0.244,-1.91 -0.359,-2.862c-0.115,-0.947 -0.231,-1.912 -0.359,-2.862c-0.115,-0.946 -0.243,-1.909 -0.359,-2.861c-0.115,-0.947 -0.231,-1.913 -0.359,-2.862c-0.09,-0.803 -0.256,-1.669 -0.359,-2.505c-0.115,-0.948 -0.231,-1.904 -0.346,-2.861c-0.09,-0.656 -0.282,-1.416 -0.359,-2.147c-0.051,-0.509 -0.384,-1.153 -0.359,-2.146l-0.359,0c-0.026,0.828 -0.333,1.529 -0.359,1.789c-0.09,0.964 -0.269,1.946 -0.359,2.862c-0.128,1.193 -0.231,2.378 -0.359,3.577c-0.115,0.958 -0.243,1.922 -0.359,2.862c-0.115,0.955 -0.244,1.922 -0.359,2.862c-0.115,0.952 -0.244,1.922 -0.359,2.861c-0.115,0.953 -0.243,1.921 -0.359,2.862c-0.102,0.837 -0.256,1.7 -0.359,2.504c-0.115,0.952 -0.231,1.919 -0.359,2.862c-0.128,1.067 -0.218,2.142 -0.346,3.22c-0.128,0.952 -0.243,1.917 -0.359,2.862c-0.128,0.951 -0.243,1.917 -0.359,2.862c-0.115,0.834 -0.256,1.696 -0.359,2.504c-0.128,0.951 -0.244,1.917 -0.359,2.861c-0.128,0.953 -0.243,1.914 -0.359,2.862c-0.128,0.952 -0.231,1.913 -0.359,2.862c-0.128,0.951 -0.231,1.913 -0.359,2.862c-0.103,0.834 -0.256,1.693 -0.359,2.504c-0.115,0.951 -0.231,1.913 -0.359,2.862c-0.115,0.951 -0.231,1.91 -0.359,2.862c-0.115,0.949 -0.231,1.91 -0.359,2.861c-0.103,0.835 -0.244,1.69 -0.359,2.505c-0.115,0.951 -0.231,1.908 -0.346,2.862c-0.128,0.949 -0.231,1.905 -0.359,2.861c-0.128,0.952 -0.231,1.903 -0.359,2.862c-0.115,0.837 -0.244,1.682 -0.359,2.504c-0.141,0.958 -0.218,1.891 -0.359,2.862c-0.141,0.952 -0.218,1.889 -0.359,2.862c-0.141,0.882 -0.167,1.581 -0.359,2.504c-0.115,0.623 0.346,1.821 -0.359,2.147l-0.359,0c-0.743,-0.234 -0.577,-1.426 -0.717,-1.789c-0.269,-0.582 -0.218,-0.691 -0.359,-1.074c-0.128,-0.374 -0.231,-0.674 -0.359,-1.074c-0.205,-0.619 -0.218,-0.93 -0.346,-1.43c-0.141,-0.498 -0.231,-0.958 -0.359,-1.431c-0.141,-0.501 -0.243,-0.934 -0.359,-1.431c-0.115,-0.474 -0.244,-0.938 -0.359,-1.431c-0.167,-0.639 -0.218,-1.202 -0.359,-1.789c-0.115,-0.469 -0.243,-0.944 -0.359,-1.431c-0.128,-0.606 -0.231,-1.203 -0.359,-1.789c-0.141,-0.607 -0.231,-1.206 -0.359,-1.789c-0.167,-0.76 -0.205,-1.453 -0.359,-2.146c-0.141,-0.61 -0.218,-1.208 -0.359,-1.79c-0.141,-0.614 -0.218,-1.206 -0.359,-1.789c-0.141,-0.615 -0.218,-1.208 -0.359,-1.789c-0.141,-0.619 -0.218,-1.209 -0.346,-1.789c-0.115,-0.457 -0.244,-0.957 -0.359,-1.43c-0.154,-0.628 -0.218,-1.209 -0.359,-1.79c-0.115,-0.463 -0.243,-0.953 -0.359,-1.43c-0.115,-0.461 -0.244,-0.96 -0.359,-1.431c-0.115,-0.464 -0.244,-0.961 -0.359,-1.431c-0.115,-0.468 -0.243,-0.965 -0.359,-1.431c-0.128,-0.475 -0.231,-0.964 -0.359,-1.431c-0.038,-0.172 -0.244,-0.636 -0.359,-1.072c-0.128,-0.48 -0.231,-0.966 -0.359,-1.431c-0.128,-0.483 -0.231,-0.971 -0.359,-1.431c-0.051,-0.211 -0.231,-0.652 -0.359,-1.074c-0.064,-0.227 -0.231,-0.661 -0.359,-1.074c-0.141,-0.502 -0.218,-0.975 -0.346,-1.431c-0.102,-0.318 -0.256,-0.709 -0.359,-1.072c-0.102,-0.322 -0.256,-0.71 -0.359,-1.074c-0.102,-0.324 -0.256,-0.712 -0.359,-1.072c-0.167,-0.543 -0.218,-1.001 -0.359,-1.431c-0.115,-0.337 -0.244,-0.72 -0.359,-1.074c-0.115,-0.345 -0.243,-0.72 -0.359,-1.072c-0.115,-0.35 -0.243,-0.723 -0.359,-1.074c-0.013,-0.037 -0.179,-0.184 -0.359,-0.716c-0.115,-0.349 -0.231,-0.725 -0.359,-1.072c-0.115,-0.357 -0.231,-0.726 -0.359,-1.074c-0.128,-0.364 -0.231,-0.724 -0.359,-1.072c-0.128,-0.365 -0.231,-0.725 -0.359,-1.074c-0.128,-0.364 -0.231,-0.73 -0.346,-1.074c-0.026,-0.037 -0.192,-0.251 -0.359,-0.715c-0.141,-0.374 -0.231,-0.735 -0.359,-1.074c-0.141,-0.379 -0.231,-0.741 -0.359,-1.072c-0.218,-0.57 -0.487,-1.204 -0.718,-1.79c-0.141,-0.369 -0.231,-0.737 -0.359,-1.072c-0.205,-0.56 -0.487,-1.199 -0.717,-1.789c-0.192,-0.468 -0.282,-0.905 -0.359,-1.074c-0.256,-0.569 -0.269,-0.875 -0.359,-1.072c-0.243,-0.53 -0.32,-1.025 -0.359,-1.074c-0.013,-0.038 -0.487,-0.287 -0.525,-0.715c-0.282,0.06 -0.192,0.814 -0.179,1.072c0,0.074 0.333,0.582 0.346,1.431c0.179,1.361 0.243,2.587 0.359,3.935c0.128,1.667 0.256,3.331 0.359,5.009c0.141,2.525 0.295,4.971 0.359,7.513c0.115,4.073 0.115,7.73 0,11.806c-0.064,2.668 -0.192,5.212 -0.359,7.871c-0.102,1.457 -0.218,2.843 -0.359,4.292c-0.09,1.097 -0.231,2.146 -0.359,3.22c-0.102,0.97 -0.231,1.908 -0.346,2.862c-0.115,0.857 -0.243,1.659 -0.359,2.504c-0.115,0.743 -0.243,1.426 -0.359,2.146c-0.128,0.729 -0.231,1.42 -0.359,2.147c-0.115,0.612 -0.244,1.188 -0.359,1.789c-0.128,0.605 -0.231,1.179 -0.359,1.789c-0.102,0.493 -0.256,0.974 -0.359,1.431c-0.115,0.5 -0.231,0.946 -0.359,1.431c-0.128,0.483 -0.231,0.939 -0.359,1.431c-0.115,0.454 -0.295,0.848 -0.359,1.072c-0.128,0.486 -0.192,0.903 -0.359,1.431c-0.115,0.383 -0.231,0.702 -0.359,1.074c-0.115,0.36 -0.218,0.698 -0.346,1.072c-0.141,0.364 -0.218,0.678 -0.359,1.074c-0.128,0.32 -0.102,0.507 -0.359,1.074c-0.282,0.811 -0.154,2.249 -1.076,2.861l-0.359,0c-0.717,-0.195 -0.205,-1.324 -0.359,-1.789c-0.218,-0.63 -0.218,-0.919 -0.359,-1.431c-0.141,-0.501 -0.231,-0.938 -0.359,-1.431c-0.115,-0.456 -0.231,-0.992 -0.359,-1.43c-0.064,-0.228 -0.231,-0.668 -0.359,-1.074c-0.141,-0.502 -0.218,-0.971 -0.359,-1.431c-0.09,-0.313 -0.244,-0.71 -0.346,-1.072c-0.102,-0.319 -0.256,-0.71 -0.359,-1.074c-0.179,-0.547 -0.231,-0.994 -0.359,-1.431c-0.115,-0.337 -0.243,-0.711 -0.359,-1.074c-0.103,-0.333 -0.244,-0.718 -0.359,-1.072c-0.115,-0.342 -0.244,-0.714 -0.359,-1.074c-0.115,-0.34 -0.243,-0.719 -0.359,-1.074c-0.115,-0.343 -0.243,-0.72 -0.359,-1.072c-0.115,-0.349 -0.244,-0.725 -0.359,-1.074c-0.115,-0.355 -0.231,-0.724 -0.359,-1.074c-0.115,-0.359 -0.231,-0.724 -0.359,-1.072c-0.128,-0.361 -0.231,-0.728 -0.359,-1.074c-0.128,-0.365 -0.231,-0.73 -0.346,-1.072c-0.141,-0.372 -0.244,-0.733 -0.359,-1.074c-0.026,-0.037 -0.192,-0.264 -0.359,-0.716c-0.141,-0.373 -0.231,-0.732 -0.359,-1.072c-0.218,-0.569 -0.487,-1.181 -0.717,-1.789c-0.32,-0.82 -0.5,-1.611 -0.718,-2.146c-0.448,-1.161 -0.961,-2.404 -1.435,-3.579c-2.716,-6.761 -7.214,-14.22 -9.661,-20.749l-0.346,0c0.026,0.349 -0.064,0.732 0,1.074c0.077,0.545 0.256,1.181 0.346,1.789c0.167,0.884 0.243,1.635 0.359,2.504c0.128,0.842 0.256,1.646 0.359,2.505c0.141,0.975 0.256,1.868 0.359,2.861c0.141,1.211 0.256,2.354 0.359,3.577c0.154,1.582 0.256,3.062 0.359,4.651c0.167,2.66 0.32,5.194 0.359,7.871c0.051,2.623 0.064,4.886 0,7.512c-0.064,2.322 -0.192,4.491 -0.359,6.799c-0.115,1.327 -0.218,2.607 -0.359,3.935c-0.115,0.957 -0.231,1.909 -0.359,2.862c-0.141,0.807 -0.09,1.277 -0.359,2.146c-0.102,0.436 0.307,1.33 -0.359,1.431l-0.359,0c-0.679,-0.097 -0.218,-1.038 -0.346,-1.431c-0.5,-1.081 -0.448,-1.425 -0.718,-2.146c-0.141,-0.377 -0.231,-0.728 -0.359,-1.074c-0.205,-0.543 -0.5,-1.217 -0.718,-1.789c-5.868,-13.583 -14.504,-25.582 -23.973,-36.849c-0.679,-0.725 -0.666,-0.897 -1.076,-1.431c-0.013,-0.021 -0.102,0.038 -0.346,-0.358c-0.09,-0.037 -0.231,0.021 -0.359,0c-0.026,0.215 -0.051,0.51 0,0.715c0.141,0.269 0.231,0.457 0.359,0.716c0,0.023 0.115,-0.109 0.346,0.357c1.832,3.533 2.832,5.52 4.305,9.301c0.256,0.616 0.461,1.187 0.705,1.79c0.32,0.835 0.487,1.507 0.718,2.146c0.013,0.037 0.192,0.251 0.359,0.715c0.167,0.419 0.231,0.733 0.359,1.074c0.141,0.388 0.231,0.723 0.359,1.074c0.141,0.382 0.231,0.719 0.359,1.072c0.128,0.375 0.231,0.715 0.359,1.074c0.128,0.366 0.231,0.711 0.359,1.072c0.115,0.36 0.231,0.709 0.359,1.074c0.115,0.35 0.231,0.706 0.359,1.074c0.102,0.339 0.243,0.707 0.346,1.072c0.115,0.338 0.256,0.705 0.359,1.074c0.103,0.333 0.256,0.7 0.359,1.074c0.154,0.514 0.231,0.961 0.359,1.43c0.077,0.245 0.243,0.646 0.359,1.074c0.141,0.5 0.231,0.955 0.359,1.431c0.051,0.191 0.244,0.614 0.359,1.074c0.128,0.488 0.231,0.955 0.359,1.43c0.128,0.486 0.231,0.949 0.359,1.431c0.115,0.478 0.243,0.943 0.359,1.431c0.115,0.465 0.244,0.943 0.359,1.431c0.103,0.455 0.244,0.942 0.359,1.431c0.09,0.447 0.243,0.939 0.359,1.431c0.141,0.618 0.218,1.195 0.346,1.789c0.141,0.61 0.231,1.198 0.359,1.789c0.141,0.611 0.231,1.192 0.359,1.789c0.141,0.728 0.231,1.438 0.359,2.146c0.141,0.73 0.231,1.444 0.359,2.146c0.167,0.875 0.205,1.675 0.359,2.505c0.179,0.798 0.244,2.203 0.359,2.505c0.026,0.055 0.538,0.607 0.538,1.072l133.701,-0.357c-0.242,-0.934 0.181,-1.682 0.359,-2.505c0.168,-0.803 0.181,-1.63 0.36,-2.504c0.141,-0.685 0.218,-1.43 0.359,-2.146c0.141,-0.7 0.204,-1.409 0.359,-2.146c0.115,-0.612 0.216,-1.176 0.359,-1.79c0.127,-0.589 0.218,-1.183 0.359,-1.789c0.127,-0.597 0.218,-1.171 0.359,-1.789c0.128,-0.591 0.205,-1.17 0.359,-1.789c0.102,-0.484 0.243,-0.979 0.344,-1.431c0.117,-0.487 0.258,-0.97 0.359,-1.43c0.117,-0.491 0.245,-0.956 0.36,-1.431c0.128,-0.483 0.229,-0.949 0.359,-1.431c0.128,-0.478 0.229,-0.946 0.359,-1.431c0.128,-0.463 0.307,-0.887 0.359,-1.074c0.127,-0.477 0.218,-0.933 0.359,-1.431c0.101,-0.378 0.269,-0.753 0.359,-1.074c0.141,-0.468 0.205,-0.912 0.357,-1.43c0.104,-0.375 0.258,-0.748 0.359,-1.074c0.104,-0.372 1.232,-4.542 1.256,-4.579" style="fill:#92cf9e;fill-rule:nonzero;"/><path d="M352.334,115.043c-0.231,0.635 -2.037,3.757 -2.191,4.213c-0.128,0.36 -2.332,3.194 -2.601,3.77c-0.103,0.238 -1.064,1.252 -1.064,1.252c-0.077,-0.752 0.103,-1.591 0,-2.326c-0.243,-0.963 -0.218,-1.595 -0.359,-2.504c-0.115,-0.933 -0.243,-1.912 -0.358,-2.862c-0.128,-1.342 -0.295,-2.564 -0.359,-3.935c-0.474,-6.669 -0.372,-13.013 0,-19.677c0.064,-1.577 0.256,-3.11 0.359,-4.651c0.102,-1.345 0.218,-2.597 0.358,-3.935c0.103,-1.111 0.218,-2.123 0.359,-3.22c0.115,-0.982 0.205,-1.877 0.359,-2.862c0.09,-0.755 0.231,-1.422 0.346,-2.146c0.115,-0.721 0.256,-1.443 0.359,-2.146c0.115,-0.592 0.256,-1.225 0.359,-1.789c0.064,-0.333 -0.077,-0.796 0,-1.074l-0.359,0c-0.231,0.457 -0.346,0.336 -0.359,0.357c-2.306,5.729 -5.1,11.166 -7.508,16.814c-1.563,3.861 -3.203,7.908 -4.651,11.806c-0.359,0.929 -0.73,1.93 -1.076,2.862c-0.243,0.682 -0.538,1.297 -0.704,1.789c-0.128,0.347 -0.231,0.71 -0.359,1.074c-0.128,0.348 -0.231,0.711 -0.359,1.072c-0.128,0.351 -0.231,0.714 -0.359,1.074c-0.128,0.35 -0.243,0.718 -0.359,1.074c-0.115,0.35 -0.243,0.721 -0.359,1.072c-0.115,0.351 -0.243,0.728 -0.359,1.074c-0.115,0.352 -0.243,0.734 -0.359,1.074c-0.115,0.355 -0.256,0.738 -0.358,1.072c-0.115,0.361 -0.244,0.738 -0.359,1.074c-0.128,0.437 -0.18,0.885 -0.359,1.431c-0.103,0.364 -0.256,0.758 -0.359,1.074c-0.128,0.457 -0.205,0.928 -0.359,1.43c-0.103,0.363 -0.256,0.759 -0.346,1.074c-0.141,0.455 -0.218,0.931 -0.359,1.431c-0.141,0.465 -0.218,0.924 -0.359,1.431c-0.115,0.361 -0.269,0.761 -0.359,1.072c-0.141,0.491 0.026,0.619 -0.358,1.431c-0.103,0.457 0.218,1.522 -0.18,1.789c-1.358,0.272 -0.705,-0.794 -0.897,-1.072c-0.705,-1.002 -0.436,-0.975 -0.718,-1.789c-0.307,-0.62 -0.231,-0.765 -0.359,-1.074c-0.166,-0.428 -0.218,-0.712 -0.359,-1.074c-0.128,-0.377 -0.231,-0.718 -0.346,-1.072c-0.141,-0.383 -0.244,-0.686 -0.359,-1.074c-0.167,-0.527 -0.218,-0.962 -0.359,-1.431c-0.103,-0.325 -0.256,-0.693 -0.359,-1.072c-0.128,-0.491 -0.231,-0.951 -0.359,-1.431c-0.128,-0.486 -0.243,-0.937 -0.359,-1.431c-0.115,-0.468 -0.243,-0.934 -0.359,-1.431c-0.141,-0.621 -0.231,-1.183 -0.359,-1.789c-0.128,-0.607 -0.243,-1.176 -0.359,-1.789c-0.115,-0.592 -0.243,-1.17 -0.358,-1.79c-0.09,-0.57 -0.257,-1.163 -0.359,-1.787c-0.128,-0.857 -0.231,-1.648 -0.359,-2.505c-0.128,-0.962 -0.231,-1.894 -0.359,-2.862c-0.103,-0.946 -0.256,-1.886 -0.346,-2.861c-0.141,-1.327 -0.256,-2.598 -0.359,-3.936c-0.154,-2.174 -0.282,-4.251 -0.359,-6.44c-0.205,-5.173 -0.205,-9.853 0,-15.024c0.077,-2.187 0.205,-4.267 0.359,-6.44c0.09,-1.315 0.256,-2.646 0.359,-3.936c0.103,-1.072 0.243,-2.159 0.346,-3.22c0.013,-1.069 0,-2.15 0,-3.219l-0.346,0c-0.449,1.872 -1.153,2.714 -1.794,4.292c-0.577,1.556 -1.23,3.116 -1.794,4.651c-0.154,0.422 -0.333,0.678 -0.359,0.715c-0.128,0.336 -0.205,0.694 -0.346,1.074c-0.128,0.337 -0.231,0.7 -0.358,1.074c-0.128,0.341 -0.231,0.702 -0.359,1.072c-0.128,0.343 -0.231,0.709 -0.359,1.074c-0.128,0.343 -0.243,0.715 -0.359,1.072c-0.18,0.52 -0.346,0.679 -0.359,0.716c-0.115,0.35 -0.243,0.721 -0.359,1.074c-0.115,0.352 -0.243,0.724 -0.359,1.072c-0.115,0.352 -0.243,0.732 -0.359,1.074c-0.115,0.354 -0.243,0.737 -0.358,1.074c-0.115,0.357 -0.257,0.739 -0.359,1.072c-0.141,0.448 -0.192,0.916 -0.359,1.431c-0.103,0.361 -0.256,0.755 -0.359,1.072c-0.103,0.364 -0.256,0.758 -0.346,1.074c-0.141,0.456 -0.218,0.933 -0.359,1.431c-0.128,0.416 -0.307,0.861 -0.359,1.074c-0.128,0.46 -0.231,0.948 -0.359,1.431c-0.115,0.431 -0.307,0.878 -0.359,1.072c-0.128,0.464 -0.231,0.953 -0.358,1.431c-0.128,0.466 -0.231,0.957 -0.359,1.431c-0.115,0.469 -0.244,0.961 -0.359,1.431c-0.115,0.469 -0.243,0.966 -0.359,1.431c-0.115,0.473 -0.243,0.967 -0.359,1.431c-0.115,0.475 -0.243,0.966 -0.359,1.43c-0.141,0.578 -0.205,1.165 -0.359,1.79c-0.115,0.474 -0.243,0.975 -0.359,1.43c-0.128,0.579 -0.205,1.174 -0.346,1.789c-0.141,0.58 -0.231,1.178 -0.358,1.789c-0.141,0.584 -0.231,1.178 -0.359,1.789c-0.141,0.583 -0.231,1.184 -0.359,1.79c-0.128,0.588 -0.231,1.179 -0.359,1.789c-0.154,0.701 -0.179,1.38 -0.359,2.146c-0.103,0.479 -0.256,0.992 -0.359,1.431c-0.128,0.591 -0.218,1.178 -0.359,1.789c-0.115,0.483 -0.231,0.955 -0.359,1.431c-0.141,0.588 -0.179,1.136 -0.358,1.789c-0.115,0.505 -0.218,0.925 -0.359,1.431c-0.128,0.464 -0.218,0.944 -0.359,1.431c-0.128,0.509 -0.167,0.852 -0.359,1.43c-0.115,0.399 -0.218,0.688 -0.346,1.074c-0.141,0.364 0.038,0.411 -0.359,1.074c-1.461,4.08 -1.179,1.142 -1.435,-1.074c-0.244,-1.071 -0.192,-1.853 -0.359,-2.862c-0.115,-0.829 -0.231,-1.672 -0.359,-2.504c-0.128,-0.837 -0.231,-1.667 -0.359,-2.505c-0.128,-0.962 -0.218,-1.912 -0.359,-2.862c-0.115,-0.824 -0.243,-1.671 -0.359,-2.504c-0.128,-0.957 -0.218,-1.914 -0.359,-2.862c-0.102,-0.821 -0.243,-1.671 -0.359,-2.504c-0.102,-0.821 -0.243,-1.67 -0.346,-2.505c-0.141,-0.958 -0.231,-1.912 -0.359,-2.861c-0.115,-0.819 -0.244,-1.671 -0.359,-2.505c-0.128,-0.957 -0.231,-1.913 -0.359,-2.862c-0.115,-0.816 -0.243,-1.669 -0.359,-2.504c-0.115,-0.817 -0.243,-1.671 -0.359,-2.504c-0.128,-0.953 -0.231,-1.914 -0.359,-2.862c-0.102,-0.816 -0.243,-1.669 -0.359,-2.505c-0.128,-0.952 -0.231,-1.912 -0.359,-2.861c-0.128,-0.952 -0.231,-1.913 -0.358,-2.862c-0.103,-0.812 -0.244,-1.671 -0.359,-2.505c-0.115,-0.949 -0.231,-1.912 -0.359,-2.861c-0.103,-0.812 -0.243,-1.671 -0.346,-2.505c-0.128,-0.949 -0.243,-1.912 -0.359,-2.861c-0.128,-0.949 -0.243,-1.912 -0.359,-2.862c-0.128,-0.948 -0.243,-1.91 -0.359,-2.862c-0.128,-0.947 -0.243,-1.912 -0.359,-2.862c-0.115,-0.946 -0.243,-1.909 -0.358,-2.861c-0.115,-0.947 -0.244,-1.913 -0.359,-2.862c-0.103,-0.803 -0.257,-1.669 -0.359,-2.505c-0.115,-0.948 -0.243,-1.904 -0.359,-2.861c-0.077,-0.656 -0.282,-1.416 -0.359,-2.147c-0.051,-0.509 -0.372,-1.153 -0.359,-2.146l-0.359,0c-0.013,0.828 -0.333,1.529 -0.359,1.789c-0.077,0.964 -0.256,1.946 -0.346,2.862c-0.141,1.193 -0.231,2.378 -0.358,3.577c-0.115,0.958 -0.257,1.922 -0.359,2.862c-0.115,0.955 -0.244,1.922 -0.359,2.862c-0.115,0.952 -0.243,1.922 -0.359,2.861c-0.115,0.953 -0.243,1.921 -0.359,2.862c-0.103,0.837 -0.256,1.7 -0.359,2.504c-0.115,0.952 -0.243,1.919 -0.359,2.862c-0.128,1.067 -0.218,2.142 -0.359,3.22c-0.115,0.952 -0.243,1.917 -0.358,2.862c-0.115,0.951 -0.231,1.917 -0.359,2.862c-0.103,0.834 -0.257,1.696 -0.359,2.504c-0.115,0.951 -0.231,1.917 -0.346,2.861c-0.128,0.953 -0.243,1.914 -0.359,2.862c-0.128,0.952 -0.243,1.913 -0.359,2.862c-0.128,0.951 -0.243,1.913 -0.359,2.862c-0.115,0.834 -0.256,1.693 -0.359,2.504c-0.128,0.951 -0.231,1.913 -0.359,2.862c-0.128,0.951 -0.231,1.91 -0.358,2.862c-0.128,0.949 -0.231,1.91 -0.359,2.861c-0.115,0.835 -0.244,1.69 -0.359,2.505c-0.128,0.951 -0.231,1.908 -0.359,2.862c-0.128,0.949 -0.231,1.905 -0.359,2.861c-0.128,0.952 -0.218,1.903 -0.359,2.862c-0.103,0.837 -0.243,1.682 -0.359,2.504c-0.128,0.958 -0.205,1.891 -0.346,2.862c-0.141,0.952 -0.218,1.889 -0.359,2.862c-0.154,0.882 -0.166,1.581 -0.358,2.504c-0.115,0.623 0.346,1.821 -0.359,2.147l-0.359,0c-0.756,-0.234 -0.577,-1.426 -0.718,-1.789c-0.269,-0.582 -0.231,-0.691 -0.359,-1.074c-0.128,-0.374 -0.243,-0.674 -0.359,-1.074c-0.205,-0.619 -0.218,-0.93 -0.359,-1.43c-0.141,-0.498 -0.231,-0.958 -0.358,-1.431c-0.128,-0.501 -0.231,-0.934 -0.359,-1.431c-0.115,-0.474 -0.244,-0.938 -0.359,-1.431c-0.154,-0.639 -0.205,-1.202 -0.346,-1.789c-0.115,-0.469 -0.243,-0.944 -0.359,-1.431c-0.141,-0.606 -0.231,-1.203 -0.359,-1.789c-0.141,-0.607 -0.231,-1.206 -0.359,-1.789c-0.179,-0.76 -0.205,-1.453 -0.359,-2.146c-0.141,-0.61 -0.231,-1.208 -0.359,-1.79c-0.141,-0.614 -0.218,-1.206 -0.358,-1.789c-0.141,-0.615 -0.218,-1.208 -0.359,-1.789c-0.141,-0.619 -0.218,-1.209 -0.359,-1.789c-0.103,-0.457 -0.243,-0.957 -0.359,-1.43c-0.154,-0.628 -0.218,-1.209 -0.359,-1.79c-0.103,-0.463 -0.243,-0.953 -0.359,-1.43c-0.102,-0.461 -0.231,-0.96 -0.359,-1.431c-0.102,-0.464 -0.231,-0.961 -0.346,-1.431c-0.128,-0.468 -0.243,-0.965 -0.358,-1.431c-0.128,-0.475 -0.244,-0.964 -0.359,-1.431c-0.051,-0.172 -0.244,-0.636 -0.359,-1.072c-0.128,-0.48 -0.231,-0.966 -0.359,-1.431c-0.128,-0.483 -0.231,-0.971 -0.359,-1.431c-0.064,-0.211 -0.243,-0.652 -0.359,-1.074c-0.064,-0.227 -0.243,-0.661 -0.359,-1.074c-0.141,-0.502 -0.218,-0.975 -0.359,-1.431c-0.089,-0.318 -0.243,-0.709 -0.359,-1.072c-0.089,-0.322 -0.243,-0.71 -0.358,-1.074c-0.09,-0.324 -0.244,-0.712 -0.359,-1.072c-0.167,-0.543 -0.218,-1.001 -0.359,-1.431c-0.103,-0.337 -0.231,-0.72 -0.346,-1.074c-0.115,-0.345 -0.243,-0.72 -0.359,-1.072c-0.115,-0.35 -0.243,-0.723 -0.359,-1.074c-0.013,-0.037 -0.179,-0.184 -0.359,-0.716c-0.115,-0.349 -0.243,-0.725 -0.359,-1.072c-0.128,-0.357 -0.243,-0.726 -0.358,-1.074c-0.128,-0.364 -0.231,-0.724 -0.359,-1.072c-0.128,-0.365 -0.231,-0.725 -0.359,-1.074c-0.128,-0.364 -0.231,-0.73 -0.359,-1.074c-0.013,-0.037 -0.18,-0.251 -0.359,-0.715c-0.128,-0.374 -0.231,-0.735 -0.359,-1.074c-0.141,-0.379 -0.231,-0.741 -0.359,-1.072c-0.218,-0.57 -0.474,-1.204 -0.705,-1.79c-0.141,-0.369 -0.243,-0.737 -0.358,-1.072c-0.218,-0.56 -0.487,-1.199 -0.718,-1.789c-0.192,-0.468 -0.282,-0.905 -0.359,-1.074c-0.269,-0.569 -0.269,-0.875 -0.359,-1.072c-0.243,-0.53 -0.333,-1.025 -0.359,-1.074c-0.026,-0.038 -0.487,-0.287 -0.538,-0.715c-0.282,0.06 -0.192,0.814 -0.18,1.072c0,0.074 0.333,0.582 0.359,1.431c0.167,1.361 0.231,2.587 0.359,3.935c0.115,1.667 0.256,3.331 0.359,5.009c0.141,2.525 0.295,4.971 0.359,7.513c0.115,4.073 0.115,7.73 0,11.806c-0.077,2.668 -0.192,5.212 -0.359,7.871c-0.103,1.457 -0.218,2.843 -0.359,4.292c-0.103,1.097 -0.243,2.146 -0.359,3.22c-0.102,0.97 -0.231,1.908 -0.359,2.862c-0.102,0.857 -0.231,1.659 -0.358,2.504c-0.103,0.743 -0.231,1.426 -0.359,2.146c-0.115,0.729 -0.218,1.42 -0.359,2.147c-0.115,0.612 -0.231,1.188 -0.346,1.789c-0.128,0.605 -0.231,1.179 -0.359,1.789c-0.115,0.493 -0.256,0.974 -0.359,1.431c-0.115,0.5 -0.243,0.946 -0.359,1.431c-0.128,0.483 -0.231,0.939 -0.359,1.431c-0.128,0.454 -0.295,0.848 -0.359,1.072c-0.141,0.486 -0.192,0.903 -0.358,1.431c-0.115,0.383 -0.231,0.702 -0.359,1.074c-0.128,0.36 -0.218,0.698 -0.359,1.072c-0.128,0.364 -0.205,0.678 -0.359,1.074c-0.115,0.32 -0.103,0.507 -0.359,1.074c-0.282,0.811 -0.154,2.249 -1.064,2.861l-0.359,0c-0.717,-0.195 -0.205,-1.324 -0.358,-1.789c-0.218,-0.63 -0.218,-0.919 -0.359,-1.431c-0.141,-0.501 -0.231,-0.938 -0.359,-1.431c-0.115,-0.456 -0.231,-0.992 -0.359,-1.43c-0.064,-0.228 -0.243,-0.668 -0.359,-1.074c-0.141,-0.502 -0.218,-0.971 -0.359,-1.431c-0.09,-0.313 -0.243,-0.71 -0.359,-1.072c-0.089,-0.319 -0.243,-0.71 -0.359,-1.074c-0.166,-0.547 -0.218,-0.994 -0.358,-1.431c-0.103,-0.337 -0.244,-0.711 -0.359,-1.074c-0.103,-0.333 -0.244,-0.718 -0.346,-1.072c-0.115,-0.342 -0.243,-0.714 -0.359,-1.074c-0.115,-0.34 -0.243,-0.719 -0.359,-1.074c-0.115,-0.343 -0.243,-0.72 -0.359,-1.072c-0.115,-0.349 -0.243,-0.725 -0.359,-1.074c-0.128,-0.355 -0.243,-0.724 -0.359,-1.074c-0.128,-0.359 -0.243,-0.724 -0.359,-1.072c-0.128,-0.361 -0.231,-0.728 -0.358,-1.074c-0.128,-0.365 -0.231,-0.73 -0.359,-1.072c-0.128,-0.372 -0.231,-0.733 -0.359,-1.074c-0.013,-0.037 -0.192,-0.264 -0.359,-0.716c-0.128,-0.373 -0.231,-0.732 -0.359,-1.072c-0.205,-0.569 -0.487,-1.181 -0.705,-1.789c-0.32,-0.82 -0.512,-1.611 -0.717,-2.146c-0.449,-1.161 -0.974,-2.404 -1.435,-3.579c-2.716,-6.761 -7.214,-14.22 -9.661,-20.749l-0.359,0c0.038,0.349 -0.051,0.732 0,1.074c0.09,0.545 0.269,1.181 0.359,1.789c0.167,0.884 0.231,1.635 0.359,2.504c0.128,0.842 0.256,1.646 0.359,2.505c0.128,0.975 0.256,1.868 0.359,2.861c0.128,1.211 0.256,2.354 0.359,3.577c0.141,1.582 0.256,3.062 0.359,4.651c0.154,2.66 0.307,5.194 0.358,7.871c0.051,2.623 0.064,4.886 0,7.512c-0.064,2.322 -0.192,4.491 -0.358,6.799c-0.115,1.327 -0.218,2.607 -0.359,3.935c-0.115,0.957 -0.231,1.909 -0.359,2.862c-0.154,0.807 -0.103,1.277 -0.359,2.146c-0.115,0.436 0.307,1.33 -0.359,1.431l-0.359,0c-0.679,-0.097 -0.218,-1.038 -0.359,-1.431c-0.487,-1.081 -0.435,-1.425 -0.717,-2.146c-0.128,-0.377 -0.231,-0.728 -0.359,-1.074c-0.192,-0.543 -0.487,-1.217 -0.705,-1.789c-5.881,-13.583 -14.504,-25.582 -23.973,-36.849c-0.679,-0.725 -0.666,-0.897 -1.076,-1.431c-0.013,-0.021 -0.115,0.038 -0.359,-0.358c-0.077,-0.037 -0.231,0.021 -0.359,0c-0.026,0.215 -0.038,0.51 0,0.715c0.154,0.269 0.231,0.457 0.359,0.716c0.013,0.023 0.128,-0.109 0.359,0.357c1.832,3.533 2.819,5.52 4.292,9.301c0.269,0.616 0.474,1.187 0.717,1.79c0.32,0.835 0.474,1.507 0.718,2.146c0.013,0.037 0.192,0.251 0.359,0.715c0.154,0.419 0.231,0.733 0.359,1.074c0.141,0.388 0.231,0.723 0.359,1.074c0.141,0.382 0.231,0.719 0.359,1.072c0.128,0.375 0.231,0.715 0.346,1.074c0.128,0.366 0.243,0.711 0.358,1.072c0.128,0.36 0.244,0.709 0.359,1.074c0.115,0.35 0.244,0.706 0.359,1.074c0.115,0.339 0.243,0.707 0.359,1.072c0.103,0.338 0.243,0.705 0.359,1.074c0.103,0.333 0.243,0.7 0.359,1.074c0.154,0.514 0.218,0.961 0.359,1.43c0.064,0.245 0.231,0.646 0.359,1.074c0.141,0.5 0.231,0.955 0.359,1.431c0.051,0.191 0.231,0.614 0.358,1.074c0.128,0.488 0.231,0.955 0.359,1.43c0.128,0.486 0.231,0.949 0.346,1.431c0.128,0.478 0.243,0.943 0.359,1.431c0.115,0.465 0.256,0.943 0.359,1.431c0.115,0.455 0.256,0.942 0.359,1.431c0.103,0.447 0.256,0.939 0.359,1.431c0.141,0.618 0.231,1.195 0.359,1.789c0.141,0.61 0.231,1.198 0.358,1.789c0.141,0.611 0.231,1.192 0.359,1.789c0.141,0.728 0.231,1.438 0.359,2.146c0.141,0.73 0.218,1.444 0.359,2.146c0.167,0.875 0.205,1.675 0.359,2.505c0.179,0.798 0.243,2.203 0.359,2.505c0.013,0.055 0.538,0.607 0.538,1.072l133.703,-0.357c-0.243,-0.934 0.179,-1.682 0.359,-2.505c0.166,-0.803 0.179,-1.63 0.359,-2.504c0.141,-0.685 0.218,-1.43 0.358,-2.146c0.141,-0.7 0.205,-1.409 0.346,-2.146c0.128,-0.612 0.231,-1.176 0.359,-1.79c0.128,-0.589 0.231,-1.183 0.359,-1.789c0.128,-0.597 0.218,-1.171 0.359,-1.789c0.141,-0.591 0.218,-1.17 0.359,-1.789c0.115,-0.484 0.256,-0.979 0.359,-1.431c0.115,-0.487 0.256,-0.97 0.359,-1.43c0.115,-0.491 0.243,-0.956 0.359,-1.431c0.115,-0.483 0.231,-0.949 0.358,-1.431c0.128,-0.478 0.231,-0.946 0.359,-1.431c0.115,-0.463 0.307,-0.887 0.359,-1.074c0.128,-0.477 0.218,-0.933 0.359,-1.431c0.103,-0.378 0.256,-0.753 0.359,-1.074c0.128,-0.468 0.192,-0.912 0.346,-1.43c0.115,-0.375 0.269,-0.748 0.359,-1.074c0.115,-0.372 1.243,-4.542 1.256,-4.579" style="fill:#92cf9e;fill-rule:nonzero;"/><path d="M-4.336,126.005l353.415,0l-15.494,95.857l-53.499,27.523l-92.937,20.879l-84.473,-1.873l-78.849,-38.937l-45.063,-76.196l16.9,-27.253Z" style="fill:#92cf9e;fill-rule:nonzero;"/></g><g><path d="M312.391,185.708c-0.334,1.021 -2.817,6.031 -3.028,6.763c-0.176,0.578 -3.186,5.132 -3.556,6.055c-0.159,0.381 -1.479,2.01 -1.479,2.01c-0.105,-1.21 0.141,-2.556 0,-3.735c-0.334,-1.549 -0.281,-2.564 -0.493,-4.023c-0.141,-1.496 -0.334,-3.07 -0.492,-4.595c-0.176,-2.156 -0.388,-4.117 -0.493,-6.321c-0.634,-10.708 -0.493,-20.895 0,-31.596c0.105,-2.535 0.37,-4.994 0.493,-7.469c0.141,-2.161 0.299,-4.173 0.492,-6.319c0.141,-1.786 0.317,-3.409 0.493,-5.171c0.159,-1.578 0.3,-3.014 0.493,-4.597c0.141,-1.214 0.334,-2.286 0.493,-3.447c0.159,-1.158 0.334,-2.317 0.493,-3.448c0.141,-0.949 0.352,-1.965 0.493,-2.872c0.07,-0.533 -0.123,-1.276 0,-1.722l-0.493,0c-0.334,0.733 -0.475,0.537 -0.493,0.574c-3.168,9.2 -7.006,17.932 -10.315,27.002c-2.165,6.197 -4.418,12.699 -6.39,18.959c-0.493,1.492 -1.003,3.099 -1.479,4.597c-0.334,1.093 -0.739,2.08 -0.985,2.872c-0.176,0.558 -0.317,1.138 -0.493,1.724c-0.159,0.558 -0.317,1.142 -0.493,1.722c-0.159,0.562 -0.317,1.144 -0.493,1.722c-0.159,0.562 -0.317,1.152 -0.493,1.724c-0.158,0.564 -0.317,1.158 -0.493,1.724c-0.158,0.562 -0.334,1.169 -0.493,1.722c-0.158,0.566 -0.334,1.179 -0.475,1.724c-0.158,0.57 -0.352,1.187 -0.492,1.724c-0.159,0.58 -0.352,1.183 -0.493,1.724c-0.194,0.702 -0.264,1.42 -0.493,2.298c-0.159,0.584 -0.37,1.218 -0.493,1.722c-0.194,0.737 -0.299,1.492 -0.493,2.298c-0.159,0.582 -0.37,1.216 -0.493,1.722c-0.176,0.733 -0.299,1.496 -0.493,2.298c-0.176,0.749 -0.281,1.484 -0.493,2.298c-0.141,0.582 -0.37,1.222 -0.492,1.724c-0.194,0.788 0.052,0.992 -0.493,2.298c-0.141,0.735 0.299,2.444 -0.247,2.872c-1.866,0.434 -0.951,-1.278 -1.214,-1.724c-0.968,-1.609 -0.616,-1.564 -0.986,-2.872c-0.44,-0.994 -0.334,-1.228 -0.493,-1.724c-0.229,-0.685 -0.317,-1.144 -0.493,-1.722c-0.193,-0.607 -0.317,-1.154 -0.492,-1.724c-0.194,-0.613 -0.317,-1.099 -0.493,-1.724c-0.229,-0.844 -0.3,-1.545 -0.493,-2.298c-0.123,-0.523 -0.334,-1.111 -0.493,-1.722c-0.176,-0.788 -0.317,-1.527 -0.493,-2.298c-0.159,-0.78 -0.317,-1.504 -0.493,-2.298c-0.141,-0.749 -0.334,-1.5 -0.493,-2.298c-0.176,-0.996 -0.317,-1.899 -0.475,-2.872c-0.176,-0.975 -0.334,-1.887 -0.492,-2.872c-0.159,-0.949 -0.352,-1.877 -0.493,-2.872c-0.141,-0.918 -0.37,-1.868 -0.493,-2.872c-0.194,-1.375 -0.334,-2.646 -0.493,-4.021c-0.176,-1.545 -0.334,-3.041 -0.493,-4.597c-0.159,-1.521 -0.352,-3.029 -0.493,-4.597c-0.176,-2.13 -0.352,-4.171 -0.493,-6.319c-0.193,-3.492 -0.387,-6.829 -0.493,-10.341c-0.281,-8.307 -0.264,-15.823 0,-24.129c0.106,-3.512 0.3,-6.852 0.493,-10.341c0.141,-2.109 0.352,-4.249 0.493,-6.319c0.159,-1.724 0.334,-3.469 0.493,-5.171l0,-5.171l-0.493,0c-0.616,3.006 -1.584,4.36 -2.464,6.895c-0.792,2.498 -1.672,5.004 -2.447,7.469c-0.229,0.677 -0.475,1.088 -0.493,1.148c-0.176,0.537 -0.299,1.113 -0.492,1.724c-0.176,0.541 -0.3,1.121 -0.493,1.722c-0.176,0.549 -0.3,1.13 -0.493,1.724c-0.176,0.549 -0.317,1.136 -0.493,1.722c-0.159,0.553 -0.317,1.148 -0.493,1.724c-0.246,0.835 -0.475,1.089 -0.493,1.148c-0.159,0.564 -0.317,1.158 -0.493,1.724c-0.158,0.566 -0.317,1.165 -0.475,1.724c-0.176,0.564 -0.352,1.173 -0.493,1.722c-0.158,0.568 -0.352,1.185 -0.492,1.724c-0.159,0.574 -0.352,1.189 -0.493,1.724c-0.194,0.72 -0.282,1.471 -0.493,2.298c-0.159,0.578 -0.37,1.21 -0.493,1.722c-0.159,0.582 -0.37,1.218 -0.493,1.724c-0.176,0.733 -0.299,1.496 -0.493,2.298c-0.158,0.667 -0.405,1.383 -0.493,1.722c-0.176,0.739 -0.317,1.525 -0.493,2.298c-0.158,0.693 -0.422,1.411 -0.492,1.724c-0.159,0.743 -0.317,1.529 -0.493,2.298c-0.159,0.747 -0.317,1.535 -0.493,2.296c-0.159,0.753 -0.317,1.545 -0.475,2.298c-0.176,0.753 -0.334,1.553 -0.493,2.298c-0.176,0.759 -0.334,1.556 -0.493,2.298c-0.159,0.765 -0.334,1.551 -0.493,2.298c-0.193,0.928 -0.281,1.868 -0.493,2.872c-0.158,0.761 -0.352,1.566 -0.493,2.298c-0.193,0.928 -0.299,1.883 -0.492,2.872c-0.194,0.93 -0.3,1.891 -0.493,2.872c-0.176,0.938 -0.3,1.891 -0.493,2.872c-0.176,0.936 -0.3,1.899 -0.493,2.872c-0.176,0.944 -0.299,1.893 -0.493,2.872c-0.211,1.126 -0.246,2.216 -0.493,3.446c-0.141,0.772 -0.352,1.593 -0.493,2.298c-0.176,0.949 -0.299,1.893 -0.475,2.872c-0.176,0.778 -0.334,1.535 -0.493,2.298c-0.211,0.944 -0.264,1.825 -0.492,2.872c-0.176,0.813 -0.3,1.486 -0.493,2.298c-0.176,0.745 -0.317,1.519 -0.493,2.298c-0.194,0.819 -0.247,1.368 -0.493,2.298c-0.176,0.638 -0.299,1.103 -0.493,1.722c-0.176,0.584 0.053,0.661 -0.493,1.724c-1.989,6.551 -1.619,1.833 -1.971,-1.724c-0.317,-1.718 -0.264,-2.973 -0.493,-4.595c-0.159,-1.331 -0.317,-2.687 -0.475,-4.023c-0.176,-1.344 -0.334,-2.675 -0.493,-4.021c-0.194,-1.545 -0.317,-3.072 -0.493,-4.597c-0.159,-1.323 -0.334,-2.683 -0.493,-4.021c-0.176,-1.537 -0.317,-3.074 -0.493,-4.597c-0.158,-1.319 -0.334,-2.683 -0.493,-4.023c-0.158,-1.317 -0.334,-2.681 -0.492,-4.021c-0.176,-1.539 -0.317,-3.072 -0.493,-4.597c-0.159,-1.313 -0.335,-2.683 -0.493,-4.021c-0.176,-1.537 -0.317,-3.072 -0.493,-4.597c-0.141,-1.313 -0.334,-2.681 -0.493,-4.023c-0.141,-1.311 -0.334,-2.681 -0.493,-4.021c-0.158,-1.529 -0.317,-3.072 -0.475,-4.597c-0.158,-1.311 -0.352,-2.679 -0.493,-4.021c-0.176,-1.531 -0.334,-3.072 -0.492,-4.597c-0.176,-1.527 -0.335,-3.07 -0.493,-4.597c-0.159,-1.305 -0.352,-2.681 -0.493,-4.021c-0.176,-1.527 -0.317,-3.07 -0.493,-4.597c-0.141,-1.303 -0.352,-2.681 -0.493,-4.021c-0.176,-1.525 -0.317,-3.07 -0.493,-4.597c-0.159,-1.525 -0.317,-3.07 -0.493,-4.597c-0.158,-1.52 -0.317,-3.068 -0.493,-4.597c-0.158,-1.521 -0.317,-3.068 -0.493,-4.595c-0.158,-1.518 -0.317,-3.066 -0.492,-4.597c-0.159,-1.518 -0.317,-3.07 -0.493,-4.597c-0.123,-1.288 -0.335,-2.681 -0.475,-4.021c-0.176,-1.525 -0.334,-3.06 -0.493,-4.597c-0.106,-1.053 -0.387,-2.272 -0.493,-3.446c-0.07,-0.819 -0.528,-1.854 -0.493,-3.446l-0.493,0c-0.035,1.327 -0.458,2.455 -0.493,2.872c-0.123,1.545 -0.37,3.123 -0.492,4.597c-0.176,1.916 -0.3,3.819 -0.493,5.743c-0.141,1.541 -0.335,3.088 -0.493,4.597c-0.159,1.535 -0.334,3.086 -0.493,4.597c-0.159,1.531 -0.334,3.086 -0.493,4.595c-0.159,1.531 -0.334,3.084 -0.493,4.597c-0.141,1.344 -0.352,2.732 -0.493,4.023c-0.158,1.527 -0.317,3.082 -0.475,4.597c-0.193,1.714 -0.317,3.438 -0.493,5.169c-0.176,1.529 -0.334,3.08 -0.492,4.597c-0.176,1.529 -0.335,3.078 -0.493,4.597c-0.141,1.342 -0.352,2.726 -0.493,4.023c-0.159,1.525 -0.334,3.076 -0.493,4.595c-0.159,1.529 -0.317,3.072 -0.493,4.597c-0.159,1.527 -0.317,3.072 -0.493,4.597c-0.158,1.525 -0.317,3.07 -0.493,4.595c-0.141,1.342 -0.334,2.718 -0.493,4.023c-0.158,1.525 -0.317,3.07 -0.492,4.595c-0.159,1.529 -0.317,3.068 -0.493,4.597c-0.159,1.525 -0.317,3.07 -0.493,4.597c-0.141,1.339 -0.334,2.714 -0.475,4.021c-0.176,1.527 -0.317,3.066 -0.493,4.597c-0.176,1.527 -0.317,3.062 -0.493,4.597c-0.176,1.529 -0.317,3.056 -0.493,4.595c-0.158,1.344 -0.334,2.702 -0.493,4.023c-0.176,1.539 -0.299,3.035 -0.493,4.597c-0.193,1.529 -0.299,3.033 -0.492,4.597c-0.194,1.416 -0.211,2.537 -0.493,4.021c-0.159,0.998 0.475,2.924 -0.493,3.446l-0.493,0c-1.021,-0.374 -0.792,-2.29 -0.986,-2.872c-0.37,-0.932 -0.299,-1.107 -0.475,-1.724c-0.176,-0.599 -0.334,-1.082 -0.493,-1.722c-0.299,-0.996 -0.299,-1.494 -0.493,-2.298c-0.193,-0.8 -0.317,-1.537 -0.492,-2.298c-0.194,-0.805 -0.335,-1.5 -0.493,-2.298c-0.159,-0.761 -0.335,-1.504 -0.493,-2.298c-0.229,-1.027 -0.299,-1.928 -0.493,-2.872c-0.159,-0.751 -0.334,-1.516 -0.493,-2.298c-0.176,-0.971 -0.317,-1.93 -0.493,-2.872c-0.176,-0.973 -0.317,-1.934 -0.493,-2.87c-0.229,-1.222 -0.264,-2.333 -0.493,-3.449c-0.176,-0.979 -0.299,-1.938 -0.492,-2.872c-0.194,-0.988 -0.3,-1.936 -0.493,-2.872c-0.194,-0.988 -0.3,-1.942 -0.475,-2.872c-0.211,-0.996 -0.317,-1.944 -0.493,-2.872c-0.159,-0.735 -0.334,-1.537 -0.493,-2.298c-0.211,-1.006 -0.299,-1.94 -0.493,-2.872c-0.159,-0.743 -0.334,-1.531 -0.493,-2.298c-0.158,-0.739 -0.334,-1.539 -0.493,-2.298c-0.158,-0.745 -0.334,-1.543 -0.493,-2.298c-0.158,-0.751 -0.334,-1.547 -0.492,-2.298c-0.159,-0.761 -0.317,-1.545 -0.493,-2.296c-0.053,-0.278 -0.335,-1.023 -0.493,-1.724c-0.176,-0.77 -0.317,-1.551 -0.493,-2.298c-0.176,-0.774 -0.317,-1.558 -0.493,-2.298c-0.07,-0.337 -0.317,-1.047 -0.493,-1.722c-0.088,-0.366 -0.317,-1.064 -0.475,-1.724c-0.211,-0.809 -0.317,-1.568 -0.493,-2.298c-0.141,-0.512 -0.352,-1.14 -0.492,-1.722c-0.141,-0.519 -0.352,-1.142 -0.493,-1.724c-0.141,-0.523 -0.335,-1.146 -0.493,-1.724c-0.229,-0.872 -0.3,-1.607 -0.493,-2.298c-0.141,-0.541 -0.334,-1.156 -0.493,-1.722c-0.159,-0.553 -0.334,-1.158 -0.493,-1.724c-0.159,-0.56 -0.334,-1.159 -0.493,-1.724c-0.018,-0.06 -0.246,-0.296 -0.493,-1.148c-0.158,-0.562 -0.317,-1.167 -0.493,-1.724c-0.158,-0.574 -0.317,-1.165 -0.492,-1.722c-0.159,-0.584 -0.317,-1.165 -0.475,-1.724c-0.176,-0.586 -0.335,-1.162 -0.493,-1.722c-0.176,-0.586 -0.334,-1.175 -0.493,-1.724c-0.018,-0.062 -0.264,-0.405 -0.493,-1.148c-0.194,-0.603 -0.317,-1.183 -0.493,-1.724c-0.193,-0.609 -0.317,-1.189 -0.493,-1.724c-0.299,-0.916 -0.669,-1.932 -0.985,-2.872c-0.176,-0.595 -0.317,-1.183 -0.493,-1.724c-0.282,-0.899 -0.669,-1.926 -0.986,-2.872c-0.247,-0.751 -0.387,-1.453 -0.493,-1.724c-0.352,-0.914 -0.352,-1.405 -0.493,-1.722c-0.334,-0.85 -0.44,-1.646 -0.475,-1.722c-0.035,-0.064 -0.686,-0.461 -0.739,-1.15c-0.387,0.099 -0.264,1.309 -0.247,1.724c0,0.117 0.458,0.934 0.493,2.298c0.229,2.183 0.317,4.154 0.493,6.319c0.159,2.675 0.334,5.35 0.475,8.043c0.194,4.056 0.405,7.981 0.493,12.064c0.159,6.543 0.159,12.416 0,18.959c-0.088,4.286 -0.264,8.372 -0.493,12.64c-0.141,2.339 -0.299,4.568 -0.475,6.895c-0.141,1.759 -0.334,3.444 -0.493,5.169c-0.158,1.558 -0.334,3.066 -0.493,4.597c-0.158,1.377 -0.317,2.665 -0.492,4.023c-0.159,1.193 -0.335,2.288 -0.493,3.446c-0.176,1.169 -0.317,2.278 -0.493,3.446c-0.159,0.986 -0.317,1.909 -0.493,2.872c-0.176,0.971 -0.317,1.895 -0.493,2.872c-0.141,0.794 -0.352,1.566 -0.493,2.298c-0.158,0.805 -0.317,1.521 -0.493,2.298c-0.158,0.778 -0.299,1.51 -0.493,2.298c-0.158,0.73 -0.405,1.364 -0.492,1.722c-0.176,0.78 -0.264,1.451 -0.493,2.298c-0.159,0.617 -0.3,1.128 -0.475,1.724c-0.176,0.58 -0.317,1.123 -0.493,1.724c-0.176,0.584 -0.282,1.086 -0.493,1.722c-0.176,0.514 -0.141,0.815 -0.493,1.724c-0.387,1.305 -0.211,3.611 -1.479,4.597l-0.492,0c-0.986,-0.315 -0.264,-2.128 -0.493,-2.872c-0.3,-1.014 -0.3,-1.475 -0.493,-2.298c-0.176,-0.805 -0.317,-1.508 -0.493,-2.298c-0.159,-0.735 -0.317,-1.593 -0.493,-2.298c-0.088,-0.366 -0.317,-1.072 -0.493,-1.724c-0.193,-0.807 -0.299,-1.56 -0.475,-2.298c-0.141,-0.502 -0.352,-1.138 -0.493,-1.722c-0.141,-0.512 -0.352,-1.138 -0.493,-1.722c-0.246,-0.881 -0.299,-1.597 -0.492,-2.298c-0.141,-0.541 -0.335,-1.142 -0.493,-1.724c-0.141,-0.535 -0.335,-1.152 -0.493,-1.724c-0.159,-0.547 -0.334,-1.146 -0.493,-1.724c-0.159,-0.545 -0.334,-1.152 -0.493,-1.722c-0.159,-0.551 -0.334,-1.158 -0.493,-1.724c-0.158,-0.56 -0.317,-1.163 -0.493,-1.724c-0.158,-0.57 -0.317,-1.163 -0.493,-1.722c-0.158,-0.578 -0.317,-1.165 -0.492,-1.722c-0.159,-0.582 -0.317,-1.171 -0.475,-1.724c-0.194,-0.588 -0.335,-1.173 -0.493,-1.724c-0.194,-0.595 -0.334,-1.177 -0.493,-1.724c-0.018,-0.06 -0.266,-0.422 -0.493,-1.148c-0.196,-0.599 -0.317,-1.177 -0.493,-1.724c-0.299,-0.912 -0.669,-1.897 -0.988,-2.872c-0.44,-1.317 -0.685,-2.586 -0.984,-3.446c-0.616,-1.862 -1.32,-3.86 -1.972,-5.745c-3.731,-10.858 -9.91,-22.835 -13.254,-33.321l-0.495,0c0.037,0.558 -0.086,1.175 0,1.722c0.107,0.874 0.354,1.897 0.495,2.872c0.211,1.422 0.315,2.625 0.493,4.023c0.159,1.35 0.333,2.642 0.475,4.021c0.194,1.568 0.352,3 0.493,4.597c0.192,1.944 0.352,3.78 0.493,5.745c0.209,2.539 0.37,4.916 0.493,7.469c0.229,4.269 0.44,8.341 0.493,12.638c0.068,4.212 0.086,7.848 0,12.066c-0.088,3.728 -0.264,7.21 -0.493,10.916c-0.159,2.134 -0.301,4.189 -0.493,6.321c-0.159,1.537 -0.319,3.066 -0.493,4.595c-0.196,1.296 -0.123,2.051 -0.493,3.446c-0.143,0.702 0.422,2.136 -0.475,2.298l-0.493,0c-0.952,-0.156 -0.317,-1.665 -0.495,-2.298c-0.685,-1.734 -0.614,-2.286 -0.984,-3.446c-0.194,-0.605 -0.319,-1.169 -0.493,-1.724c-0.284,-0.87 -0.669,-1.955 -0.986,-2.87c-8.062,-21.813 -19.926,-41.082 -32.934,-59.177c-0.933,-1.163 -0.915,-1.438 -1.461,-2.298c-0.035,-0.031 -0.16,0.062 -0.493,-0.574c-0.125,-0.058 -0.317,0.033 -0.495,0c-0.035,0.346 -0.053,0.819 0,1.15c0.196,0.43 0.319,0.733 0.495,1.148c0.018,0.037 0.176,-0.173 0.493,0.574c2.498,5.675 3.871,8.864 5.897,14.938c0.352,0.99 0.633,1.905 0.966,2.872c0.44,1.344 0.671,2.42 0.988,3.446c0.018,0.06 0.264,0.403 0.493,1.15c0.229,0.671 0.315,1.177 0.493,1.722c0.211,0.626 0.315,1.163 0.493,1.724c0.192,0.613 0.317,1.156 0.493,1.722c0.192,0.605 0.317,1.15 0.493,1.724c0.176,0.591 0.317,1.142 0.493,1.724c0.158,0.576 0.317,1.138 0.491,1.724c0.16,0.56 0.336,1.134 0.493,1.722c0.143,0.547 0.336,1.138 0.495,1.724c0.141,0.543 0.333,1.132 0.493,1.724c0.141,0.533 0.333,1.121 0.475,1.722c0.209,0.825 0.317,1.545 0.493,2.298c0.106,0.393 0.334,1.035 0.493,1.722c0.192,0.805 0.317,1.533 0.493,2.298c0.068,0.309 0.334,0.988 0.491,1.724c0.178,0.786 0.319,1.533 0.493,2.298c0.178,0.78 0.319,1.523 0.495,2.298c0.159,0.767 0.333,1.514 0.493,2.298c0.159,0.747 0.333,1.512 0.493,2.298c0.141,0.73 0.334,1.51 0.493,2.298c0.141,0.716 0.334,1.508 0.493,2.296c0.192,0.994 0.299,1.92 0.493,2.872c0.176,0.981 0.299,1.926 0.475,2.872c0.193,0.982 0.334,1.916 0.491,2.875c0.196,1.167 0.319,2.309 0.493,3.446c0.196,1.171 0.319,2.317 0.495,3.446c0.229,1.405 0.282,2.689 0.493,4.021c0.247,1.284 0.333,3.537 0.493,4.023c0.035,0.091 0.757,0.975 0.737,1.724l183.68,-0.574c-0.334,-1.502 0.246,-2.702 0.493,-4.023c0.229,-1.292 0.264,-2.617 0.493,-4.023c0.193,-1.099 0.317,-2.296 0.493,-3.446c0.193,-1.123 0.281,-2.261 0.492,-3.446c0.159,-0.981 0.317,-1.889 0.493,-2.872c0.176,-0.949 0.317,-1.901 0.493,-2.872c0.176,-0.959 0.299,-1.883 0.493,-2.872c0.176,-0.951 0.299,-1.879 0.493,-2.875c0.141,-0.778 0.334,-1.572 0.493,-2.296c0.141,-0.784 0.334,-1.56 0.475,-2.298c0.176,-0.786 0.334,-1.535 0.493,-2.298c0.176,-0.776 0.334,-1.525 0.492,-2.298c0.176,-0.765 0.317,-1.516 0.493,-2.298c0.176,-0.743 0.422,-1.422 0.493,-1.722c0.176,-0.767 0.3,-1.5 0.493,-2.298c0.141,-0.609 0.37,-1.212 0.493,-1.724c0.194,-0.753 0.281,-1.467 0.493,-2.296c0.159,-0.605 0.352,-1.202 0.493,-1.724c0.158,-0.599 1.707,-7.296 1.725,-7.354" style="fill:#5cb167;fill-rule:nonzero;"/><path d="M143.895,180.286c-0.327,0.899 -2.737,5.312 -2.943,5.957c-0.171,0.509 -3.097,4.517 -3.456,5.331c-0.154,0.337 -1.437,1.77 -1.437,1.77c-0.103,-1.064 0.137,-2.25 0,-3.289c-0.325,-1.362 -0.274,-2.256 -0.479,-3.54c-0.139,-1.319 -0.325,-2.703 -0.479,-4.048c-0.171,-1.897 -0.376,-3.625 -0.481,-5.564c-0.631,-9.431 -0.479,-18.401 0,-27.825c0.104,-2.23 0.344,-4.397 0.481,-6.577c0.137,-1.902 0.291,-3.673 0.479,-5.564c0.137,-1.571 0.306,-3.002 0.479,-4.553c0.154,-1.388 0.289,-2.654 0.479,-4.048c0.137,-1.067 0.325,-2.011 0.479,-3.035c0.152,-1.02 0.325,-2.04 0.479,-3.035c0.135,-0.837 0.342,-1.732 0.477,-2.529c0.068,-0.471 -0.118,-1.125 0,-1.518l-0.477,0c-0.327,0.647 -0.462,0.475 -0.479,0.505c-3.08,8.101 -6.809,15.79 -10.043,23.777c-2.087,5.459 -4.277,11.183 -6.193,16.694c-0.479,1.314 -0.975,2.729 -1.437,4.048c-0.325,0.964 -0.718,1.834 -0.96,2.529c-0.169,0.491 -0.306,1.004 -0.479,1.518c-0.169,0.493 -0.306,1.006 -0.477,1.516c-0.154,0.496 -0.308,1.009 -0.479,1.518c-0.154,0.495 -0.31,1.015 -0.479,1.518c-0.154,0.495 -0.31,1.02 -0.479,1.516c-0.154,0.496 -0.325,1.029 -0.479,1.518c-0.156,0.498 -0.325,1.038 -0.479,1.518c-0.139,0.502 -0.325,1.044 -0.462,1.516c-0.154,0.511 -0.342,1.044 -0.481,1.518c-0.186,0.618 -0.255,1.252 -0.479,2.024c-0.152,0.515 -0.359,1.073 -0.477,1.518c-0.188,0.647 -0.291,1.312 -0.479,2.022c-0.154,0.513 -0.359,1.073 -0.479,1.518c-0.188,0.643 -0.293,1.317 -0.479,2.024c-0.173,0.658 -0.274,1.306 -0.479,2.024c-0.139,0.511 -0.359,1.076 -0.479,1.516c-0.188,0.694 0.034,0.875 -0.481,2.024c-0.135,0.647 0.293,2.152 -0.238,2.529c-1.814,0.384 -0.924,-1.123 -1.197,-1.516c-0.924,-1.417 -0.582,-1.379 -0.941,-2.529c-0.428,-0.877 -0.325,-1.082 -0.479,-1.518c-0.224,-0.605 -0.308,-1.007 -0.479,-1.518c-0.188,-0.533 -0.308,-1.015 -0.479,-1.516c-0.188,-0.542 -0.308,-0.969 -0.481,-1.518c-0.221,-0.745 -0.289,-1.361 -0.479,-2.024c-0.135,-0.46 -0.323,-0.98 -0.477,-1.516c-0.171,-0.694 -0.31,-1.344 -0.479,-2.024c-0.171,-0.687 -0.327,-1.324 -0.479,-2.024c-0.137,-0.661 -0.325,-1.321 -0.479,-2.024c-0.19,-0.879 -0.308,-1.672 -0.479,-2.529c-0.173,-0.859 -0.308,-1.663 -0.462,-2.529c-0.156,-0.837 -0.342,-1.654 -0.479,-2.531c-0.137,-0.806 -0.359,-1.645 -0.481,-2.527c-0.186,-1.212 -0.323,-2.33 -0.479,-3.542c-0.169,-1.361 -0.323,-2.678 -0.477,-4.048c-0.154,-1.337 -0.361,-2.667 -0.479,-4.046c-0.171,-1.877 -0.342,-3.674 -0.479,-5.566c-0.207,-3.075 -0.376,-6.012 -0.479,-9.106c-0.274,-7.314 -0.274,-13.933 0,-21.246c0.103,-3.093 0.289,-6.034 0.479,-9.106c0.137,-1.859 0.342,-3.741 0.479,-5.566c0.152,-1.517 0.325,-3.053 0.479,-4.553l0,-4.551l-0.479,0c-0.599,2.647 -1.542,3.837 -2.397,6.07c-0.768,2.2 -1.641,4.406 -2.376,6.577c-0.224,0.596 -0.462,0.958 -0.479,1.011c-0.173,0.475 -0.291,0.982 -0.479,1.518c-0.171,0.477 -0.291,0.989 -0.479,1.518c-0.171,0.482 -0.308,0.993 -0.481,1.517c-0.169,0.485 -0.306,1.002 -0.479,1.518c-0.152,0.486 -0.306,1.011 -0.477,1.517c-0.24,0.736 -0.462,0.96 -0.479,1.013c-0.154,0.495 -0.31,1.02 -0.479,1.518c-0.154,0.498 -0.325,1.024 -0.479,1.517c-0.156,0.498 -0.325,1.035 -0.479,1.518c-0.156,0.5 -0.325,1.042 -0.462,1.518c-0.154,0.505 -0.342,1.045 -0.481,1.517c-0.186,0.634 -0.272,1.295 -0.479,2.024c-0.152,0.511 -0.358,1.067 -0.477,1.516c-0.154,0.515 -0.361,1.073 -0.479,1.518c-0.188,0.645 -0.293,1.319 -0.479,2.024c-0.154,0.589 -0.393,1.218 -0.479,1.518c-0.173,0.65 -0.308,1.341 -0.479,2.024c-0.156,0.609 -0.411,1.241 -0.479,1.517c-0.171,0.656 -0.308,1.348 -0.479,2.024c-0.154,0.659 -0.308,1.353 -0.481,2.024c-0.152,0.663 -0.306,1.359 -0.479,2.024c-0.152,0.663 -0.323,1.366 -0.477,2.024c-0.154,0.669 -0.327,1.368 -0.462,2.024c-0.171,0.672 -0.327,1.366 -0.479,2.022c-0.188,0.817 -0.276,1.647 -0.479,2.531c-0.156,0.67 -0.342,1.379 -0.479,2.022c-0.19,0.819 -0.291,1.66 -0.479,2.529c-0.188,0.821 -0.291,1.665 -0.481,2.529c-0.169,0.826 -0.289,1.665 -0.479,2.529c-0.169,0.824 -0.289,1.674 -0.477,2.531c-0.171,0.832 -0.291,1.667 -0.479,2.529c-0.205,0.991 -0.24,1.951 -0.479,3.035c-0.137,0.678 -0.342,1.402 -0.479,2.024c-0.171,0.835 -0.291,1.665 -0.479,2.529c-0.154,0.683 -0.308,1.35 -0.462,2.024c-0.205,0.832 -0.257,1.607 -0.479,2.529c-0.171,0.714 -0.291,1.308 -0.479,2.024c-0.171,0.656 -0.308,1.335 -0.479,2.024c-0.188,0.719 -0.24,1.205 -0.479,2.022c-0.171,0.564 -0.291,0.973 -0.479,1.518c-0.171,0.515 0.051,0.582 -0.479,1.518c-1.933,5.769 -1.574,1.614 -1.916,-1.518c-0.308,-1.515 -0.257,-2.62 -0.479,-4.048c-0.154,-1.172 -0.308,-2.364 -0.479,-3.54c-0.154,-1.183 -0.308,-2.357 -0.462,-3.542c-0.188,-1.361 -0.308,-2.703 -0.479,-4.048c-0.154,-1.165 -0.325,-2.363 -0.479,-3.54c-0.188,-1.353 -0.308,-2.707 -0.479,-4.048c-0.154,-1.161 -0.325,-2.363 -0.479,-3.54c-0.154,-1.161 -0.325,-2.361 -0.479,-3.542c-0.171,-1.355 -0.308,-2.703 -0.479,-4.046c-0.154,-1.158 -0.325,-2.363 -0.479,-3.542c-0.171,-1.353 -0.308,-2.705 -0.479,-4.048c-0.137,-1.154 -0.325,-2.361 -0.479,-3.54c-0.137,-1.156 -0.325,-2.363 -0.479,-3.54c-0.171,-1.348 -0.308,-2.707 -0.479,-4.048c-0.137,-1.154 -0.325,-2.361 -0.479,-3.542c-0.154,-1.346 -0.308,-2.703 -0.462,-4.046c-0.171,-1.346 -0.325,-2.705 -0.479,-4.048c-0.154,-1.149 -0.342,-2.363 -0.479,-3.542c-0.171,-1.343 -0.325,-2.703 -0.479,-4.046c-0.137,-1.149 -0.342,-2.363 -0.479,-3.542c-0.171,-1.343 -0.325,-2.703 -0.479,-4.046c-0.171,-1.343 -0.308,-2.703 -0.479,-4.048c-0.154,-1.341 -0.325,-2.701 -0.479,-4.048c-0.154,-1.339 -0.308,-2.703 -0.479,-4.048c-0.154,-1.337 -0.325,-2.7 -0.479,-4.046c-0.154,-1.339 -0.308,-2.705 -0.479,-4.048c-0.12,-1.136 -0.342,-2.361 -0.479,-3.542c-0.154,-1.341 -0.308,-2.692 -0.462,-4.046c-0.12,-0.928 -0.376,-2.002 -0.479,-3.037c-0.068,-0.719 -0.513,-1.631 -0.479,-3.035l-0.479,0c-0.034,1.17 -0.445,2.162 -0.479,2.529c-0.12,1.363 -0.359,2.752 -0.479,4.048c-0.171,1.687 -0.308,3.363 -0.479,5.059c-0.154,1.355 -0.325,2.718 -0.479,4.048c-0.154,1.35 -0.325,2.718 -0.479,4.048c-0.154,1.346 -0.325,2.718 -0.479,4.046c-0.154,1.348 -0.325,2.716 -0.479,4.048c-0.137,1.183 -0.342,2.404 -0.479,3.54c-0.154,1.346 -0.308,2.714 -0.479,4.048c-0.171,1.509 -0.291,3.029 -0.462,4.553c-0.171,1.346 -0.325,2.711 -0.479,4.048c-0.171,1.344 -0.325,2.711 -0.479,4.048c-0.154,1.18 -0.342,2.399 -0.479,3.54c-0.171,1.344 -0.325,2.711 -0.479,4.046c-0.171,1.348 -0.325,2.707 -0.479,4.048c-0.171,1.346 -0.308,2.705 -0.479,4.048c-0.171,1.344 -0.308,2.705 -0.479,4.048c-0.137,1.18 -0.342,2.394 -0.479,3.54c-0.154,1.344 -0.308,2.705 -0.479,4.048c-0.154,1.344 -0.308,2.701 -0.479,4.048c-0.154,1.343 -0.308,2.701 -0.479,4.046c-0.137,1.181 -0.325,2.39 -0.479,3.542c-0.154,1.344 -0.308,2.698 -0.462,4.048c-0.171,1.343 -0.308,2.694 -0.479,4.046c-0.171,1.346 -0.308,2.691 -0.479,4.048c-0.154,1.183 -0.325,2.379 -0.479,3.54c-0.188,1.355 -0.291,2.674 -0.479,4.048c-0.188,1.346 -0.291,2.671 -0.479,4.048c-0.188,1.247 -0.222,2.236 -0.479,3.54c-0.154,0.881 0.462,2.575 -0.479,3.037l-0.479,0c-0.992,-0.332 -0.77,-2.017 -0.958,-2.529c-0.359,-0.823 -0.291,-0.977 -0.479,-1.518c-0.171,-0.529 -0.308,-0.953 -0.479,-1.518c-0.274,-0.875 -0.291,-1.315 -0.462,-2.022c-0.188,-0.705 -0.308,-1.355 -0.479,-2.024c-0.188,-0.708 -0.325,-1.321 -0.479,-2.024c-0.154,-0.67 -0.325,-1.326 -0.479,-2.024c-0.222,-0.904 -0.291,-1.699 -0.479,-2.529c-0.154,-0.663 -0.325,-1.335 -0.479,-2.024c-0.171,-0.857 -0.308,-1.701 -0.479,-2.529c-0.188,-0.859 -0.308,-1.705 -0.479,-2.529c-0.222,-1.074 -0.274,-2.055 -0.479,-3.035c-0.188,-0.862 -0.291,-1.709 -0.479,-2.531c-0.188,-0.868 -0.291,-1.705 -0.479,-2.529c-0.188,-0.87 -0.291,-1.709 -0.479,-2.529c-0.188,-0.875 -0.291,-1.71 -0.462,-2.529c-0.154,-0.647 -0.325,-1.353 -0.479,-2.022c-0.205,-0.888 -0.291,-1.71 -0.479,-2.531c-0.154,-0.654 -0.325,-1.348 -0.479,-2.022c-0.154,-0.652 -0.325,-1.357 -0.479,-2.024c-0.154,-0.656 -0.325,-1.359 -0.479,-2.024c-0.154,-0.661 -0.325,-1.364 -0.479,-2.024c-0.171,-0.672 -0.308,-1.363 -0.479,-2.024c-0.051,-0.243 -0.325,-0.899 -0.479,-1.517c-0.171,-0.679 -0.308,-1.366 -0.479,-2.024c-0.171,-0.683 -0.308,-1.373 -0.479,-2.024c-0.068,-0.299 -0.308,-0.922 -0.479,-1.518c-0.086,-0.321 -0.308,-0.935 -0.479,-1.518c-0.188,-0.71 -0.291,-1.379 -0.462,-2.024c-0.137,-0.449 -0.342,-1.002 -0.479,-1.516c-0.137,-0.455 -0.342,-1.004 -0.479,-1.518c-0.137,-0.458 -0.342,-1.007 -0.479,-1.517c-0.222,-0.768 -0.291,-1.415 -0.479,-2.024c-0.154,-0.477 -0.325,-1.018 -0.479,-1.518c-0.154,-0.487 -0.325,-1.018 -0.479,-1.517c-0.154,-0.495 -0.325,-1.022 -0.479,-1.518c-0.017,-0.053 -0.24,-0.261 -0.479,-1.013c-0.154,-0.493 -0.308,-1.026 -0.479,-1.517c-0.154,-0.505 -0.308,-1.027 -0.479,-1.518c-0.171,-0.515 -0.308,-1.024 -0.479,-1.517c-0.171,-0.516 -0.308,-1.025 -0.479,-1.518c-0.171,-0.515 -0.308,-1.033 -0.462,-1.518c-0.034,-0.053 -0.257,-0.355 -0.479,-1.011c-0.188,-0.529 -0.308,-1.04 -0.479,-1.518c-0.188,-0.536 -0.308,-1.047 -0.479,-1.516c-0.291,-0.806 -0.65,-1.703 -0.958,-2.531c-0.188,-0.522 -0.308,-1.042 -0.479,-1.517c-0.274,-0.792 -0.65,-1.696 -0.958,-2.529c-0.257,-0.661 -0.376,-1.279 -0.479,-1.518c-0.342,-0.804 -0.359,-1.237 -0.479,-1.516c-0.325,-0.75 -0.428,-1.449 -0.479,-1.518c-0.017,-0.054 -0.65,-0.406 -0.701,-1.011c-0.376,0.085 -0.257,1.151 -0.24,1.516c0,0.105 0.445,0.823 0.462,2.024c0.24,1.924 0.325,3.658 0.479,5.564c0.171,2.357 0.342,4.711 0.479,7.083c0.188,3.571 0.394,7.03 0.479,10.625c0.154,5.76 0.154,10.931 0,16.694c-0.085,3.772 -0.257,7.371 -0.479,11.13c-0.137,2.06 -0.291,4.02 -0.479,6.07c-0.12,1.551 -0.308,3.035 -0.479,4.553c-0.137,1.371 -0.308,2.698 -0.462,4.048c-0.154,1.212 -0.325,2.346 -0.479,3.54c-0.154,1.051 -0.325,2.017 -0.479,3.035c-0.171,1.031 -0.308,2.008 -0.479,3.037c-0.154,0.866 -0.325,1.68 -0.479,2.529c-0.171,0.855 -0.308,1.667 -0.479,2.529c-0.137,0.698 -0.342,1.377 -0.479,2.024c-0.154,0.707 -0.308,1.337 -0.479,2.024c-0.171,0.683 -0.308,1.328 -0.479,2.024c-0.154,0.641 -0.393,1.199 -0.479,1.516c-0.171,0.687 -0.257,1.277 -0.479,2.024c-0.154,0.542 -0.308,0.993 -0.479,1.518c-0.154,0.509 -0.291,0.987 -0.462,1.516c-0.188,0.515 -0.291,0.958 -0.479,1.518c-0.171,0.453 -0.137,0.717 -0.479,1.518c-0.376,1.147 -0.205,3.18 -1.437,4.046l-0.479,0c-0.958,-0.275 -0.274,-1.872 -0.479,-2.529c-0.291,-0.891 -0.291,-1.299 -0.479,-2.024c-0.188,-0.708 -0.308,-1.326 -0.479,-2.024c-0.154,-0.645 -0.308,-1.402 -0.479,-2.022c-0.085,-0.323 -0.308,-0.944 -0.479,-1.518c-0.188,-0.71 -0.291,-1.373 -0.479,-2.024c-0.12,-0.442 -0.325,-1.004 -0.462,-1.516c-0.137,-0.451 -0.342,-1.004 -0.479,-1.518c-0.24,-0.774 -0.308,-1.406 -0.479,-2.024c-0.154,-0.477 -0.325,-1.006 -0.479,-1.518c-0.137,-0.471 -0.325,-1.015 -0.479,-1.516c-0.154,-0.484 -0.325,-1.009 -0.479,-1.518c-0.154,-0.48 -0.325,-1.016 -0.479,-1.518c-0.154,-0.486 -0.325,-1.018 -0.479,-1.516c-0.154,-0.493 -0.325,-1.026 -0.479,-1.518c-0.154,-0.502 -0.308,-1.024 -0.479,-1.518c-0.154,-0.507 -0.308,-1.024 -0.479,-1.516c-0.171,-0.511 -0.308,-1.029 -0.479,-1.518c-0.171,-0.516 -0.308,-1.033 -0.462,-1.516c-0.188,-0.526 -0.325,-1.036 -0.479,-1.518c-0.034,-0.053 -0.257,-0.373 -0.479,-1.013c-0.188,-0.527 -0.308,-1.035 -0.479,-1.516c-0.291,-0.805 -0.65,-1.671 -0.958,-2.529c-0.428,-1.16 -0.667,-2.278 -0.958,-3.035c-0.599,-1.641 -1.283,-3.399 -1.916,-5.06c-3.627,-9.561 -9.632,-20.108 -12.899,-29.341l-0.462,0c0.034,0.493 -0.086,1.035 0,1.518c0.103,0.77 0.342,1.671 0.462,2.529c0.222,1.25 0.325,2.312 0.479,3.54c0.171,1.19 0.342,2.328 0.479,3.542c0.188,1.379 0.342,2.642 0.479,4.046c0.188,1.712 0.342,3.328 0.479,5.059c0.205,2.238 0.342,4.33 0.479,6.577c0.222,3.761 0.428,7.345 0.479,11.13c0.068,3.709 0.086,6.909 0,10.623c-0.085,3.283 -0.257,6.351 -0.479,9.614c-0.154,1.877 -0.291,3.687 -0.479,5.564c-0.154,1.353 -0.308,2.7 -0.479,4.048c-0.188,1.141 -0.12,1.806 -0.479,3.035c-0.137,0.616 0.411,1.881 -0.479,2.024l-0.479,0c-0.907,-0.138 -0.291,-1.468 -0.462,-2.024c-0.667,-1.529 -0.599,-2.015 -0.958,-3.035c-0.188,-0.533 -0.308,-1.029 -0.479,-1.518c-0.274,-0.768 -0.667,-1.721 -0.958,-2.529c-7.835,-19.208 -19.366,-36.176 -32.009,-52.107c-0.907,-1.025 -0.89,-1.268 -1.437,-2.024c-0.017,-0.029 -0.137,0.054 -0.462,-0.506c-0.12,-0.053 -0.308,0.029 -0.479,0c-0.034,0.304 -0.068,0.721 0,1.011c0.188,0.38 0.308,0.647 0.479,1.013c0,0.033 0.154,-0.154 0.462,0.505c2.447,4.995 3.781,7.806 5.749,13.152c0.342,0.872 0.616,1.678 0.941,2.531c0.428,1.181 0.65,2.131 0.958,3.035c0.017,0.053 0.256,0.355 0.479,1.011c0.222,0.592 0.308,1.036 0.479,1.518c0.188,0.549 0.308,1.022 0.479,1.518c0.188,0.54 0.308,1.017 0.479,1.517c0.171,0.531 0.308,1.011 0.479,1.518c0.171,0.518 0.308,1.006 0.479,1.516c0.154,0.509 0.308,1.002 0.479,1.518c0.154,0.495 0.308,0.998 0.479,1.518c0.137,0.48 0.325,1 0.462,1.516c0.154,0.478 0.342,0.996 0.479,1.518c0.137,0.471 0.342,0.989 0.479,1.518c0.205,0.727 0.308,1.359 0.479,2.022c0.103,0.346 0.325,0.913 0.479,1.518c0.188,0.707 0.308,1.35 0.479,2.024c0.068,0.27 0.325,0.868 0.479,1.518c0.171,0.69 0.308,1.35 0.479,2.022c0.171,0.687 0.308,1.343 0.479,2.024c0.154,0.676 0.325,1.334 0.479,2.024c0.154,0.658 0.325,1.334 0.479,2.024c0.137,0.643 0.325,1.332 0.479,2.024c0.12,0.632 0.325,1.328 0.479,2.024c0.188,0.873 0.291,1.69 0.462,2.529c0.188,0.862 0.308,1.694 0.479,2.529c0.188,0.864 0.308,1.685 0.479,2.529c0.188,1.029 0.308,2.033 0.479,3.035c0.188,1.033 0.308,2.042 0.479,3.035c0.222,1.238 0.274,2.368 0.479,3.542c0.24,1.129 0.325,3.115 0.479,3.542c0.034,0.078 0.719,0.859 0.719,1.516l178.522,-0.505c-0.323,-1.321 0.241,-2.379 0.479,-3.542c0.224,-1.136 0.241,-2.305 0.481,-3.54c0.188,-0.969 0.291,-2.022 0.479,-3.035c0.188,-0.989 0.272,-1.993 0.479,-3.035c0.154,-0.866 0.289,-1.663 0.479,-2.531c0.169,-0.833 0.291,-1.672 0.479,-2.529c0.169,-0.844 0.291,-1.656 0.479,-2.529c0.171,-0.835 0.274,-1.654 0.479,-2.529c0.137,-0.685 0.325,-1.384 0.46,-2.024c0.156,-0.689 0.344,-1.372 0.479,-2.022c0.156,-0.694 0.327,-1.352 0.481,-2.024c0.171,-0.683 0.306,-1.343 0.479,-2.024c0.171,-0.676 0.306,-1.337 0.479,-2.024c0.171,-0.654 0.411,-1.254 0.479,-1.518c0.169,-0.674 0.291,-1.319 0.479,-2.024c0.135,-0.534 0.359,-1.065 0.479,-1.518c0.188,-0.661 0.274,-1.29 0.477,-2.022c0.139,-0.531 0.344,-1.058 0.479,-1.518c0.139,-0.525 1.644,-6.423 1.677,-6.476" style="fill:#5cb167;fill-rule:nonzero;"/><path d="M24.95,199.041l451.964,0l-19.815,122.307l-68.417,35.117l-118.853,26.64l-108.028,-2.39l-100.836,-49.681l-57.628,-97.22l21.613,-34.773Z" style="fill:#5cb167;fill-rule:nonzero;"/></g></g></svg>