<?xml version="1.0" encoding="UTF-8" standalone="no"?><!DOCTYPE svg PUBLIC "-//W3C//DTD SVG 1.1//EN" "http://www.w3.org/Graphics/SVG/1.1/DTD/svg11.dtd"><svg width="100%" height="100%" viewBox="0 0 243 243" version="1.1" xmlns="http://www.w3.org/2000/svg" xmlns:xlink="http://www.w3.org/1999/xlink" xml:space="preserve" xmlns:serif="http://www.serif.com/" style="fill-rule:evenodd;clip-rule:evenodd;stroke-linecap:round;stroke-miterlimit:2;"><path d="M121.31,242.626c67,0 121.31,-54.316 121.31,-121.315c0,-66.998 -54.31,-121.311 -121.31,-121.311c-67,0 -121.31,54.313 -121.31,121.311c0,66.999 54.31,121.315 121.31,121.315Z" style="fill:#defaff;fill-rule:nonzero;"/><clipPath id="_clip1"><path d="M121.31,242.626c67,0 121.31,-54.316 121.31,-121.315c0,-66.998 -54.31,-121.311 -121.31,-121.311c-67,0 -121.31,54.313 -121.31,121.311c0,66.999 54.31,121.315 121.31,121.315Z" clip-rule="nonzero"/></clipPath><g clip-path="url(#_clip1)"><rect x="-16.133" y="197.276" width="269" height="63" style="fill:#92cf9e;"/></g><path d="M175.892,80.165c6.462,-6.625 10.45,-15.708 10.45,-25.738c0,-20.273 -16.269,-36.707 -36.344,-36.707c-15.105,0 -28.064,9.325 -33.544,22.587c-6.486,-4.858 -14.462,-7.761 -23.118,-7.761c-21.639,0 -39.193,17.932 -39.193,40.054c0,4.687 0.836,9.166 2.279,13.347c-14.572,7.682 -24.537,23.123 -24.537,40.933c0,25.469 20.354,46.116 45.485,46.116c5.419,0 10.583,-1.007 15.408,-2.771c4.437,7.235 12.293,12.059 21.276,12.059c8.595,0 16.184,-4.422 20.718,-11.159c4.716,1.513 9.723,2.372 14.935,2.372c27.471,0 49.752,-22.585 49.752,-50.444c0,-18.115 -9.432,-33.991 -23.567,-42.888Z" style="fill:#75da64;fill-rule:nonzero;"/><path d="M164.509,224.906c9.831,0 17.796,-7.966 17.796,-17.793c0,-9.827 -7.965,-17.793 -17.796,-17.793c-9.82,0 -17.784,7.966 -17.784,17.793c0,9.827 7.965,17.793 17.784,17.793Z" style="fill:#ff8343;fill-rule:nonzero;"/><path d="M164.429,129.655c9.832,0 17.797,-7.966 17.797,-17.794c0,-9.827 -7.965,-17.793 -17.797,-17.793c-9.819,0 -17.796,7.966 -17.796,17.793c0,9.828 7.977,17.794 17.796,17.794Z" style="fill:#ff8343;fill-rule:nonzero;"/><path d="M103.192,93.966c11.347,0 20.548,-9.2 20.548,-20.549c0,-11.348 -9.201,-20.548 -20.548,-20.548c-11.347,0 -20.548,9.2 -20.548,20.548c0,11.349 9.201,20.549 20.548,20.549Z" style="fill:#ff8343;fill-rule:nonzero;"/><path d="M75.491,147.395c10.571,0 19.154,-8.532 19.154,-19.06c0,-10.525 -8.583,-19.058 -19.154,-19.058c-10.583,0 -19.154,8.533 -19.154,19.058c0,10.528 8.571,19.06 19.154,19.06Z" style="fill:#ff8343;fill-rule:nonzero;"/><path d="M136.853,128.336l-16.387,18.14m-20.52,0.919l19.247,19.073m0.764,-63.476l0,116.921" style="fill:none;stroke:#776e5c;stroke-width:8.95px;"/></svg>