<?xml version="1.0" encoding="UTF-8" standalone="no"?><!DOCTYPE svg PUBLIC "-//W3C//DTD SVG 1.1//EN" "http://www.w3.org/Graphics/SVG/1.1/DTD/svg11.dtd"><svg width="100%" height="100%" viewBox="0 0 243 243" version="1.1" xmlns="http://www.w3.org/2000/svg" xmlns:xlink="http://www.w3.org/1999/xlink" xml:space="preserve" xmlns:serif="http://www.serif.com/" style="fill-rule:evenodd;clip-rule:evenodd;stroke-linejoin:round;stroke-miterlimit:2;"><g><path d="M121.32,242.622c66.99,0 121.31,-54.313 121.31,-121.311c0,-66.998 -54.32,-121.311 -121.31,-121.311c-67,0 -121.32,54.313 -121.32,121.311c0,66.998 54.32,121.311 121.32,121.311Z" style="fill:#defaff;fill-rule:nonzero;"/><clipPath id="_clip1"><path d="M121.32,242.622c66.99,0 121.31,-54.313 121.31,-121.311c0,-66.998 -54.32,-121.311 -121.31,-121.311c-67,0 -121.32,54.313 -121.32,121.311c0,66.998 54.32,121.311 121.32,121.311Z" clip-rule="nonzero"/></clipPath><g clip-path="url(#_clip1)"><g><path d="M242.45,112.33c-1.27,3.317 -7.242,11.396 -5.868,9.234c-0.077,-0.753 0.103,-1.591 0,-2.326c-2.687,-10.651 0.035,-46.462 1.435,-50.801l-0.359,0c-4.515,8.463 -4.113,8.369 -7.867,17.172c-11.744,28.754 -11.281,33.93 -12.531,36.491c-0.103,0.457 0.218,1.522 -0.18,1.789c-0.616,0.123 -1.519,-2.613 -1.602,-2.862c-10.327,-19.95 -5.938,-60.245 -5.369,-65.469l0,-3.22l-0.359,0c-0.055,0.231 -7.961,17.576 -13.236,41.5c-5.262,23.863 -5.143,23.593 -5.369,23.969c-1.26,3.552 -1.57,-1.471 -7.508,-46.508c-4.242,-32.174 -4.724,-31.901 -4.651,-34.701l-0.359,0c-0.005,0.15 -10.523,82.899 -10.737,82.998l-0.359,0c-1.25,-0.392 -6.209,-27.997 -9.661,-40.068c-7.81,-27.314 -9.967,-26.53 -10.186,-28.978c-0.144,0.031 1.656,16.713 1.243,30.766c-0.102,3.457 -1.127,38.329 -7.508,42.573l-0.358,0c-0.44,-0.12 0.357,-2.347 -7.15,-23.97c-5.461,-15.73 -7.475,-14.6 -13.236,-30.05l-0.36,-0c0.318,4.109 3.952,51.015 0.719,51.515l-0.359,0c-0.693,-0.097 -0.231,-1.037 -0.36,-1.431c-10.394,-22.528 -9.822,-22.885 -25.765,-41.857c-0.045,-0.048 -0.914,-1.651 -1.782,-1.789c-0.026,0.215 -0.038,0.51 0,0.716c2.164,4.073 17.65,33.215 16.99,55.094l133.704,-0.357c-0.343,-1.319 4.658,-25.759 7.701,-34.273" style="fill:#92cf9e;fill-rule:nonzero;"/><path d="M109.17,126.53c-0.077,-0.752 -6.674,0.495 -7.956,-4.578c-2.684,-10.626 0.021,-46.349 1.434,-50.8l-0.357,0c-4.48,8.366 -4.069,8.283 -7.88,17.172c-12.746,31.48 -10.761,32.787 -12.519,36.491c-0.101,0.457 0.219,1.522 -0.178,1.789c-0.615,0.123 -1.519,-2.612 -1.602,-2.861c-10.318,-19.977 -5.937,-60.246 -5.369,-65.47l0,-3.219l-0.359,0c-0.055,0.231 -7.962,17.576 -13.236,41.498c-5.261,23.864 -5.142,23.593 -5.369,23.97c-1.261,3.552 -1.57,-1.471 -7.508,-46.508c-4.242,-32.175 -4.723,-31.902 -4.651,-34.702l-0.359,0c-0.005,0.151 -10.523,82.9 -10.737,82.999l-0.359,0c-1.265,-0.399 -6.176,-27.88 -9.661,-40.068c-7.81,-27.314 -9.966,-26.53 -10.186,-28.978c-1.661,0.355 0.142,0.856 0.167,2.504c4.065,30.837 -3.561,68.929 -6.432,70.835l-0.359,0c-0.441,-0.12 0.36,-2.341 -7.15,-23.969c-5.47,-15.754 -7.464,-14.618 -13.248,-30.051l-0.346,0c0.303,4.111 3.757,51.053 0.705,51.517l-0.359,-0c-0.679,-0.097 -0.218,-1.038 -0.346,-1.431l-1.794,-5.009c-5.868,-13.583 -14.504,-25.582 -23.973,-36.849c-1.225,-1.308 -2.255,-2.969 -1.781,-1.074c2.14,4.086 16.99,32.434 16.99,55.094l133.701,-0.357" style="fill:#92cf9e;fill-rule:nonzero;"/><path d="M-4.336,126.005l353.415,0l-15.494,95.857l-53.499,27.523l-92.937,20.879l-84.473,-1.873l-78.849,-38.937l-45.063,-76.196l16.9,-27.253Z" style="fill:#92cf9e;fill-rule:nonzero;"/></g><g><path d="M312.391,185.708c-1.745,5.326 -9.949,18.3 -8.062,14.829c-0.105,-1.21 0.141,-2.556 0,-3.735c-3.691,-17.105 0.047,-74.612 1.972,-81.58l-0.493,0c-6.203,13.591 -5.65,13.44 -10.808,27.576c-16.134,46.175 -15.498,54.487 -17.215,58.6c-0.141,0.735 0.299,2.444 -0.247,2.872c-0.846,0.197 -2.087,-4.197 -2.2,-4.597c-14.187,-32.038 -8.157,-96.746 -7.375,-105.135l0,-5.171l-0.493,0c-0.076,0.371 -10.936,28.224 -18.183,66.644c-7.228,38.322 -7.065,37.887 -7.375,38.491c-1.732,5.704 -2.157,-2.362 -10.315,-74.687c-5.828,-51.667 -6.489,-51.23 -6.39,-55.726l-0.493,0c-0.006,0.241 -14.456,133.126 -14.75,133.285l-0.493,0c-1.717,-0.63 -8.53,-44.959 -13.272,-64.345c-10.729,-43.862 -13.692,-42.604 -13.994,-46.535c-0.197,0.05 2.275,26.84 1.707,49.407c-0.14,5.551 -1.548,61.552 -10.315,68.368l-0.492,0c-0.604,-0.193 0.491,-3.77 -9.822,-38.494c-7.502,-25.26 -10.269,-23.446 -18.183,-48.257l-0.495,-0c0.437,6.599 5.43,81.924 0.988,82.728l-0.493,0c-0.952,-0.156 -0.317,-1.665 -0.495,-2.298c-14.278,-36.177 -13.493,-36.75 -35.396,-67.218c-0.061,-0.077 -1.256,-2.652 -2.449,-2.872c-0.035,0.346 -0.053,0.819 0,1.15c2.973,6.541 24.248,53.34 23.34,88.475l183.68,-0.574c-0.471,-2.118 6.4,-41.366 10.579,-55.039" style="fill:#5cb167;fill-rule:nonzero;"/><path d="M143.895,180.286c-1.729,4.752 -9.633,16.054 -7.836,13.058c-0.103,-1.064 0.137,-2.25 0,-3.289c-3.584,-15.026 0.028,-65.542 1.914,-71.836l-0.477,0c-5.981,11.83 -5.433,11.714 -10.522,24.282c-17.019,44.516 -14.368,46.363 -16.716,51.602c-0.135,0.647 0.293,2.152 -0.238,2.529c-0.821,0.174 -2.029,-3.694 -2.139,-4.046c-13.777,-28.249 -7.927,-85.193 -7.168,-92.58l0,-4.551l-0.479,0c-0.074,0.327 -10.631,24.855 -17.673,58.682c-7.025,33.745 -6.866,33.362 -7.168,33.896c-1.683,5.023 -2.097,-2.08 -10.026,-65.767c-5.664,-45.498 -6.307,-45.113 -6.21,-49.072l-0.479,0c-0.006,0.214 -14.051,117.228 -14.337,117.368l-0.479,0c-1.689,-0.565 -8.246,-39.425 -12.9,-56.66c-10.429,-38.624 -13.307,-37.516 -13.601,-40.977c-2.218,0.502 0.189,1.21 0.222,3.54c5.428,43.606 -4.755,97.472 -8.588,100.167l-0.479,0c-0.589,-0.169 0.48,-3.31 -9.546,-33.894c-7.303,-22.277 -9.967,-20.672 -17.69,-42.495l-0.462,0c0.404,5.813 5.017,72.194 0.941,72.849l-0.479,-0c-0.907,-0.138 -0.291,-1.468 -0.462,-2.024l-2.395,-7.083c-7.835,-19.208 -19.366,-36.176 -32.009,-52.107c-1.636,-1.85 -3.011,-4.199 -2.378,-1.518c2.858,5.778 22.686,45.864 22.686,77.908l178.522,-0.505c-0.654,-2.674 8.658,-45.812 10.282,-48.465" style="fill:#5cb167;fill-rule:nonzero;"/><path d="M24.95,199.041l451.964,0l-19.815,122.307l-68.417,35.117l-118.853,26.64l-108.028,-2.39l-100.836,-49.681l-57.628,-97.22l21.613,-34.773Z" style="fill:#5cb167;fill-rule:nonzero;"/></g></g></g></svg>