<?xml version="1.0" encoding="UTF-8" standalone="no"?><!DOCTYPE svg PUBLIC "-//W3C//DTD SVG 1.1//EN" "http://www.w3.org/Graphics/SVG/1.1/DTD/svg11.dtd"><svg width="100%" height="100%" viewBox="0 0 243 243" version="1.1" xmlns="http://www.w3.org/2000/svg" xmlns:xlink="http://www.w3.org/1999/xlink" xml:space="preserve" xmlns:serif="http://www.serif.com/" style="fill-rule:evenodd;clip-rule:evenodd;stroke-linejoin:round;stroke-miterlimit:2;"><path d="M121.31,242.626c67,0 121.31,-54.316 121.31,-121.315c0,-66.998 -54.31,-121.311 -121.31,-121.311c-67,0 -121.31,54.313 -121.31,121.311c0,66.999 54.31,121.315 121.31,121.315Z" style="fill:#defaff;fill-rule:nonzero;"/><clipPath id="_clip1"><path d="M121.31,242.626c67,0 121.31,-54.316 121.31,-121.315c0,-66.998 -54.31,-121.311 -121.31,-121.311c-67,0 -121.31,54.313 -121.31,121.311c0,66.999 54.31,121.315 121.31,121.315Z" clip-rule="nonzero"/></clipPath><g clip-path="url(#_clip1)"><g opacity="0.8"><g><rect x="-56.677" y="136.978" width="330.534" height="110.124" style="fill:#92cf9e;"/></g><g><g><path d="M162.871,89.029c6,-0.69 10.306,-6.133 9.613,-12.158c-0.693,-6.025 -6.121,-10.348 -12.122,-9.658c-6.001,0.69 -10.306,6.133 -9.613,12.158c0.693,6.025 6.121,10.348 12.122,9.658Z" style="fill:#45ac5a;fill-rule:nonzero;"/><path d="M203.073,88.223c6,-0.69 10.305,-6.133 9.612,-12.158c-0.693,-6.025 -6.121,-10.348 -12.121,-9.658c-6.012,0.691 -10.317,6.134 -9.624,12.159c0.693,6.025 6.121,10.348 12.133,9.657Z" style="fill:#45ac5a;fill-rule:nonzero;"/><path d="M149.764,95.343c6,-0.69 10.305,-6.133 9.612,-12.157c-0.693,-6.025 -6.121,-10.348 -12.121,-9.658c-6.001,0.69 -10.306,6.133 -9.613,12.158c0.693,6.025 6.121,10.348 12.122,9.658Z" style="fill:#45ac5a;fill-rule:nonzero;"/><path d="M212.155,97.646c6,-0.69 10.305,-6.134 9.612,-12.159c-0.693,-6.024 -6.121,-10.348 -12.121,-9.658c-6.012,0.691 -10.317,6.135 -9.624,12.159c0.693,6.025 6.122,10.349 12.133,9.658Z" style="fill:#45ac5a;fill-rule:nonzero;"/><path d="M149.925,111.684c6,-0.69 10.305,-6.134 9.612,-12.157c-0.693,-6.025 -6.121,-10.349 -12.121,-9.659c-6.001,0.69 -10.306,6.134 -9.613,12.159c0.693,6.024 6.121,10.348 12.122,9.658Z" style="fill:#45ac5a;fill-rule:nonzero;"/><path d="M219.208,110.96c6.001,-0.69 10.305,-6.134 9.613,-12.159c-0.693,-6.024 -6.121,-10.348 -12.122,-9.658c-6,0.69 -10.305,6.134 -9.612,12.157c0.693,6.025 6.121,10.349 12.121,9.659Z" style="fill:#45ac5a;fill-rule:nonzero;"/><path d="M149.183,130.067c6,-0.69 10.306,-6.133 9.613,-12.158c-0.693,-6.025 -6.121,-10.348 -12.122,-9.658c-6.001,0.69 -10.306,6.133 -9.613,12.158c0.693,6.025 6.121,10.348 12.122,9.658Z" style="fill:#45ac5a;fill-rule:nonzero;"/><path d="M221.754,125.529c6.012,-0.691 10.316,-6.135 9.623,-12.16c-0.693,-6.024 -6.121,-10.348 -12.132,-9.657c-6.001,0.69 -10.305,6.134 -9.613,12.158c0.693,6.025 6.121,10.349 12.122,9.659Z" style="fill:#45ac5a;fill-rule:nonzero;"/><path d="M156.507,144.082c6,-0.69 10.316,-6.135 9.623,-12.16c-0.693,-6.024 -6.132,-10.347 -12.132,-9.657c-6.001,0.69 -10.305,6.134 -9.613,12.158c0.693,6.025 6.121,10.349 12.122,9.659Z" style="fill:#45ac5a;fill-rule:nonzero;"/><path d="M216.383,141.001c6.001,-0.69 10.305,-6.134 9.613,-12.158c-0.693,-6.025 -6.121,-10.349 -12.122,-9.659c-6.001,0.69 -10.305,6.134 -9.613,12.159c0.693,6.024 6.121,10.348 12.122,9.658Z" style="fill:#45ac5a;fill-rule:nonzero;"/><path d="M167.199,157.709c6.001,-0.69 10.306,-6.133 9.613,-12.158c-0.693,-6.025 -6.121,-10.348 -12.122,-9.658c-6,0.69 -10.306,6.133 -9.613,12.158c0.693,6.025 6.121,10.348 12.122,9.658Z" style="fill:#45ac5a;fill-rule:nonzero;"/><path d="M175.303,81.694c6.001,-0.69 10.316,-6.134 9.624,-12.159c-0.693,-6.025 -6.132,-10.347 -12.132,-9.657c-6.001,0.69 -10.306,6.133 -9.613,12.158c0.693,6.025 6.121,10.348 12.122,9.658Z" style="fill:#45ac5a;fill-rule:nonzero;"/><path d="M190.388,81.132c6,-0.69 10.305,-6.134 9.613,-12.159c-0.693,-6.024 -6.121,-10.348 -12.122,-9.658c-6.001,0.69 -10.306,6.134 -9.613,12.158c0.693,6.025 6.121,10.349 12.122,9.659Z" style="fill:#45ac5a;fill-rule:nonzero;"/><path d="M208.317,149.925c6,-0.69 10.306,-6.133 9.613,-12.158c-0.693,-6.025 -6.121,-10.348 -12.122,-9.658c-6.001,0.69 -10.306,6.133 -9.613,12.158c0.693,6.025 6.121,10.348 12.122,9.658Z" style="fill:#45ac5a;fill-rule:nonzero;"/><path d="M189.121,155.188c20.82,-2.394 35.383,-24.375 32.54,-49.096c-2.843,-24.721 -22.015,-42.822 -42.836,-40.428c-20.82,2.394 -35.394,24.376 -32.551,49.097c2.843,24.721 22.026,42.821 42.847,40.426Z" style="fill:#45ac5a;fill-rule:nonzero;"/></g><g><path d="M112.807,93.43c6.849,-0.788 11.716,-7.358 10.874,-14.674c-0.842,-7.317 -7.073,-12.61 -13.921,-11.823c-6.848,0.788 -11.715,7.357 -10.874,14.674c0.841,7.316 7.073,12.61 13.921,11.823Z" style="fill:#6bb77a;fill-rule:nonzero;"/><path d="M158.538,91.415c6.848,-0.788 11.715,-7.357 10.874,-14.674c-0.841,-7.316 -7.073,-12.61 -13.921,-11.823c-6.849,0.788 -11.726,7.359 -10.885,14.676c0.842,7.317 7.084,12.609 13.932,11.822Z" style="fill:#6bb77a;fill-rule:nonzero;"/><path d="M97.891,100.982c6.848,-0.788 11.715,-7.358 10.874,-14.674c-0.842,-7.317 -7.073,-12.61 -13.921,-11.823c-6.849,0.788 -11.716,7.357 -10.874,14.674c0.841,7.316 7.073,12.61 13.921,11.823Z" style="fill:#6bb77a;fill-rule:nonzero;"/><path d="M170.992,103.771c6.849,-0.788 11.726,-7.358 10.885,-14.676c-0.842,-7.317 -7.084,-12.609 -13.932,-11.822c-6.848,0.788 -11.715,7.357 -10.874,14.674c0.842,7.317 7.073,12.61 13.921,11.823Z" style="fill:#6bb77a;fill-rule:nonzero;"/><path d="M98.219,120.814c6.848,-0.788 11.715,-7.358 10.874,-14.674c-0.842,-7.317 -7.073,-12.61 -13.921,-11.823c-6.849,0.788 -11.726,7.358 -10.885,14.676c0.841,7.316 7.084,12.609 13.932,11.822Z" style="fill:#6bb77a;fill-rule:nonzero;"/><path d="M179.501,122.862c6.849,-0.788 11.716,-7.358 10.874,-14.674c-0.842,-7.317 -7.073,-12.61 -13.921,-11.823c-6.848,0.788 -11.715,7.357 -10.874,14.674c0.841,7.316 7.073,12.61 13.921,11.823Z" style="fill:#6bb77a;fill-rule:nonzero;"/><path d="M97.515,143.118c6.849,-0.788 11.726,-7.359 10.885,-14.676c-0.842,-7.317 -7.084,-12.609 -13.932,-11.822c-6.848,0.788 -11.715,7.357 -10.874,14.674c0.841,7.316 7.073,12.61 13.921,11.823Z" style="fill:#6bb77a;fill-rule:nonzero;"/><path d="M180.687,141.222c6.849,-0.788 11.726,-7.358 10.885,-14.676c-0.841,-7.316 -7.084,-12.609 -13.932,-11.822c-6.848,0.788 -11.715,7.358 -10.874,14.674c0.842,7.317 7.073,12.61 13.921,11.823Z" style="fill:#6bb77a;fill-rule:nonzero;"/><path d="M106.004,160.185c6.849,-0.788 11.716,-7.357 10.874,-14.673c-0.842,-7.317 -7.073,-12.61 -13.921,-11.823c-6.849,0.788 -11.726,7.358 -10.885,14.676c0.841,7.316 7.083,12.608 13.932,11.82Z" style="fill:#6bb77a;fill-rule:nonzero;"/><path d="M174.584,161.488c6.849,-0.788 11.726,-7.358 10.885,-14.676c-0.842,-7.317 -7.084,-12.609 -13.932,-11.822c-6.848,0.788 -11.715,7.357 -10.874,14.674c0.842,7.317 7.073,12.61 13.921,11.823Z" style="fill:#6bb77a;fill-rule:nonzero;"/><path d="M118.325,176.813c6.848,-0.788 11.715,-7.357 10.874,-14.674c-0.841,-7.316 -7.073,-12.61 -13.921,-11.823c-6.849,0.788 -11.726,7.359 -10.885,14.676c0.842,7.317 7.084,12.609 13.932,11.822Z" style="fill:#6bb77a;fill-rule:nonzero;"/><path d="M123.994,78.853c6.848,-0.788 11.715,-7.357 10.874,-14.673c-0.842,-7.317 -7.073,-12.61 -13.921,-11.823c-6.849,0.788 -11.726,7.358 -10.885,14.676c0.841,7.316 7.083,12.608 13.932,11.82Z" style="fill:#6bb77a;fill-rule:nonzero;"/><path d="M141.399,82.555c6.849,-0.788 11.716,-7.358 10.874,-14.674c-0.842,-7.317 -7.073,-12.61 -13.921,-11.823c-6.848,0.788 -11.715,7.357 -10.874,14.674c0.841,7.316 7.073,12.61 13.921,11.823Z" style="fill:#6bb77a;fill-rule:nonzero;"/><path d="M163.421,169.478c6.848,-0.788 11.715,-7.358 10.874,-14.674c-0.842,-7.317 -7.073,-12.61 -13.921,-11.823c-6.849,0.788 -11.726,7.358 -10.885,14.676c0.841,7.316 7.084,12.609 13.932,11.822Z" style="fill:#6bb77a;fill-rule:nonzero;"/><path d="M143.329,173.937c23.749,-2.731 40.195,-29.285 36.742,-59.309c-3.453,-30.026 -25.498,-52.153 -49.247,-49.422c-23.749,2.731 -40.207,29.286 -36.754,59.312c3.453,30.025 25.509,52.15 49.258,49.419Z" style="fill:#6bb77a;fill-rule:nonzero;"/></g><g><path d="M53.198,98.391c8.566,-0.985 14.709,-8.774 13.717,-17.399c-0.992,-8.623 -8.743,-14.815 -17.309,-13.83c-8.577,0.986 -14.721,8.776 -13.729,17.399c0.992,8.624 8.743,14.816 17.32,13.829Z" style="fill:#44ad59;fill-rule:nonzero;"/><path d="M110.084,92.981c8.577,-0.986 14.721,-8.776 13.729,-17.4c-0.992,-8.623 -8.743,-14.815 -17.32,-13.828c-8.566,0.985 -14.709,8.774 -13.718,17.398c0.992,8.624 8.743,14.816 17.309,13.831Z" style="fill:#44ad59;fill-rule:nonzero;"/><path d="M34.48,107.422c8.566,-0.985 14.709,-8.774 13.718,-17.398c-0.992,-8.624 -8.743,-14.816 -17.309,-13.831c-8.566,0.985 -14.71,8.774 -13.718,17.399c0.992,8.623 8.743,14.815 17.309,13.829Z" style="fill:#44ad59;fill-rule:nonzero;"/><path d="M127.555,108.12c8.566,-0.985 14.709,-8.774 13.718,-17.398c-0.992,-8.624 -8.743,-14.816 -17.309,-13.831c-8.577,0.986 -14.721,8.776 -13.729,17.4c0.992,8.623 8.743,14.815 17.32,13.828Z" style="fill:#44ad59;fill-rule:nonzero;"/><path d="M34.727,130.812c8.566,-0.985 14.709,-8.774 13.717,-17.399c-0.992,-8.623 -8.743,-14.815 -17.309,-13.829c-8.577,0.986 -14.721,8.776 -13.729,17.399c0.992,8.624 8.743,14.816 17.32,13.829Z" style="fill:#44ad59;fill-rule:nonzero;"/><path d="M138.137,131.453c8.566,-0.985 14.709,-8.776 13.717,-17.399c-0.992,-8.623 -8.743,-14.815 -17.309,-13.83c-8.577,0.986 -14.721,8.776 -13.729,17.399c0.992,8.623 8.743,14.816 17.32,13.829Z" style="fill:#44ad59;fill-rule:nonzero;"/><path d="M33.67,157.125c8.566,-0.985 14.709,-8.774 13.718,-17.398c-0.992,-8.623 -8.743,-14.816 -17.309,-13.831c-8.577,0.986 -14.72,8.777 -13.729,17.4c0.992,8.623 8.743,14.815 17.32,13.828Z" style="fill:#44ad59;fill-rule:nonzero;"/><path d="M137.288,150.659c8.566,-0.985 14.71,-8.774 13.718,-17.398c-0.992,-8.624 -8.743,-14.816 -17.309,-13.831c-8.577,0.986 -14.72,8.776 -13.728,17.4c0.992,8.623 8.743,14.815 17.32,13.828Z" style="fill:#44ad59;fill-rule:nonzero;"/><path d="M44.132,177.19c8.577,-0.986 14.72,-8.777 13.729,-17.4c-0.992,-8.623 -8.743,-14.816 -17.32,-13.829c-8.566,0.985 -14.709,8.776 -13.717,17.399c0.992,8.623 8.743,14.816 17.309,13.831Z" style="fill:#44ad59;fill-rule:nonzero;"/><path d="M134.923,172.194c8.566,-0.985 14.709,-8.774 13.717,-17.399c-0.992,-8.623 -8.743,-14.815 -17.309,-13.829c-8.577,0.986 -14.721,8.776 -13.729,17.399c0.992,8.624 8.743,14.816 17.32,13.829Z" style="fill:#44ad59;fill-rule:nonzero;"/><path d="M59.405,196.699c8.566,-0.985 14.71,-8.776 13.718,-17.399c-0.992,-8.623 -8.743,-14.815 -17.309,-13.829c-8.576,0.986 -14.72,8.776 -13.728,17.399c0.992,8.623 8.743,14.816 17.32,13.829Z" style="fill:#44ad59;fill-rule:nonzero;"/><path d="M70.33,82.553c8.566,-0.985 14.71,-8.774 13.718,-17.398c-0.992,-8.624 -8.743,-14.816 -17.309,-13.831c-8.577,0.986 -14.72,8.776 -13.728,17.4c0.992,8.623 8.743,14.815 17.32,13.828Z" style="fill:#44ad59;fill-rule:nonzero;"/><path d="M89.034,85.328c8.577,-0.986 14.72,-8.777 13.729,-17.4c-0.992,-8.623 -8.743,-14.816 -17.32,-13.829c-8.566,0.985 -14.709,8.776 -13.717,17.399c0.992,8.623 8.743,14.816 17.309,13.831Z" style="fill:#44ad59;fill-rule:nonzero;"/><path d="M122.03,191.619c8.566,-0.985 14.709,-8.774 13.718,-17.398c-0.992,-8.624 -8.743,-14.816 -17.309,-13.831c-8.577,0.986 -14.721,8.776 -13.729,17.4c0.992,8.623 8.743,14.815 17.32,13.828Z" style="fill:#44ad59;fill-rule:nonzero;"/><path d="M90.697,193.101c29.728,-3.419 50.519,-34.876 46.449,-70.263c-4.07,-35.387 -31.459,-61.303 -61.186,-57.885c-29.717,3.418 -50.508,34.875 -46.438,70.262c4.07,35.387 31.459,61.303 61.176,57.886Z" style="fill:#44ad59;fill-rule:nonzero;"/></g></g></g></g></svg>