<?xml version="1.0" encoding="UTF-8" standalone="no"?><!DOCTYPE svg PUBLIC "-//W3C//DTD SVG 1.1//EN" "http://www.w3.org/Graphics/SVG/1.1/DTD/svg11.dtd"><svg width="100%" height="100%" viewBox="0 0 243 243" version="1.1" xmlns="http://www.w3.org/2000/svg" xmlns:xlink="http://www.w3.org/1999/xlink" xml:space="preserve" xmlns:serif="http://www.serif.com/" style="fill-rule:evenodd;clip-rule:evenodd;stroke-linejoin:round;stroke-miterlimit:2;"><path d="M121.31,242.622c67,0 121.31,-54.313 121.31,-121.311c0,-66.998 -54.31,-121.311 -121.31,-121.311c-67,0 -121.31,54.313 -121.31,121.311c0,66.998 54.31,121.311 121.31,121.311Z" style="fill:#e1f3fa;fill-rule:nonzero;"/><clipPath id="_clip1"><path d="M121.31,242.622c67,0 121.31,-54.313 121.31,-121.311c0,-66.998 -54.31,-121.311 -121.31,-121.311c-67,0 -121.31,54.313 -121.31,121.311c0,66.998 54.31,121.311 121.31,121.311Z" clip-rule="nonzero"/></clipPath><g clip-path="url(#_clip1)"><g opacity="0.56"><rect x="-25.27" y="33.322" width="314" height="59" style="fill:#9e9f90;fill-opacity:0.45;"/><g><path d="M122.66,52.549l-26.5,10.994l-14.49,181.447l40.99,0l0,-192.441Z" style="fill:#7b7459;fill-rule:nonzero;"/><path d="M122.66,52.549l26.84,10.235l13.79,182.206l-40.63,0l0,-192.441Z" style="fill:#454334;fill-rule:nonzero;"/><path d="M123.68,161.075c-0.56,-1.152 -1.47,-1.152 -2.04,0l-39.74,81.411c-0.56,1.153 -0.08,2.086 1.08,2.086l79.37,0c1.15,0 1.64,-0.934 1.08,-2.086l-39.75,-81.411Z" style="fill:#706854;fill-rule:nonzero;"/><path d="M70.33,52.549l-28.63,15.641l-41.13,160.703l41,0l28.76,-176.344Z" style="fill:#7b7459;fill-rule:nonzero;"/><path d="M70.33,52.549l26.13,10.994l-14.27,176.618l-62.85,0l50.99,-187.612Z" style="fill:#454334;fill-rule:nonzero;"/><path d="M42.6,161.072c-0.57,-1.148 -1.49,-1.148 -2.06,0l-39.73,80.216c-0.57,1.148 -0.09,2.08 1.07,2.08l79.37,0c1.16,0 1.64,-0.931 1.07,-2.08l-39.72,-80.216Z" style="fill:#706854;fill-rule:nonzero;"/><path d="M17.5,52.549l-26.5,0l-70.65,176.344l41,0l56.15,-176.344Z" style="fill:#7b7459;fill-rule:nonzero;"/><path d="M17.5,52.549l24.71,14.836l-40.24,161.508l-77.43,0l92.96,-176.344Z" style="fill:#454334;fill-rule:nonzero;"/><path d="M-37.47,161.027c-0.65,-1.088 -1.71,-1.088 -2.37,0l-39.5,65.895c-0.65,1.089 -0.24,1.972 0.92,1.972l79.54,0c1.16,0 1.57,-0.882 0.91,-1.972l-39.5,-65.895Z" style="fill:#706854;fill-rule:nonzero;"/><path d="M227.19,52.549l26.5,0l70.65,176.344l-41,0l-56.15,-176.344Z" style="fill:#454334;fill-rule:nonzero;"/><path d="M227.19,52.549l-24.01,14.882l39.53,161.463l77.44,0l-92.96,-176.344Z" style="fill:#7b7459;fill-rule:nonzero;"/><path d="M282.16,161.027c0.65,-1.088 1.71,-1.088 2.36,0l39.51,65.895c0.65,1.089 0.24,1.972 -0.92,1.972l-79.54,0c-1.16,0 -1.57,-0.882 -0.92,-1.972l39.51,-65.895Z" style="fill:#706854;fill-rule:nonzero;"/><path d="M174.96,52.549l28.62,14.882l41.13,161.463l-41,0l-28.75,-176.344Z" style="fill:#454334;fill-rule:nonzero;"/><path d="M174.96,52.549l-26.13,10.235l13.55,174.157l62.85,0l-50.27,-184.392Z" style="fill:#7b7459;fill-rule:nonzero;"/><path d="M202.63,161.057c0.6,-1.128 1.57,-1.128 2.17,0l39.65,74.561c0.6,1.128 0.14,2.041 -1.02,2.041l-79.43,0c-1.16,0 -1.62,-0.913 -1.02,-2.041l39.65,-74.561Z" style="fill:#706854;fill-rule:nonzero;"/></g></g></g></svg>