<?xml version="1.0" encoding="UTF-8" standalone="no"?><!DOCTYPE svg PUBLIC "-//W3C//DTD SVG 1.1//EN" "http://www.w3.org/Graphics/SVG/1.1/DTD/svg11.dtd"><svg width="100%" height="100%" viewBox="0 0 243 243" version="1.1" xmlns="http://www.w3.org/2000/svg" xmlns:xlink="http://www.w3.org/1999/xlink" xml:space="preserve" xmlns:serif="http://www.serif.com/" style="fill-rule:evenodd;clip-rule:evenodd;stroke-linecap:round;stroke-miterlimit:2;"><path d="M121.31,242.626c67,0 121.31,-54.316 121.31,-121.315c0,-66.998 -54.31,-121.311 -121.31,-121.311c-67,0 -121.31,54.313 -121.31,121.311c0,66.999 54.31,121.315 121.31,121.315Z" style="fill:#defaff;fill-rule:nonzero;"/><clipPath id="_clip1"><path d="M121.31,242.626c67,0 121.31,-54.316 121.31,-121.315c0,-66.998 -54.31,-121.311 -121.31,-121.311c-67,0 -121.31,54.313 -121.31,121.311c0,66.999 54.31,121.315 121.31,121.315Z" clip-rule="nonzero"/></clipPath><g clip-path="url(#_clip1)"><rect x="-16.133" y="197.276" width="269" height="63" style="fill:#92cf9e;"/></g><path d="M120.348,189.852c0,0 64.046,-12.064 64.046,-62.565c0,-50.503 -45.535,-123.28 -64.046,-123.449c-22.211,-0.202 -64.046,72.947 -64.046,123.449c0,50.501 64.046,62.565 64.046,62.565Z" style="fill:#92d66d;fill-rule:nonzero;"/><path d="M100.518,85.197l19.311,22.504m30.878,-1.515l-29.804,32.998m-38.749,-15.007l37.348,37.011m0.847,-105.223l0,164.048" style="fill:none;stroke:#776e5c;stroke-width:10px;"/></svg>