<?xml version="1.0" encoding="UTF-8" standalone="no"?><!DOCTYPE svg PUBLIC "-//W3C//DTD SVG 1.1//EN" "http://www.w3.org/Graphics/SVG/1.1/DTD/svg11.dtd"><svg width="100%" height="100%" viewBox="0 0 243 243" version="1.1" xmlns="http://www.w3.org/2000/svg" xmlns:xlink="http://www.w3.org/1999/xlink" xml:space="preserve" xmlns:serif="http://www.serif.com/" style="fill-rule:evenodd;clip-rule:evenodd;stroke-linecap:round;stroke-miterlimit:2;"><path d="M121.31,242.626c67,0 121.31,-54.316 121.31,-121.315c0,-66.998 -54.31,-121.311 -121.31,-121.311c-67,0 -121.31,54.313 -121.31,121.311c0,66.999 54.31,121.315 121.31,121.315Z" style="fill:#defaff;fill-rule:nonzero;"/><clipPath id="_clip1"><path d="M121.31,242.626c67,0 121.31,-54.316 121.31,-121.315c0,-66.998 -54.31,-121.311 -121.31,-121.311c-67,0 -121.31,54.313 -121.31,121.311c0,66.999 54.31,121.315 121.31,121.315Z" clip-rule="nonzero"/></clipPath><g clip-path="url(#_clip1)"><rect x="-16.133" y="192.583" width="377.632" height="56.693" style="fill:#e7c6a7;"/></g><g><path d="M121.327,187.914c0,0 39.217,-9.075 39.217,-47.072c0,-37.996 -27.878,-92.752 -39.217,-92.879c-13.592,-0.153 -39.206,54.883 -39.206,92.879c0,37.996 39.206,47.072 39.206,47.072Z" style="fill:#88ea24;fill-opacity:0.63;fill-rule:nonzero;"/><path d="M108.995,110.958l12.674,15.756m17.414,6.666l-16.55,18.526m-24.023,-3.578l22.903,21.184m0.673,-84.196l0,131.268" style="fill:#88ea24;stroke:#817f7b;stroke-width:8px;"/></g></svg>