<?xml version="1.0" encoding="UTF-8" standalone="no"?><!DOCTYPE svg PUBLIC "-//W3C//DTD SVG 1.1//EN" "http://www.w3.org/Graphics/SVG/1.1/DTD/svg11.dtd"><svg width="100%" height="100%" viewBox="0 0 243 243" version="1.1" xmlns="http://www.w3.org/2000/svg" xmlns:xlink="http://www.w3.org/1999/xlink" xml:space="preserve" xmlns:serif="http://www.serif.com/" style="fill-rule:evenodd;clip-rule:evenodd;stroke-linejoin:round;stroke-miterlimit:2;"><path d="M121.32,242.622c66.99,0 121.31,-54.313 121.31,-121.311c0,-66.998 -54.32,-121.311 -121.31,-121.311c-67,0 -121.32,54.313 -121.32,121.311c0,66.998 54.32,121.311 121.32,121.311Z" style="fill:#defaff;fill-rule:nonzero;"/><clipPath id="_clip1"><path d="M121.32,242.622c66.99,0 121.31,-54.313 121.31,-121.311c0,-66.998 -54.32,-121.311 -121.31,-121.311c-67,0 -121.32,54.313 -121.32,121.311c0,66.998 54.32,121.311 121.32,121.311Z" clip-rule="nonzero"/></clipPath><g clip-path="url(#_clip1)"><g><path d="M171.727,61.709c-0.184,0.48 -1.547,2.834 -1.663,3.178c-0.097,0.272 -1.75,2.411 -1.953,2.846c-0.087,0.179 -0.812,0.945 -0.812,0.945c-0.058,-0.569 0.077,-1.201 0,-1.755c-0.184,-0.728 -0.155,-1.205 -0.271,-1.89c-0.077,-0.703 -0.184,-1.443 -0.271,-2.159c-0.097,-1.013 -0.213,-1.935 -0.271,-2.97c-0.348,-5.032 -0.271,-9.819 0,-14.848c0.058,-1.191 0.203,-2.347 0.271,-3.51c0.077,-1.015 0.164,-1.961 0.271,-2.969c0.077,-0.839 0.174,-1.602 0.271,-2.43c0.087,-0.742 0.165,-1.416 0.271,-2.16c0.077,-0.571 0.184,-1.074 0.271,-1.62c0.087,-0.544 0.184,-1.089 0.271,-1.621c0.077,-0.446 0.193,-0.923 0.271,-1.35c0.039,-0.25 -0.068,-0.599 0,-0.809l-0.271,0c-0.184,0.344 -0.261,0.252 -0.271,0.27c-1.74,4.323 -3.848,8.427 -5.666,12.689c-1.19,2.912 -2.427,5.968 -3.51,8.909c-0.271,0.701 -0.551,1.456 -0.812,2.16c-0.184,0.513 -0.406,0.978 -0.541,1.35c-0.097,0.262 -0.174,0.535 -0.271,0.81c-0.087,0.262 -0.174,0.537 -0.271,0.809c-0.087,0.264 -0.174,0.538 -0.271,0.809c-0.087,0.264 -0.174,0.541 -0.271,0.81c-0.087,0.265 -0.174,0.544 -0.271,0.81c-0.087,0.264 -0.184,0.549 -0.271,0.809c-0.087,0.266 -0.184,0.554 -0.261,0.81c-0.087,0.268 -0.193,0.558 -0.271,0.81c-0.087,0.273 -0.194,0.556 -0.271,0.81c-0.106,0.33 -0.145,0.667 -0.271,1.08c-0.087,0.275 -0.203,0.572 -0.271,0.809c-0.106,0.346 -0.164,0.701 -0.271,1.08c-0.087,0.274 -0.203,0.571 -0.271,0.809c-0.097,0.344 -0.164,0.703 -0.271,1.08c-0.097,0.352 -0.155,0.697 -0.271,1.08c-0.077,0.274 -0.203,0.574 -0.271,0.81c-0.106,0.37 0.029,0.466 -0.271,1.08c-0.077,0.345 0.164,1.149 -0.135,1.35c-1.025,0.204 -0.522,-0.6 -0.667,-0.81c-0.532,-0.756 -0.339,-0.735 -0.542,-1.35c-0.242,-0.467 -0.184,-0.577 -0.271,-0.81c-0.126,-0.322 -0.174,-0.538 -0.271,-0.809c-0.106,-0.285 -0.174,-0.542 -0.271,-0.81c-0.106,-0.288 -0.174,-0.516 -0.271,-0.81c-0.126,-0.396 -0.165,-0.726 -0.271,-1.08c-0.068,-0.246 -0.184,-0.522 -0.271,-0.809c-0.097,-0.37 -0.174,-0.717 -0.271,-1.08c-0.087,-0.366 -0.174,-0.707 -0.271,-1.08c-0.077,-0.352 -0.184,-0.705 -0.271,-1.08c-0.097,-0.468 -0.174,-0.892 -0.261,-1.35c-0.097,-0.458 -0.184,-0.887 -0.271,-1.35c-0.087,-0.446 -0.194,-0.882 -0.271,-1.35c-0.077,-0.431 -0.203,-0.878 -0.271,-1.35c-0.106,-0.646 -0.184,-1.243 -0.271,-1.889c-0.097,-0.726 -0.184,-1.429 -0.271,-2.16c-0.087,-0.715 -0.193,-1.423 -0.271,-2.16c-0.097,-1.001 -0.193,-1.96 -0.271,-2.969c-0.106,-1.641 -0.213,-3.209 -0.271,-4.86c-0.155,-3.903 -0.145,-7.436 0,-11.339c0.058,-1.651 0.165,-3.22 0.271,-4.86c0.077,-0.991 0.193,-1.997 0.271,-2.969c0.087,-0.81 0.184,-1.63 0.271,-2.43l0,-2.43l-0.271,0c-0.338,1.413 -0.87,2.049 -1.354,3.24c-0.435,1.174 -0.919,2.352 -1.344,3.51c-0.126,0.318 -0.261,0.511 -0.271,0.54c-0.097,0.252 -0.164,0.523 -0.271,0.81c-0.097,0.254 -0.165,0.527 -0.271,0.809c-0.097,0.258 -0.165,0.531 -0.271,0.81c-0.097,0.258 -0.174,0.534 -0.271,0.809c-0.087,0.26 -0.174,0.54 -0.271,0.81c-0.135,0.393 -0.261,0.512 -0.271,0.54c-0.087,0.265 -0.174,0.544 -0.271,0.81c-0.087,0.266 -0.174,0.547 -0.261,0.81c-0.097,0.265 -0.193,0.551 -0.271,0.809c-0.087,0.267 -0.193,0.557 -0.271,0.81c-0.087,0.27 -0.194,0.559 -0.271,0.81c-0.106,0.338 -0.155,0.691 -0.271,1.08c-0.087,0.272 -0.203,0.569 -0.271,0.809c-0.087,0.274 -0.203,0.572 -0.271,0.81c-0.097,0.344 -0.164,0.703 -0.271,1.08c-0.087,0.313 -0.222,0.65 -0.271,0.809c-0.097,0.347 -0.174,0.716 -0.271,1.08c-0.087,0.326 -0.232,0.663 -0.271,0.81c-0.087,0.349 -0.174,0.718 -0.271,1.08c-0.087,0.351 -0.174,0.721 -0.271,1.079c-0.087,0.354 -0.174,0.726 -0.261,1.08c-0.097,0.354 -0.184,0.73 -0.271,1.08c-0.097,0.357 -0.184,0.731 -0.271,1.08c-0.087,0.36 -0.184,0.729 -0.271,1.08c-0.106,0.436 -0.155,0.878 -0.271,1.35c-0.087,0.358 -0.193,0.736 -0.271,1.08c-0.106,0.436 -0.164,0.885 -0.271,1.35c-0.106,0.437 -0.165,0.889 -0.271,1.35c-0.097,0.441 -0.165,0.889 -0.271,1.35c-0.097,0.44 -0.165,0.892 -0.271,1.35c-0.097,0.444 -0.164,0.89 -0.271,1.35c-0.116,0.529 -0.135,1.041 -0.271,1.62c-0.077,0.363 -0.193,0.748 -0.271,1.08c-0.097,0.446 -0.164,0.89 -0.261,1.35c-0.097,0.365 -0.184,0.721 -0.271,1.08c-0.116,0.444 -0.145,0.858 -0.271,1.35c-0.097,0.382 -0.165,0.698 -0.271,1.08c-0.097,0.35 -0.174,0.714 -0.271,1.08c-0.106,0.385 -0.135,0.643 -0.271,1.08c-0.097,0.3 -0.164,0.518 -0.271,0.809c-0.097,0.275 0.029,0.31 -0.271,0.81c-1.092,3.079 -0.889,0.862 -1.083,-0.81c-0.174,-0.807 -0.145,-1.397 -0.271,-2.159c-0.087,-0.626 -0.174,-1.263 -0.261,-1.89c-0.097,-0.631 -0.184,-1.257 -0.271,-1.889c-0.106,-0.726 -0.174,-1.444 -0.271,-2.16c-0.087,-0.622 -0.184,-1.261 -0.271,-1.889c-0.097,-0.722 -0.174,-1.445 -0.271,-2.16c-0.087,-0.62 -0.184,-1.261 -0.271,-1.89c-0.087,-0.619 -0.184,-1.26 -0.271,-1.889c-0.097,-0.723 -0.174,-1.444 -0.271,-2.16c-0.087,-0.617 -0.184,-1.261 -0.271,-1.889c-0.097,-0.722 -0.174,-1.444 -0.271,-2.16c-0.077,-0.617 -0.184,-1.26 -0.271,-1.89c-0.077,-0.616 -0.184,-1.26 -0.271,-1.889c-0.087,-0.718 -0.174,-1.444 -0.261,-2.16c-0.087,-0.616 -0.193,-1.259 -0.271,-1.889c-0.097,-0.719 -0.184,-1.444 -0.271,-2.16c-0.097,-0.717 -0.184,-1.443 -0.271,-2.16c-0.087,-0.613 -0.194,-1.26 -0.271,-1.889c-0.097,-0.717 -0.174,-1.443 -0.271,-2.16c-0.077,-0.612 -0.193,-1.26 -0.271,-1.889c-0.097,-0.716 -0.174,-1.443 -0.271,-2.16c-0.087,-0.716 -0.174,-1.443 -0.271,-2.16c-0.087,-0.714 -0.174,-1.442 -0.271,-2.16c-0.087,-0.715 -0.174,-1.442 -0.271,-2.159c-0.087,-0.714 -0.174,-1.441 -0.271,-2.16c-0.087,-0.714 -0.174,-1.443 -0.271,-2.16c-0.068,-0.605 -0.184,-1.26 -0.261,-1.889c-0.097,-0.716 -0.184,-1.438 -0.271,-2.16c-0.058,-0.495 -0.213,-1.067 -0.271,-1.62c-0.039,-0.385 -0.29,-0.871 -0.271,-1.62l-0.271,0c-0.019,0.624 -0.251,1.154 -0.271,1.35c-0.068,0.726 -0.203,1.468 -0.271,2.16c-0.097,0.9 -0.165,1.795 -0.271,2.699c-0.077,0.724 -0.184,1.451 -0.271,2.16c-0.087,0.721 -0.184,1.45 -0.271,2.16c-0.087,0.719 -0.184,1.45 -0.271,2.159c-0.087,0.719 -0.184,1.449 -0.271,2.16c-0.077,0.631 -0.193,1.284 -0.271,1.89c-0.087,0.717 -0.174,1.448 -0.261,2.16c-0.106,0.805 -0.174,1.616 -0.271,2.429c-0.097,0.718 -0.184,1.447 -0.271,2.16c-0.097,0.718 -0.184,1.446 -0.271,2.16c-0.077,0.63 -0.194,1.281 -0.271,1.89c-0.087,0.717 -0.184,1.446 -0.271,2.159c-0.087,0.718 -0.174,1.444 -0.271,2.16c-0.087,0.717 -0.174,1.444 -0.271,2.16c-0.087,0.717 -0.174,1.443 -0.271,2.159c-0.077,0.63 -0.184,1.277 -0.271,1.89c-0.087,0.716 -0.174,1.443 -0.271,2.159c-0.087,0.718 -0.174,1.442 -0.271,2.16c-0.087,0.716 -0.174,1.443 -0.271,2.16c-0.077,0.629 -0.184,1.275 -0.261,1.889c-0.097,0.717 -0.174,1.441 -0.271,2.16c-0.097,0.717 -0.174,1.439 -0.271,2.16c-0.097,0.718 -0.174,1.436 -0.271,2.159c-0.087,0.631 -0.184,1.27 -0.271,1.89c-0.097,0.723 -0.164,1.426 -0.271,2.16c-0.106,0.718 -0.164,1.425 -0.271,2.16c-0.106,0.665 -0.116,1.192 -0.271,1.889c-0.087,0.469 0.261,1.374 -0.271,1.62l-0.271,0c-0.561,-0.176 -0.435,-1.076 -0.542,-1.35c-0.203,-0.438 -0.164,-0.52 -0.261,-0.81c-0.097,-0.281 -0.184,-0.509 -0.271,-0.809c-0.164,-0.468 -0.164,-0.702 -0.271,-1.08c-0.106,-0.376 -0.174,-0.722 -0.271,-1.08c-0.106,-0.378 -0.184,-0.705 -0.271,-1.08c-0.087,-0.358 -0.184,-0.707 -0.271,-1.08c-0.126,-0.482 -0.164,-0.906 -0.271,-1.35c-0.087,-0.353 -0.184,-0.713 -0.271,-1.08c-0.097,-0.456 -0.174,-0.907 -0.271,-1.35c-0.097,-0.457 -0.174,-0.909 -0.271,-1.349c-0.126,-0.574 -0.145,-1.097 -0.271,-1.621c-0.097,-0.46 -0.164,-0.911 -0.271,-1.35c-0.106,-0.464 -0.165,-0.91 -0.271,-1.35c-0.106,-0.464 -0.165,-0.913 -0.261,-1.35c-0.116,-0.468 -0.174,-0.914 -0.271,-1.35c-0.087,-0.345 -0.184,-0.722 -0.271,-1.08c-0.116,-0.473 -0.164,-0.912 -0.271,-1.35c-0.087,-0.349 -0.184,-0.719 -0.271,-1.08c-0.087,-0.347 -0.184,-0.723 -0.271,-1.08c-0.087,-0.35 -0.184,-0.725 -0.271,-1.08c-0.087,-0.353 -0.184,-0.727 -0.271,-1.08c-0.087,-0.358 -0.174,-0.726 -0.271,-1.079c-0.029,-0.13 -0.184,-0.481 -0.271,-0.81c-0.097,-0.362 -0.174,-0.729 -0.271,-1.08c-0.097,-0.364 -0.174,-0.732 -0.271,-1.08c-0.039,-0.159 -0.174,-0.492 -0.271,-0.809c-0.048,-0.172 -0.174,-0.5 -0.261,-0.81c-0.116,-0.38 -0.174,-0.737 -0.271,-1.08c-0.077,-0.241 -0.193,-0.536 -0.271,-0.809c-0.077,-0.244 -0.194,-0.537 -0.271,-0.81c-0.077,-0.246 -0.184,-0.539 -0.271,-0.81c-0.126,-0.41 -0.165,-0.755 -0.271,-1.08c-0.077,-0.254 -0.184,-0.543 -0.271,-0.809c-0.087,-0.26 -0.184,-0.544 -0.271,-0.81c-0.087,-0.263 -0.184,-0.544 -0.271,-0.81c-0.01,-0.028 -0.135,-0.139 -0.271,-0.54c-0.087,-0.264 -0.174,-0.548 -0.271,-0.81c-0.087,-0.27 -0.174,-0.547 -0.271,-0.809c-0.087,-0.275 -0.174,-0.547 -0.261,-0.81c-0.097,-0.276 -0.184,-0.546 -0.271,-0.809c-0.097,-0.276 -0.184,-0.552 -0.271,-0.81c-0.01,-0.029 -0.145,-0.19 -0.271,-0.54c-0.106,-0.283 -0.174,-0.556 -0.271,-0.81c-0.106,-0.286 -0.174,-0.559 -0.271,-0.81c-0.164,-0.43 -0.367,-0.908 -0.541,-1.35c-0.097,-0.279 -0.174,-0.556 -0.271,-0.81c-0.155,-0.423 -0.368,-0.905 -0.542,-1.35c-0.135,-0.353 -0.213,-0.683 -0.271,-0.81c-0.193,-0.429 -0.193,-0.66 -0.271,-0.809c-0.184,-0.399 -0.242,-0.774 -0.261,-0.809c-0.019,-0.03 -0.377,-0.217 -0.406,-0.541c-0.213,0.046 -0.145,0.615 -0.135,0.81c0,0.055 0.251,0.439 0.271,1.08c0.126,1.026 0.174,1.952 0.271,2.969c0.087,1.257 0.184,2.514 0.261,3.78c0.106,1.906 0.222,3.751 0.271,5.669c0.087,3.075 0.087,5.834 0,8.909c-0.048,2.014 -0.145,3.934 -0.271,5.94c-0.077,1.099 -0.164,2.147 -0.261,3.24c-0.077,0.827 -0.184,1.619 -0.271,2.429c-0.087,0.732 -0.184,1.441 -0.271,2.16c-0.087,0.647 -0.174,1.252 -0.271,1.89c-0.087,0.561 -0.184,1.075 -0.271,1.62c-0.097,0.549 -0.174,1.07 -0.271,1.62c-0.087,0.463 -0.174,0.897 -0.271,1.35c-0.097,0.456 -0.174,0.891 -0.271,1.35c-0.077,0.373 -0.193,0.736 -0.271,1.08c-0.087,0.378 -0.174,0.715 -0.271,1.08c-0.087,0.365 -0.164,0.71 -0.271,1.08c-0.087,0.343 -0.222,0.641 -0.271,0.809c-0.097,0.366 -0.145,0.682 -0.271,1.08c-0.087,0.29 -0.165,0.53 -0.261,0.81c-0.097,0.273 -0.174,0.528 -0.271,0.81c-0.097,0.275 -0.155,0.511 -0.271,0.809c-0.097,0.242 -0.077,0.383 -0.271,0.81c-0.213,0.613 -0.116,1.697 -0.812,2.16l-0.271,0c-0.542,-0.148 -0.145,-1 -0.271,-1.35c-0.165,-0.477 -0.165,-0.693 -0.271,-1.08c-0.097,-0.378 -0.174,-0.709 -0.271,-1.08c-0.087,-0.345 -0.174,-0.748 -0.271,-1.08c-0.048,-0.172 -0.174,-0.504 -0.271,-0.81c-0.106,-0.379 -0.164,-0.733 -0.261,-1.08c-0.077,-0.236 -0.193,-0.535 -0.271,-0.809c-0.077,-0.241 -0.193,-0.535 -0.271,-0.809c-0.135,-0.414 -0.164,-0.75 -0.271,-1.08c-0.077,-0.254 -0.184,-0.537 -0.271,-0.81c-0.077,-0.251 -0.184,-0.541 -0.271,-0.81c-0.087,-0.257 -0.184,-0.539 -0.271,-0.81c-0.087,-0.256 -0.184,-0.541 -0.271,-0.809c-0.087,-0.259 -0.184,-0.544 -0.271,-0.81c-0.087,-0.263 -0.174,-0.546 -0.271,-0.81c-0.087,-0.268 -0.174,-0.546 -0.271,-0.809c-0.087,-0.272 -0.174,-0.547 -0.271,-0.809c-0.087,-0.274 -0.174,-0.55 -0.261,-0.81c-0.106,-0.277 -0.184,-0.551 -0.271,-0.81c-0.106,-0.279 -0.184,-0.553 -0.271,-0.81c-0.01,-0.028 -0.146,-0.198 -0.271,-0.54c-0.107,-0.281 -0.174,-0.553 -0.271,-0.81c-0.164,-0.428 -0.367,-0.891 -0.542,-1.35c-0.242,-0.619 -0.376,-1.215 -0.54,-1.62c-0.339,-0.875 -0.725,-1.814 -1.083,-2.7c-2.05,-5.102 -5.444,-10.731 -7.281,-15.658l-0.272,0c0.02,0.262 -0.047,0.552 0,0.809c0.059,0.411 0.195,0.891 0.272,1.35c0.116,0.668 0.173,1.234 0.271,1.89c0.087,0.634 0.183,1.242 0.261,1.889c0.106,0.737 0.193,1.41 0.271,2.16c0.105,0.914 0.193,1.776 0.271,2.7c0.115,1.193 0.203,2.31 0.271,3.51c0.126,2.006 0.242,3.92 0.271,5.939c0.038,1.979 0.047,3.688 0,5.67c-0.048,1.752 -0.145,3.388 -0.271,5.129c-0.087,1.003 -0.165,1.969 -0.271,2.97c-0.087,0.722 -0.175,1.441 -0.271,2.159c-0.107,0.609 -0.068,0.964 -0.271,1.62c-0.078,0.33 0.232,1.004 -0.261,1.08l-0.271,0c-0.523,-0.073 -0.174,-0.782 -0.272,-1.08c-0.376,-0.815 -0.337,-1.074 -0.54,-1.62c-0.106,-0.284 -0.175,-0.549 -0.271,-0.81c-0.156,-0.409 -0.368,-0.919 -0.542,-1.349c-4.429,-10.25 -10.945,-19.305 -18.091,-27.808c-0.512,-0.546 -0.503,-0.676 -0.803,-1.08c-0.019,-0.015 -0.088,0.029 -0.271,-0.27c-0.069,-0.027 -0.174,0.015 -0.272,0c-0.019,0.162 -0.029,0.385 0,0.54c0.107,0.202 0.175,0.344 0.272,0.54c0.01,0.017 0.097,-0.081 0.271,0.27c1.372,2.667 2.126,4.165 3.239,7.02c0.193,0.465 0.348,0.895 0.531,1.35c0.242,0.631 0.368,1.137 0.542,1.62c0.01,0.028 0.145,0.189 0.271,0.541c0.126,0.315 0.173,0.553 0.271,0.809c0.116,0.294 0.173,0.546 0.271,0.81c0.105,0.288 0.174,0.543 0.271,0.809c0.105,0.284 0.174,0.541 0.271,0.81c0.097,0.277 0.174,0.537 0.271,0.81c0.087,0.271 0.174,0.535 0.27,0.81c0.088,0.263 0.185,0.533 0.271,0.809c0.078,0.257 0.185,0.535 0.272,0.81c0.077,0.255 0.183,0.532 0.271,0.81c0.077,0.25 0.183,0.527 0.261,0.809c0.115,0.388 0.174,0.726 0.271,1.08c0.058,0.185 0.184,0.486 0.271,0.809c0.105,0.378 0.174,0.72 0.271,1.08c0.038,0.145 0.184,0.464 0.27,0.81c0.098,0.369 0.175,0.72 0.271,1.08c0.098,0.366 0.175,0.716 0.272,1.08c0.087,0.361 0.183,0.712 0.271,1.08c0.087,0.351 0.183,0.711 0.271,1.08c0.077,0.343 0.184,0.71 0.271,1.08c0.077,0.336 0.184,0.709 0.271,1.079c0.105,0.467 0.164,0.902 0.271,1.35c0.097,0.461 0.164,0.905 0.261,1.35c0.106,0.461 0.184,0.9 0.27,1.351c0.107,0.548 0.175,1.085 0.271,1.62c0.107,0.55 0.175,1.089 0.272,1.62c0.126,0.66 0.155,1.264 0.271,1.889c0.135,0.603 0.183,1.662 0.271,1.89c0.019,0.043 0.416,0.458 0.405,0.81l100.898,-0.27c-0.184,-0.706 0.135,-1.27 0.271,-1.89c0.126,-0.607 0.145,-1.23 0.271,-1.89c0.106,-0.516 0.174,-1.079 0.271,-1.62c0.106,-0.528 0.155,-1.063 0.271,-1.62c0.087,-0.461 0.174,-0.888 0.271,-1.35c0.097,-0.446 0.174,-0.893 0.271,-1.35c0.097,-0.451 0.164,-0.885 0.271,-1.35c0.097,-0.447 0.164,-0.883 0.271,-1.351c0.077,-0.365 0.184,-0.739 0.271,-1.079c0.077,-0.368 0.184,-0.733 0.261,-1.08c0.097,-0.369 0.184,-0.721 0.271,-1.08c0.097,-0.365 0.184,-0.716 0.271,-1.08c0.097,-0.36 0.174,-0.713 0.271,-1.08c0.097,-0.349 0.232,-0.668 0.271,-0.809c0.097,-0.361 0.165,-0.705 0.271,-1.08c0.077,-0.286 0.203,-0.569 0.271,-0.81c0.106,-0.354 0.155,-0.689 0.271,-1.079c0.087,-0.284 0.193,-0.565 0.271,-0.81c0.087,-0.281 0.938,-3.429 0.948,-3.456" style="fill:#92cf9e;fill-rule:nonzero;"/><path d="M77.067,65.295c-0.185,0.48 -1.547,2.835 -1.663,3.179c-0.097,0.272 -1.75,2.411 -1.953,2.845c-0.087,0.18 -0.812,0.945 -0.812,0.945c-0.058,-0.568 0.077,-1.201 0,-1.755c-0.184,-0.727 -0.155,-1.204 -0.271,-1.889c-0.078,-0.704 -0.184,-1.443 -0.271,-2.16c-0.097,-1.012 -0.213,-1.935 -0.272,-2.969c-0.357,-5.033 -0.271,-9.82 0,-14.849c0.059,-1.19 0.195,-2.347 0.272,-3.51c0.077,-1.015 0.165,-1.96 0.271,-2.969c0.077,-0.838 0.173,-1.602 0.271,-2.43c0.087,-0.741 0.163,-1.417 0.271,-2.16c0.077,-0.569 0.184,-1.073 0.271,-1.62c0.086,-0.544 0.184,-1.089 0.271,-1.62c0.076,-0.447 0.193,-0.924 0.27,-1.35c0.039,-0.251 -0.067,-0.6 0,-0.81l-0.27,0c-0.185,0.345 -0.261,0.253 -0.271,0.27c-1.74,4.323 -3.848,8.427 -5.676,12.689c-1.18,2.913 -2.417,5.968 -3.5,8.909c-0.271,0.701 -0.551,1.456 -0.812,2.16c-0.184,0.514 -0.406,0.979 -0.542,1.35c-0.096,0.262 -0.173,0.536 -0.271,0.81c-0.096,0.263 -0.173,0.537 -0.27,0.809c-0.087,0.265 -0.174,0.539 -0.271,0.81c-0.087,0.264 -0.175,0.541 -0.271,0.81c-0.087,0.264 -0.175,0.544 -0.271,0.809c-0.087,0.265 -0.184,0.549 -0.271,0.81c-0.088,0.266 -0.184,0.554 -0.271,0.81c-0.078,0.268 -0.184,0.557 -0.261,0.809c-0.087,0.273 -0.193,0.557 -0.272,0.81c-0.105,0.33 -0.144,0.668 -0.271,1.08c-0.086,0.275 -0.203,0.572 -0.27,0.81c-0.106,0.345 -0.165,0.7 -0.271,1.079c-0.087,0.274 -0.203,0.572 -0.271,0.81c-0.106,0.343 -0.165,0.703 -0.271,1.08c-0.098,0.351 -0.155,0.697 -0.271,1.08c-0.078,0.273 -0.203,0.574 -0.271,0.809c-0.106,0.37 0.019,0.467 -0.272,1.08c-0.076,0.345 0.165,1.149 -0.134,1.35c-1.025,0.205 -0.522,-0.599 -0.677,-0.809c-0.522,-0.756 -0.329,-0.736 -0.532,-1.35c-0.242,-0.468 -0.184,-0.577 -0.271,-0.81c-0.127,-0.323 -0.174,-0.538 -0.271,-0.81c-0.106,-0.284 -0.174,-0.541 -0.271,-0.809c-0.106,-0.289 -0.174,-0.517 -0.272,-0.81c-0.125,-0.397 -0.163,-0.726 -0.271,-1.08c-0.076,-0.246 -0.183,-0.523 -0.27,-0.809c-0.097,-0.37 -0.175,-0.717 -0.271,-1.08c-0.097,-0.366 -0.185,-0.707 -0.271,-1.08c-0.077,-0.353 -0.184,-0.705 -0.271,-1.08c-0.107,-0.469 -0.174,-0.892 -0.271,-1.35c-0.098,-0.458 -0.174,-0.888 -0.261,-1.35c-0.088,-0.447 -0.193,-0.883 -0.271,-1.351c-0.077,-0.43 -0.203,-0.878 -0.272,-1.349c-0.105,-0.647 -0.183,-1.243 -0.271,-1.89c-0.096,-0.726 -0.183,-1.429 -0.27,-2.16c-0.087,-0.714 -0.204,-1.423 -0.271,-2.159c-0.097,-1.002 -0.193,-1.961 -0.271,-2.97c-0.117,-1.641 -0.213,-3.208 -0.271,-4.86c-0.155,-3.903 -0.155,-7.436 0,-11.338c0.058,-1.65 0.163,-3.22 0.271,-4.86c0.077,-0.992 0.193,-1.997 0.271,-2.97c0.086,-0.809 0.184,-1.629 0.271,-2.43l0,-2.429l-0.271,0c-0.339,1.413 -0.871,2.048 -1.355,3.239c-0.434,1.174 -0.927,2.352 -1.343,3.51c-0.127,0.318 -0.261,0.511 -0.271,0.54c-0.098,0.253 -0.164,0.524 -0.271,0.81c-0.097,0.254 -0.164,0.528 -0.271,0.81c-0.097,0.257 -0.174,0.53 -0.272,0.809c-0.096,0.259 -0.173,0.535 -0.271,0.81c-0.086,0.259 -0.173,0.54 -0.27,0.809c-0.135,0.393 -0.261,0.512 -0.271,0.54c-0.087,0.264 -0.175,0.544 -0.271,0.81c-0.087,0.266 -0.184,0.546 -0.271,0.809c-0.088,0.266 -0.184,0.552 -0.271,0.81c-0.088,0.267 -0.184,0.556 -0.261,0.81c-0.087,0.27 -0.193,0.558 -0.272,0.809c-0.105,0.338 -0.154,0.691 -0.271,1.08c-0.086,0.273 -0.202,0.569 -0.27,0.809c-0.087,0.275 -0.204,0.572 -0.271,0.81c-0.106,0.344 -0.165,0.704 -0.271,1.08c-0.087,0.314 -0.222,0.65 -0.271,0.81c-0.098,0.347 -0.174,0.716 -0.271,1.08c-0.088,0.325 -0.232,0.662 -0.271,0.809c-0.097,0.35 -0.174,0.719 -0.271,1.08c-0.087,0.352 -0.174,0.722 -0.272,1.08c-0.086,0.354 -0.173,0.725 -0.271,1.08c-0.086,0.354 -0.183,0.729 -0.27,1.08c-0.087,0.357 -0.185,0.73 -0.261,1.08c-0.097,0.359 -0.185,0.729 -0.271,1.079c-0.106,0.436 -0.156,0.879 -0.271,1.351c-0.088,0.358 -0.193,0.736 -0.271,1.079c-0.107,0.437 -0.164,0.886 -0.271,1.35c-0.106,0.438 -0.164,0.889 -0.272,1.35c-0.096,0.441 -0.163,0.889 -0.271,1.35c-0.096,0.44 -0.163,0.893 -0.27,1.351c-0.097,0.444 -0.164,0.89 -0.271,1.35c-0.116,0.529 -0.135,1.041 -0.271,1.62c-0.077,0.362 -0.193,0.748 -0.271,1.08c-0.097,0.446 -0.164,0.889 -0.271,1.35c-0.087,0.365 -0.174,0.72 -0.261,1.08c-0.116,0.444 -0.145,0.858 -0.271,1.35c-0.097,0.381 -0.164,0.698 -0.271,1.08c-0.097,0.35 -0.174,0.713 -0.271,1.08c-0.106,0.384 -0.135,0.643 -0.271,1.079c-0.097,0.301 -0.164,0.519 -0.271,0.81c-0.097,0.275 0.029,0.31 -0.271,0.81c-1.093,3.079 -0.89,0.862 -1.083,-0.81c-0.174,-0.808 -0.145,-1.398 -0.271,-2.16c-0.087,-0.626 -0.174,-1.262 -0.271,-1.889c-0.087,-0.631 -0.174,-1.258 -0.261,-1.89c-0.106,-0.726 -0.174,-1.443 -0.271,-2.16c-0.087,-0.622 -0.184,-1.261 -0.271,-1.889c-0.106,-0.722 -0.174,-1.445 -0.271,-2.16c-0.087,-0.62 -0.184,-1.261 -0.271,-1.889c-0.087,-0.62 -0.184,-1.26 -0.271,-1.89c-0.097,-0.723 -0.174,-1.443 -0.271,-2.159c-0.087,-0.618 -0.184,-1.261 -0.271,-1.89c-0.097,-0.722 -0.174,-1.444 -0.271,-2.16c-0.077,-0.616 -0.184,-1.26 -0.271,-1.889c-0.077,-0.617 -0.184,-1.261 -0.271,-1.889c-0.097,-0.719 -0.174,-1.445 -0.271,-2.16c-0.077,-0.616 -0.184,-1.26 -0.271,-1.89c-0.087,-0.718 -0.174,-1.443 -0.261,-2.159c-0.097,-0.718 -0.184,-1.444 -0.271,-2.16c-0.087,-0.613 -0.193,-1.261 -0.271,-1.89c-0.097,-0.717 -0.184,-1.443 -0.271,-2.159c-0.077,-0.613 -0.193,-1.261 -0.271,-1.89c-0.097,-0.716 -0.184,-1.443 -0.271,-2.159c-0.097,-0.717 -0.174,-1.443 -0.271,-2.16c-0.087,-0.716 -0.184,-1.442 -0.271,-2.16c-0.087,-0.714 -0.174,-1.443 -0.271,-2.16c-0.087,-0.714 -0.184,-1.441 -0.271,-2.159c-0.087,-0.715 -0.174,-1.444 -0.271,-2.16c-0.068,-0.606 -0.193,-1.26 -0.271,-1.89c-0.087,-0.716 -0.174,-1.437 -0.261,-2.159c-0.068,-0.495 -0.213,-1.068 -0.271,-1.621c-0.039,-0.384 -0.29,-0.87 -0.271,-1.62l-0.271,0c-0.019,0.625 -0.251,1.154 -0.271,1.35c-0.068,0.727 -0.203,1.469 -0.271,2.16c-0.097,0.9 -0.174,1.795 -0.271,2.7c-0.087,0.723 -0.184,1.45 -0.271,2.16c-0.087,0.72 -0.184,1.45 -0.271,2.16c-0.087,0.718 -0.184,1.45 -0.271,2.159c-0.087,0.719 -0.184,1.449 -0.271,2.16c-0.077,0.631 -0.193,1.283 -0.271,1.889c-0.087,0.718 -0.174,1.448 -0.271,2.16c-0.097,0.805 -0.164,1.617 -0.261,2.43c-0.097,0.718 -0.184,1.447 -0.271,2.16c-0.097,0.717 -0.184,1.447 -0.271,2.16c-0.087,0.629 -0.193,1.28 -0.271,1.889c-0.097,0.717 -0.184,1.447 -0.271,2.159c-0.097,0.719 -0.184,1.445 -0.271,2.16c-0.097,0.718 -0.174,1.444 -0.271,2.16c-0.097,0.717 -0.174,1.444 -0.271,2.16c-0.077,0.629 -0.193,1.277 -0.271,1.889c-0.087,0.717 -0.174,1.444 -0.271,2.16c-0.087,0.717 -0.174,1.442 -0.271,2.16c-0.087,0.716 -0.174,1.442 -0.271,2.159c-0.077,0.63 -0.184,1.275 -0.271,1.89c-0.087,0.717 -0.174,1.44 -0.261,2.16c-0.097,0.716 -0.174,1.438 -0.271,2.159c-0.097,0.718 -0.174,1.436 -0.271,2.16c-0.087,0.631 -0.184,1.27 -0.271,1.889c-0.106,0.723 -0.164,1.427 -0.271,2.16c-0.106,0.718 -0.164,1.425 -0.271,2.16c-0.106,0.665 -0.126,1.193 -0.271,1.889c-0.087,0.47 0.261,1.374 -0.271,1.621l-0.271,0c-0.561,-0.177 -0.435,-1.076 -0.541,-1.35c-0.203,-0.439 -0.164,-0.521 -0.271,-0.81c-0.097,-0.282 -0.174,-0.509 -0.271,-0.81c-0.155,-0.467 -0.164,-0.702 -0.261,-1.079c-0.106,-0.376 -0.174,-0.723 -0.271,-1.08c-0.106,-0.378 -0.184,-0.705 -0.271,-1.08c-0.087,-0.358 -0.184,-0.708 -0.271,-1.08c-0.126,-0.483 -0.164,-0.907 -0.271,-1.35c-0.087,-0.354 -0.184,-0.713 -0.271,-1.08c-0.097,-0.457 -0.174,-0.908 -0.271,-1.35c-0.106,-0.458 -0.174,-0.91 -0.271,-1.35c-0.126,-0.573 -0.155,-1.097 -0.271,-1.62c-0.106,-0.46 -0.164,-0.912 -0.271,-1.351c-0.106,-0.463 -0.164,-0.91 -0.271,-1.35c-0.106,-0.464 -0.164,-0.912 -0.271,-1.35c-0.106,-0.467 -0.164,-0.913 -0.261,-1.35c-0.087,-0.345 -0.184,-0.722 -0.271,-1.079c-0.116,-0.474 -0.164,-0.913 -0.271,-1.351c-0.087,-0.349 -0.184,-0.719 -0.271,-1.079c-0.087,-0.348 -0.184,-0.724 -0.271,-1.08c-0.087,-0.35 -0.184,-0.725 -0.271,-1.08c-0.087,-0.353 -0.184,-0.728 -0.271,-1.08c-0.097,-0.359 -0.174,-0.727 -0.271,-1.08c-0.029,-0.13 -0.184,-0.48 -0.271,-0.809c-0.097,-0.363 -0.174,-0.729 -0.271,-1.08c-0.097,-0.364 -0.174,-0.733 -0.271,-1.08c-0.039,-0.16 -0.174,-0.492 -0.271,-0.81c-0.048,-0.171 -0.174,-0.499 -0.271,-0.81c-0.106,-0.379 -0.164,-0.736 -0.261,-1.08c-0.077,-0.24 -0.193,-0.535 -0.271,-0.809c-0.077,-0.243 -0.193,-0.536 -0.271,-0.81c-0.077,-0.245 -0.193,-0.538 -0.271,-0.809c-0.126,-0.41 -0.164,-0.755 -0.271,-1.08c-0.087,-0.254 -0.184,-0.543 -0.271,-0.81c-0.087,-0.26 -0.184,-0.543 -0.271,-0.809c-0.087,-0.264 -0.184,-0.545 -0.271,-0.81c-0.01,-0.028 -0.135,-0.139 -0.271,-0.54c-0.087,-0.263 -0.174,-0.547 -0.271,-0.809c-0.087,-0.27 -0.174,-0.548 -0.271,-0.81c-0.097,-0.275 -0.174,-0.546 -0.271,-0.809c-0.097,-0.276 -0.174,-0.547 -0.271,-0.81c-0.097,-0.275 -0.174,-0.551 -0.261,-0.81c-0.019,-0.028 -0.145,-0.19 -0.271,-0.54c-0.106,-0.282 -0.174,-0.555 -0.271,-0.81c-0.106,-0.286 -0.174,-0.559 -0.271,-0.809c-0.164,-0.43 -0.367,-0.909 -0.542,-1.351c-0.106,-0.278 -0.174,-0.556 -0.271,-0.809c-0.155,-0.423 -0.367,-0.905 -0.541,-1.35c-0.145,-0.353 -0.213,-0.683 -0.271,-0.81c-0.193,-0.429 -0.203,-0.66 -0.271,-0.809c-0.184,-0.4 -0.242,-0.774 -0.271,-0.81c-0.01,-0.029 -0.367,-0.217 -0.396,-0.54c-0.213,0.045 -0.145,0.614 -0.135,0.809c0,0.056 0.251,0.439 0.261,1.08c0.135,1.027 0.184,1.952 0.271,2.969c0.097,1.258 0.193,2.514 0.271,3.78c0.106,1.906 0.222,3.752 0.271,5.67c0.087,3.074 0.087,5.833 0,8.909c-0.048,2.013 -0.145,3.933 -0.271,5.94c-0.077,1.099 -0.164,2.146 -0.271,3.239c-0.068,0.828 -0.174,1.62 -0.271,2.43c-0.077,0.732 -0.174,1.44 -0.261,2.16c-0.087,0.647 -0.184,1.252 -0.271,1.889c-0.087,0.561 -0.184,1.076 -0.271,1.62c-0.097,0.55 -0.174,1.071 -0.271,1.621c-0.087,0.462 -0.184,0.896 -0.271,1.35c-0.097,0.456 -0.174,0.89 -0.271,1.35c-0.077,0.372 -0.193,0.735 -0.271,1.08c-0.087,0.377 -0.174,0.714 -0.271,1.08c-0.097,0.365 -0.174,0.709 -0.271,1.08c-0.087,0.342 -0.222,0.64 -0.271,0.809c-0.097,0.366 -0.145,0.682 -0.271,1.08c-0.087,0.289 -0.174,0.53 -0.271,0.81c-0.087,0.272 -0.164,0.527 -0.261,0.809c-0.106,0.275 -0.164,0.511 -0.271,0.81c-0.097,0.242 -0.077,0.383 -0.271,0.81c-0.213,0.612 -0.116,1.697 -0.812,2.159l-0.271,0c-0.541,-0.147 -0.155,-0.999 -0.271,-1.35c-0.164,-0.476 -0.164,-0.693 -0.271,-1.08c-0.106,-0.378 -0.174,-0.708 -0.271,-1.08c-0.087,-0.344 -0.174,-0.748 -0.271,-1.079c-0.048,-0.172 -0.174,-0.504 -0.271,-0.81c-0.106,-0.379 -0.164,-0.733 -0.271,-1.08c-0.068,-0.236 -0.184,-0.536 -0.261,-0.809c-0.077,-0.241 -0.193,-0.536 -0.271,-0.81c-0.135,-0.413 -0.174,-0.75 -0.271,-1.08c-0.087,-0.254 -0.184,-0.537 -0.271,-0.81c-0.077,-0.251 -0.184,-0.541 -0.271,-0.809c-0.087,-0.258 -0.184,-0.539 -0.271,-0.81c-0.087,-0.256 -0.184,-0.542 -0.271,-0.81c-0.087,-0.259 -0.184,-0.543 -0.271,-0.809c-0.087,-0.263 -0.184,-0.547 -0.271,-0.81c-0.087,-0.268 -0.174,-0.546 -0.271,-0.81c-0.087,-0.271 -0.174,-0.546 -0.271,-0.809c-0.097,-0.273 -0.174,-0.549 -0.271,-0.81c-0.097,-0.276 -0.174,-0.551 -0.261,-0.809c-0.106,-0.28 -0.184,-0.553 -0.271,-0.81c-0.019,-0.028 -0.145,-0.199 -0.271,-0.541c-0.106,-0.281 -0.174,-0.552 -0.271,-0.809c-0.164,-0.429 -0.367,-0.891 -0.541,-1.35c-0.242,-0.619 -0.377,-1.215 -0.542,-1.62c-0.338,-0.876 -0.725,-1.814 -1.083,-2.701c-2.05,-5.102 -5.444,-10.731 -7.29,-15.658l-0.261,0c0.019,0.263 -0.048,0.552 0,0.81c0.058,0.411 0.193,0.891 0.261,1.35c0.126,0.667 0.184,1.234 0.271,1.889c0.097,0.635 0.193,1.242 0.271,1.89c0.106,0.736 0.193,1.41 0.271,2.159c0.106,0.914 0.193,1.776 0.271,2.7c0.116,1.194 0.193,2.311 0.271,3.51c0.126,2.007 0.242,3.92 0.271,5.94c0.039,1.979 0.048,3.687 0,5.669c-0.048,1.752 -0.145,3.389 -0.271,5.13c-0.087,1.002 -0.164,1.968 -0.271,2.969c-0.087,0.722 -0.174,1.441 -0.271,2.16c-0.106,0.609 -0.068,0.964 -0.271,1.62c-0.077,0.329 0.232,1.004 -0.271,1.08l-0.271,0c-0.512,-0.073 -0.164,-0.783 -0.261,-1.08c-0.377,-0.816 -0.338,-1.075 -0.542,-1.62c-0.106,-0.284 -0.174,-0.549 -0.271,-0.81c-0.155,-0.41 -0.377,-0.919 -0.542,-1.35c-4.428,-10.25 -10.945,-19.305 -18.091,-27.807c-0.512,-0.547 -0.503,-0.677 -0.812,-1.08c-0.01,-0.016 -0.077,0.029 -0.261,-0.27c-0.068,-0.028 -0.174,0.016 -0.271,0c-0.019,0.162 -0.039,0.385 0,0.54c0.106,0.203 0.174,0.345 0.271,0.54c0,0.017 0.087,-0.082 0.261,0.27c1.383,2.666 2.137,4.165 3.249,7.019c0.193,0.465 0.348,0.895 0.532,1.351c0.242,0.63 0.367,1.137 0.542,1.62c0.01,0.028 0.145,0.189 0.271,0.54c0.126,0.316 0.174,0.553 0.271,0.81c0.106,0.293 0.174,0.545 0.271,0.81c0.106,0.288 0.174,0.542 0.271,0.809c0.097,0.283 0.174,0.54 0.271,0.81c0.097,0.276 0.174,0.537 0.271,0.809c0.087,0.272 0.174,0.535 0.271,0.81c0.087,0.264 0.174,0.533 0.271,0.81c0.077,0.256 0.184,0.534 0.261,0.809c0.087,0.255 0.193,0.532 0.271,0.81c0.077,0.251 0.193,0.528 0.271,0.81c0.116,0.388 0.174,0.725 0.271,1.079c0.058,0.185 0.184,0.487 0.271,0.81c0.106,0.377 0.174,0.72 0.271,1.08c0.039,0.144 0.184,0.463 0.271,0.81c0.097,0.368 0.174,0.72 0.271,1.079c0.097,0.366 0.174,0.717 0.271,1.08c0.087,0.361 0.184,0.712 0.271,1.08c0.087,0.351 0.184,0.712 0.271,1.08c0.077,0.343 0.184,0.711 0.271,1.08c0.068,0.337 0.184,0.709 0.271,1.08c0.106,0.466 0.164,0.902 0.261,1.35c0.106,0.46 0.174,0.904 0.271,1.35c0.106,0.461 0.174,0.899 0.271,1.35c0.106,0.549 0.174,1.085 0.271,1.62c0.106,0.551 0.174,1.09 0.271,1.62c0.126,0.66 0.155,1.264 0.271,1.89c0.135,0.602 0.184,1.662 0.271,1.89c0.019,0.042 0.406,0.458 0.406,0.809l100.896,-0.27c-0.183,-0.705 0.136,-1.27 0.271,-1.89c0.127,-0.606 0.136,-1.23 0.272,-1.889c0.106,-0.517 0.165,-1.079 0.271,-1.62c0.106,-0.528 0.154,-1.064 0.271,-1.62c0.087,-0.462 0.163,-0.888 0.271,-1.351c0.096,-0.445 0.164,-0.892 0.271,-1.35c0.096,-0.451 0.164,-0.884 0.271,-1.35c0.097,-0.446 0.155,-0.883 0.271,-1.35c0.077,-0.365 0.184,-0.739 0.26,-1.08c0.088,-0.367 0.195,-0.732 0.271,-1.079c0.088,-0.37 0.185,-0.721 0.272,-1.08c0.097,-0.365 0.173,-0.717 0.271,-1.08c0.097,-0.361 0.173,-0.714 0.271,-1.08c0.097,-0.349 0.232,-0.669 0.271,-0.81c0.096,-0.36 0.164,-0.704 0.271,-1.08c0.076,-0.285 0.203,-0.569 0.271,-0.81c0.106,-0.353 0.155,-0.688 0.27,-1.079c0.078,-0.283 0.195,-0.565 0.271,-0.81c0.078,-0.28 0.929,-3.428 0.948,-3.456" style="fill:#92cf9e;fill-rule:nonzero;"/><path d="M262.143,65.295c-0.174,0.48 -1.537,2.835 -1.653,3.179c-0.097,0.272 -1.76,2.411 -1.963,2.845c-0.077,0.18 -0.803,0.945 -0.803,0.945c-0.058,-0.568 0.077,-1.201 0,-1.755c-0.184,-0.727 -0.164,-1.204 -0.271,-1.889c-0.087,-0.704 -0.184,-1.443 -0.271,-2.16c-0.097,-1.012 -0.223,-1.935 -0.271,-2.969c-0.358,-5.033 -0.28,-9.82 0,-14.849c0.048,-1.19 0.193,-2.347 0.271,-3.51c0.077,-1.015 0.164,-1.96 0.271,-2.969c0.077,-0.838 0.165,-1.602 0.271,-2.43c0.087,-0.741 0.155,-1.417 0.271,-2.16c0.068,-0.569 0.174,-1.073 0.261,-1.62c0.087,-0.544 0.193,-1.089 0.271,-1.62c0.087,-0.447 0.193,-0.924 0.271,-1.35c0.048,-0.251 -0.058,-0.6 0,-0.81l-0.271,0c-0.174,0.345 -0.261,0.253 -0.271,0.27c-1.74,4.323 -3.848,8.427 -5.666,12.689c-1.18,2.913 -2.417,5.968 -3.51,8.909c-0.271,0.701 -0.551,1.456 -0.812,2.16c-0.184,0.514 -0.406,0.979 -0.532,1.35c-0.097,0.262 -0.174,0.536 -0.271,0.81c-0.097,0.263 -0.174,0.537 -0.271,0.809c-0.097,0.265 -0.174,0.539 -0.271,0.81c-0.097,0.264 -0.184,0.541 -0.271,0.81c-0.087,0.264 -0.184,0.544 -0.271,0.809c-0.087,0.265 -0.184,0.549 -0.271,0.81c-0.087,0.266 -0.184,0.554 -0.271,0.81c-0.087,0.268 -0.193,0.557 -0.271,0.809c-0.087,0.273 -0.184,0.557 -0.271,0.81c-0.097,0.33 -0.135,0.668 -0.271,1.08c-0.077,0.275 -0.193,0.572 -0.271,0.81c-0.097,0.345 -0.155,0.7 -0.271,1.079c-0.077,0.274 -0.193,0.572 -0.261,0.81c-0.106,0.343 -0.164,0.703 -0.271,1.08c-0.106,0.351 -0.164,0.697 -0.271,1.08c-0.087,0.273 -0.203,0.574 -0.271,0.809c-0.106,0.37 0.019,0.467 -0.271,1.08c-0.077,0.345 0.164,1.149 -0.135,1.35c-1.025,0.205 -0.532,-0.599 -0.677,-0.809c-0.532,-0.756 -0.329,-0.736 -0.542,-1.35c-0.232,-0.468 -0.174,-0.577 -0.271,-0.81c-0.126,-0.323 -0.164,-0.538 -0.271,-0.81c-0.097,-0.284 -0.174,-0.541 -0.261,-0.809c-0.106,-0.289 -0.184,-0.517 -0.271,-0.81c-0.126,-0.397 -0.165,-0.726 -0.271,-1.08c-0.077,-0.246 -0.193,-0.523 -0.271,-0.809c-0.097,-0.37 -0.174,-0.717 -0.271,-1.08c-0.097,-0.366 -0.184,-0.707 -0.271,-1.08c-0.087,-0.353 -0.184,-0.705 -0.271,-1.08c-0.106,-0.469 -0.174,-0.892 -0.271,-1.35c-0.097,-0.458 -0.184,-0.888 -0.271,-1.35c-0.087,-0.447 -0.184,-0.883 -0.271,-1.351c-0.068,-0.43 -0.194,-0.878 -0.271,-1.349c-0.097,-0.647 -0.174,-1.243 -0.271,-1.89c-0.097,-0.726 -0.174,-1.429 -0.271,-2.16c-0.077,-0.714 -0.193,-1.423 -0.261,-2.159c-0.106,-1.002 -0.193,-1.961 -0.271,-2.97c-0.116,-1.641 -0.213,-3.208 -0.271,-4.86c-0.155,-3.903 -0.155,-7.436 0,-11.338c0.058,-1.65 0.155,-3.22 0.271,-4.86c0.068,-0.992 0.193,-1.997 0.271,-2.97c0.077,-0.809 0.184,-1.629 0.261,-2.43c0.01,-0.806 0,-1.623 0,-2.429l-0.261,0c-0.339,1.413 -0.87,2.048 -1.354,3.239c-0.435,1.174 -0.928,2.352 -1.354,3.51c-0.116,0.318 -0.251,0.511 -0.271,0.54c-0.097,0.253 -0.155,0.524 -0.261,0.81c-0.097,0.254 -0.174,0.528 -0.271,0.81c-0.097,0.257 -0.174,0.53 -0.271,0.809c-0.097,0.259 -0.174,0.535 -0.271,0.81c-0.097,0.259 -0.184,0.54 -0.271,0.809c-0.135,0.393 -0.261,0.512 -0.271,0.54c-0.087,0.264 -0.184,0.544 -0.271,0.81c-0.087,0.266 -0.184,0.546 -0.271,0.809c-0.087,0.266 -0.184,0.552 -0.271,0.81c-0.087,0.267 -0.184,0.556 -0.271,0.81c-0.087,0.27 -0.194,0.558 -0.271,0.809c-0.106,0.338 -0.145,0.691 -0.271,1.08c-0.077,0.273 -0.193,0.569 -0.271,0.809c-0.077,0.275 -0.193,0.572 -0.261,0.81c-0.106,0.344 -0.164,0.704 -0.271,1.08c-0.097,0.314 -0.232,0.65 -0.271,0.81c-0.097,0.347 -0.174,0.716 -0.271,1.08c-0.087,0.325 -0.232,0.662 -0.271,0.809c-0.097,0.35 -0.174,0.719 -0.271,1.08c-0.097,0.352 -0.174,0.722 -0.271,1.08c-0.087,0.354 -0.184,0.725 -0.271,1.08c-0.087,0.354 -0.184,0.729 -0.271,1.08c-0.087,0.357 -0.184,0.73 -0.271,1.08c-0.087,0.359 -0.184,0.729 -0.271,1.079c-0.106,0.436 -0.155,0.879 -0.271,1.351c-0.087,0.358 -0.184,0.736 -0.271,1.079c-0.097,0.437 -0.155,0.886 -0.261,1.35c-0.106,0.438 -0.174,0.889 -0.271,1.35c-0.106,0.441 -0.174,0.889 -0.271,1.35c-0.106,0.44 -0.174,0.893 -0.271,1.351c-0.097,0.444 -0.174,0.89 -0.271,1.35c-0.116,0.529 -0.135,1.041 -0.271,1.62c-0.077,0.362 -0.193,0.748 -0.271,1.08c-0.097,0.446 -0.164,0.889 -0.271,1.35c-0.087,0.365 -0.174,0.72 -0.271,1.08c-0.106,0.444 -0.135,0.858 -0.271,1.35c-0.087,0.381 -0.165,0.698 -0.271,1.08c-0.097,0.35 -0.165,0.713 -0.271,1.08c-0.097,0.384 -0.126,0.643 -0.271,1.079c-0.087,0.301 -0.164,0.519 -0.261,0.81c-0.106,0.275 0.029,0.31 -0.271,0.81c-1.102,3.079 -0.889,0.862 -1.083,-0.81c-0.184,-0.808 -0.145,-1.398 -0.271,-2.16c-0.087,-0.626 -0.174,-1.262 -0.271,-1.889c-0.097,-0.631 -0.174,-1.258 -0.271,-1.89c-0.097,-0.726 -0.164,-1.443 -0.271,-2.16c-0.087,-0.622 -0.184,-1.261 -0.271,-1.889c-0.097,-0.722 -0.164,-1.445 -0.271,-2.16c-0.077,-0.62 -0.184,-1.261 -0.271,-1.889c-0.077,-0.62 -0.184,-1.26 -0.261,-1.89c-0.106,-0.723 -0.174,-1.443 -0.271,-2.159c-0.087,-0.618 -0.184,-1.261 -0.271,-1.89c-0.097,-0.722 -0.174,-1.444 -0.271,-2.16c-0.087,-0.616 -0.184,-1.26 -0.271,-1.889c-0.087,-0.617 -0.184,-1.261 -0.271,-1.889c-0.097,-0.719 -0.174,-1.445 -0.271,-2.16c-0.077,-0.616 -0.184,-1.26 -0.271,-1.89c-0.097,-0.718 -0.174,-1.443 -0.271,-2.159c-0.097,-0.718 -0.174,-1.444 -0.271,-2.16c-0.077,-0.613 -0.184,-1.261 -0.271,-1.89c-0.087,-0.717 -0.174,-1.443 -0.271,-2.159c-0.077,-0.613 -0.184,-1.261 -0.261,-1.89c-0.097,-0.716 -0.184,-1.443 -0.271,-2.159c-0.097,-0.717 -0.184,-1.443 -0.271,-2.16c-0.097,-0.716 -0.184,-1.442 -0.271,-2.16c-0.097,-0.714 -0.184,-1.443 -0.271,-2.16c-0.087,-0.714 -0.184,-1.441 -0.271,-2.159c-0.087,-0.715 -0.184,-1.444 -0.271,-2.16c-0.077,-0.606 -0.194,-1.26 -0.271,-1.89c-0.087,-0.716 -0.184,-1.437 -0.271,-2.159c-0.058,-0.495 -0.213,-1.068 -0.271,-1.621c-0.039,-0.384 -0.28,-0.87 -0.271,-1.62l-0.271,0c-0.01,0.625 -0.251,1.154 -0.271,1.35c-0.058,0.727 -0.193,1.469 -0.261,2.16c-0.106,0.9 -0.174,1.795 -0.271,2.7c-0.087,0.723 -0.194,1.45 -0.271,2.16c-0.087,0.72 -0.184,1.45 -0.271,2.16c-0.087,0.718 -0.184,1.45 -0.271,2.159c-0.087,0.719 -0.184,1.449 -0.271,2.16c-0.077,0.631 -0.193,1.283 -0.271,1.889c-0.087,0.718 -0.184,1.448 -0.271,2.16c-0.097,0.805 -0.164,1.617 -0.271,2.43c-0.087,0.718 -0.184,1.447 -0.271,2.16c-0.087,0.717 -0.174,1.447 -0.271,2.16c-0.077,0.629 -0.194,1.28 -0.271,1.889c-0.087,0.717 -0.174,1.447 -0.261,2.159c-0.097,0.719 -0.184,1.445 -0.271,2.16c-0.097,0.718 -0.184,1.444 -0.271,2.16c-0.097,0.717 -0.184,1.444 -0.271,2.16c-0.087,0.629 -0.193,1.277 -0.271,1.889c-0.097,0.717 -0.174,1.444 -0.271,2.16c-0.097,0.717 -0.174,1.442 -0.271,2.16c-0.097,0.716 -0.174,1.442 -0.271,2.159c-0.087,0.63 -0.184,1.275 -0.271,1.89c-0.097,0.717 -0.174,1.44 -0.271,2.16c-0.097,0.716 -0.174,1.438 -0.271,2.159c-0.097,0.718 -0.164,1.436 -0.271,2.16c-0.077,0.631 -0.184,1.27 -0.271,1.889c-0.097,0.723 -0.155,1.427 -0.261,2.16c-0.106,0.718 -0.164,1.425 -0.271,2.16c-0.116,0.665 -0.126,1.193 -0.271,1.889c-0.087,0.47 0.261,1.374 -0.271,1.621l-0.271,0c-0.571,-0.177 -0.435,-1.076 -0.542,-1.35c-0.203,-0.439 -0.174,-0.521 -0.271,-0.81c-0.097,-0.282 -0.184,-0.509 -0.271,-0.81c-0.155,-0.467 -0.164,-0.702 -0.271,-1.079c-0.106,-0.376 -0.174,-0.723 -0.271,-1.08c-0.097,-0.378 -0.174,-0.705 -0.271,-1.08c-0.087,-0.358 -0.184,-0.708 -0.271,-1.08c-0.116,-0.483 -0.155,-0.907 -0.261,-1.35c-0.087,-0.354 -0.184,-0.713 -0.271,-1.08c-0.106,-0.457 -0.174,-0.908 -0.271,-1.35c-0.106,-0.458 -0.174,-0.91 -0.271,-1.35c-0.135,-0.573 -0.155,-1.097 -0.271,-1.62c-0.106,-0.46 -0.174,-0.912 -0.271,-1.351c-0.106,-0.463 -0.164,-0.91 -0.271,-1.35c-0.106,-0.464 -0.165,-0.912 -0.271,-1.35c-0.106,-0.467 -0.165,-0.913 -0.271,-1.35c-0.077,-0.345 -0.184,-0.722 -0.271,-1.079c-0.116,-0.474 -0.164,-0.913 -0.271,-1.351c-0.077,-0.349 -0.184,-0.719 -0.271,-1.079c-0.077,-0.348 -0.174,-0.724 -0.271,-1.08c-0.077,-0.35 -0.174,-0.725 -0.261,-1.08c-0.097,-0.353 -0.184,-0.728 -0.271,-1.08c-0.097,-0.359 -0.184,-0.727 -0.271,-1.08c-0.039,-0.13 -0.184,-0.48 -0.271,-0.809c-0.097,-0.363 -0.174,-0.729 -0.271,-1.08c-0.097,-0.364 -0.174,-0.733 -0.271,-1.08c-0.048,-0.16 -0.184,-0.492 -0.271,-0.81c-0.048,-0.171 -0.184,-0.499 -0.271,-0.81c-0.106,-0.379 -0.164,-0.736 -0.271,-1.08c-0.068,-0.24 -0.184,-0.535 -0.271,-0.809c-0.068,-0.243 -0.184,-0.536 -0.271,-0.81c-0.068,-0.245 -0.184,-0.538 -0.271,-0.809c-0.126,-0.41 -0.165,-0.755 -0.271,-1.08c-0.077,-0.254 -0.174,-0.543 -0.261,-0.81c-0.087,-0.26 -0.184,-0.543 -0.271,-0.809c-0.087,-0.264 -0.184,-0.545 -0.271,-0.81c-0.01,-0.028 -0.135,-0.139 -0.271,-0.54c-0.087,-0.263 -0.184,-0.547 -0.271,-0.809c-0.097,-0.27 -0.184,-0.548 -0.271,-0.81c-0.097,-0.275 -0.174,-0.546 -0.271,-0.809c-0.097,-0.276 -0.174,-0.547 -0.271,-0.81c-0.097,-0.275 -0.174,-0.551 -0.271,-0.81c-0.01,-0.028 -0.135,-0.19 -0.271,-0.54c-0.097,-0.282 -0.174,-0.555 -0.271,-0.81c-0.106,-0.286 -0.174,-0.559 -0.271,-0.809c-0.164,-0.43 -0.358,-0.909 -0.532,-1.351c-0.106,-0.278 -0.184,-0.556 -0.271,-0.809c-0.165,-0.423 -0.368,-0.905 -0.542,-1.35c-0.145,-0.353 -0.213,-0.683 -0.271,-0.81c-0.203,-0.429 -0.203,-0.66 -0.271,-0.809c-0.184,-0.4 -0.251,-0.774 -0.271,-0.81c-0.019,-0.029 -0.367,-0.217 -0.406,-0.54c-0.213,0.045 -0.145,0.614 -0.135,0.809c0,0.056 0.251,0.439 0.271,1.08c0.126,1.027 0.174,1.952 0.271,2.969c0.087,1.258 0.193,2.514 0.271,3.78c0.106,1.906 0.222,3.752 0.271,5.67c0.087,3.074 0.087,5.833 0,8.909c-0.058,2.013 -0.145,3.933 -0.271,5.94c-0.077,1.099 -0.164,2.146 -0.271,3.239c-0.077,0.828 -0.184,1.62 -0.271,2.43c-0.077,0.732 -0.174,1.44 -0.271,2.16c-0.077,0.647 -0.174,1.252 -0.271,1.889c-0.077,0.561 -0.174,1.076 -0.271,1.62c-0.087,0.55 -0.165,1.071 -0.271,1.621c-0.087,0.462 -0.174,0.896 -0.261,1.35c-0.097,0.456 -0.174,0.89 -0.271,1.35c-0.087,0.372 -0.193,0.735 -0.271,1.08c-0.087,0.377 -0.184,0.714 -0.271,1.08c-0.097,0.365 -0.174,0.709 -0.271,1.08c-0.097,0.342 -0.222,0.64 -0.271,0.809c-0.106,0.366 -0.145,0.682 -0.271,1.08c-0.087,0.289 -0.174,0.53 -0.271,0.81c-0.097,0.272 -0.165,0.527 -0.271,0.809c-0.097,0.275 -0.155,0.511 -0.271,0.81c-0.087,0.242 -0.077,0.383 -0.271,0.81c-0.213,0.612 -0.116,1.697 -0.803,2.159l-0.271,0c-0.541,-0.147 -0.155,-0.999 -0.271,-1.35c-0.165,-0.476 -0.165,-0.693 -0.271,-1.08c-0.106,-0.378 -0.174,-0.708 -0.271,-1.08c-0.087,-0.344 -0.174,-0.748 -0.271,-1.079c-0.048,-0.172 -0.184,-0.504 -0.271,-0.81c-0.106,-0.379 -0.164,-0.733 -0.271,-1.08c-0.068,-0.236 -0.184,-0.536 -0.271,-0.809c-0.068,-0.241 -0.184,-0.536 -0.271,-0.81c-0.126,-0.413 -0.164,-0.75 -0.271,-1.08c-0.077,-0.254 -0.184,-0.537 -0.271,-0.81c-0.077,-0.251 -0.184,-0.541 -0.261,-0.809c-0.087,-0.258 -0.184,-0.539 -0.271,-0.81c-0.087,-0.256 -0.184,-0.542 -0.271,-0.81c-0.087,-0.259 -0.184,-0.543 -0.271,-0.809c-0.087,-0.263 -0.184,-0.547 -0.271,-0.81c-0.097,-0.268 -0.184,-0.546 -0.271,-0.81c-0.097,-0.271 -0.184,-0.546 -0.271,-0.809c-0.097,-0.273 -0.174,-0.549 -0.271,-0.81c-0.097,-0.276 -0.174,-0.551 -0.271,-0.809c-0.097,-0.28 -0.174,-0.553 -0.271,-0.81c-0.01,-0.028 -0.145,-0.199 -0.271,-0.541c-0.097,-0.281 -0.174,-0.552 -0.271,-0.809c-0.155,-0.429 -0.367,-0.891 -0.532,-1.35c-0.242,-0.619 -0.387,-1.215 -0.541,-1.62c-0.339,-0.876 -0.735,-1.814 -1.083,-2.701c-2.05,-5.102 -5.444,-10.731 -7.291,-15.658l-0.271,0c0.029,0.263 -0.039,0.552 0,0.81c0.068,0.411 0.203,0.891 0.271,1.35c0.126,0.667 0.174,1.234 0.271,1.889c0.097,0.635 0.193,1.242 0.271,1.89c0.097,0.736 0.193,1.41 0.271,2.159c0.097,0.914 0.193,1.776 0.271,2.7c0.106,1.194 0.193,2.311 0.271,3.51c0.116,2.007 0.232,3.92 0.271,5.94c0.039,1.979 0.048,3.687 0,5.669c-0.048,1.752 -0.145,3.389 -0.271,5.13c-0.087,1.002 -0.165,1.968 -0.271,2.969c-0.087,0.722 -0.174,1.441 -0.271,2.16c-0.116,0.609 -0.077,0.964 -0.271,1.62c-0.087,0.329 0.232,1.004 -0.271,1.08l-0.271,0c-0.512,-0.073 -0.164,-0.783 -0.271,-1.08c-0.367,-0.816 -0.329,-1.075 -0.541,-1.62c-0.097,-0.284 -0.174,-0.549 -0.271,-0.81c-0.145,-0.41 -0.368,-0.919 -0.532,-1.35c-4.438,-10.25 -10.945,-19.305 -18.091,-27.807c-0.512,-0.547 -0.503,-0.677 -0.812,-1.08c-0.01,-0.016 -0.087,0.029 -0.271,-0.27c-0.058,-0.028 -0.174,0.016 -0.271,0c-0.019,0.162 -0.029,0.385 0,0.54c0.116,0.203 0.174,0.345 0.271,0.54c0.01,0.017 0.097,-0.082 0.271,0.27c1.383,2.666 2.127,4.165 3.239,7.019c0.203,0.465 0.358,0.895 0.541,1.351c0.242,0.63 0.358,1.137 0.542,1.62c0.01,0.028 0.145,0.189 0.271,0.54c0.116,0.316 0.174,0.553 0.271,0.81c0.106,0.293 0.174,0.545 0.271,0.81c0.106,0.288 0.174,0.542 0.271,0.809c0.097,0.283 0.174,0.54 0.261,0.81c0.097,0.276 0.184,0.537 0.271,0.809c0.097,0.272 0.184,0.535 0.271,0.81c0.087,0.264 0.184,0.533 0.271,0.81c0.087,0.256 0.184,0.534 0.271,0.809c0.077,0.255 0.184,0.532 0.271,0.81c0.077,0.251 0.184,0.528 0.271,0.81c0.116,0.388 0.164,0.725 0.271,1.079c0.048,0.185 0.174,0.487 0.271,0.81c0.106,0.377 0.174,0.72 0.271,1.08c0.038,0.144 0.174,0.463 0.271,0.81c0.097,0.368 0.174,0.72 0.271,1.079c0.097,0.366 0.174,0.717 0.261,1.08c0.097,0.361 0.184,0.712 0.271,1.08c0.087,0.351 0.193,0.712 0.271,1.08c0.087,0.343 0.193,0.711 0.271,1.08c0.077,0.337 0.193,0.709 0.271,1.08c0.106,0.466 0.174,0.902 0.271,1.35c0.106,0.46 0.174,0.904 0.271,1.35c0.106,0.461 0.174,0.899 0.271,1.35c0.106,0.549 0.174,1.085 0.271,1.62c0.106,0.551 0.165,1.09 0.271,1.62c0.126,0.66 0.155,1.264 0.271,1.89c0.135,0.602 0.184,1.662 0.271,1.89c0.01,0.042 0.406,0.458 0.406,0.809l100.897,-0.27c-0.184,-0.705 0.135,-1.27 0.271,-1.89c0.126,-0.606 0.135,-1.23 0.271,-1.889c0.106,-0.517 0.164,-1.079 0.271,-1.62c0.106,-0.528 0.155,-1.064 0.261,-1.62c0.097,-0.462 0.174,-0.888 0.271,-1.351c0.097,-0.445 0.174,-0.892 0.271,-1.35c0.097,-0.451 0.164,-0.884 0.271,-1.35c0.106,-0.446 0.164,-0.883 0.271,-1.35c0.087,-0.365 0.193,-0.739 0.271,-1.08c0.087,-0.367 0.193,-0.732 0.271,-1.079c0.087,-0.37 0.184,-0.721 0.271,-1.08c0.087,-0.365 0.174,-0.717 0.271,-1.08c0.097,-0.361 0.174,-0.714 0.271,-1.08c0.087,-0.349 0.232,-0.669 0.271,-0.81c0.097,-0.36 0.164,-0.704 0.271,-1.08c0.077,-0.285 0.193,-0.569 0.271,-0.81c0.097,-0.353 0.145,-0.688 0.261,-1.079c0.087,-0.283 0.203,-0.565 0.271,-0.81c0.087,-0.28 0.938,-3.428 0.948,-3.456" style="fill:#92cf9e;fill-rule:nonzero;"/><path d="M-7.013,73.567l266.7,0l-11.692,72.337l-40.372,20.77l-70.134,15.756l-63.746,-1.413l-59.502,-29.383l-34.006,-57.5l12.754,-20.566Z" style="fill:#92cf9e;fill-rule:nonzero;"/></g><g><path d="M146.882,140.498c-0.183,0.559 -1.543,3.305 -1.659,3.706c-0.097,0.317 -1.746,2.812 -1.949,3.319c-0.087,0.209 -0.81,1.102 -0.81,1.102c-0.058,-0.663 0.077,-1.4 0,-2.047c-0.183,-0.849 -0.154,-1.405 -0.27,-2.204c-0.077,-0.82 -0.183,-1.682 -0.27,-2.518c-0.097,-1.182 -0.212,-2.256 -0.27,-3.464c-0.347,-5.868 -0.27,-11.451 0,-17.315c0.058,-1.389 0.203,-2.737 0.27,-4.093c0.077,-1.184 0.164,-2.287 0.27,-3.463c0.077,-0.979 0.174,-1.868 0.27,-2.834c0.087,-0.865 0.164,-1.652 0.27,-2.519c0.077,-0.665 0.183,-1.253 0.27,-1.889c0.087,-0.635 0.183,-1.27 0.27,-1.89c0.077,-0.52 0.193,-1.077 0.27,-1.574c0.039,-0.292 -0.068,-0.699 0,-0.944l-0.27,0c-0.183,0.401 -0.26,0.294 -0.27,0.315c-1.736,5.041 -3.839,9.827 -5.653,14.797c-1.187,3.396 -2.421,6.96 -3.502,10.39c-0.27,0.817 -0.55,1.698 -0.81,2.519c-0.183,0.599 -0.405,1.14 -0.54,1.574c-0.097,0.306 -0.174,0.624 -0.27,0.945c-0.087,0.306 -0.174,0.626 -0.27,0.944c-0.087,0.308 -0.174,0.627 -0.27,0.944c-0.087,0.308 -0.174,0.631 -0.27,0.945c-0.087,0.309 -0.174,0.635 -0.27,0.945c-0.087,0.308 -0.183,0.64 -0.27,0.944c-0.087,0.31 -0.183,0.646 -0.26,0.945c-0.087,0.312 -0.193,0.651 -0.27,0.945c-0.087,0.318 -0.193,0.648 -0.27,0.945c-0.106,0.385 -0.145,0.778 -0.27,1.26c-0.087,0.32 -0.203,0.668 -0.27,0.944c-0.106,0.404 -0.164,0.817 -0.27,1.26c-0.087,0.319 -0.203,0.666 -0.27,0.944c-0.096,0.401 -0.164,0.82 -0.27,1.26c-0.096,0.41 -0.154,0.813 -0.27,1.26c-0.077,0.319 -0.203,0.67 -0.27,0.945c-0.106,0.432 0.029,0.543 -0.27,1.26c-0.077,0.403 0.164,1.34 -0.135,1.574c-1.023,0.238 -0.521,-0.7 -0.666,-0.945c-0.531,-0.882 -0.338,-0.857 -0.54,-1.574c-0.241,-0.545 -0.183,-0.673 -0.27,-0.945c-0.125,-0.375 -0.174,-0.627 -0.27,-0.944c-0.106,-0.333 -0.174,-0.633 -0.27,-0.945c-0.106,-0.336 -0.174,-0.602 -0.27,-0.945c-0.126,-0.462 -0.164,-0.847 -0.27,-1.26c-0.068,-0.286 -0.183,-0.609 -0.27,-0.944c-0.097,-0.432 -0.174,-0.837 -0.27,-1.26c-0.087,-0.427 -0.174,-0.824 -0.27,-1.26c-0.077,-0.41 -0.183,-0.822 -0.27,-1.26c-0.096,-0.546 -0.174,-1.041 -0.26,-1.574c-0.096,-0.534 -0.183,-1.034 -0.27,-1.574c-0.087,-0.52 -0.193,-1.028 -0.27,-1.574c-0.077,-0.503 -0.203,-1.024 -0.27,-1.574c-0.106,-0.753 -0.183,-1.45 -0.27,-2.203c-0.097,-0.847 -0.183,-1.667 -0.27,-2.519c-0.087,-0.833 -0.193,-1.66 -0.27,-2.519c-0.096,-1.167 -0.193,-2.286 -0.27,-3.463c-0.106,-1.914 -0.212,-3.743 -0.27,-5.667c-0.154,-4.552 -0.145,-8.671 0,-13.223c0.058,-1.925 0.164,-3.755 0.27,-5.667c0.077,-1.156 0.193,-2.328 0.27,-3.463c0.087,-0.945 0.183,-1.901 0.27,-2.834l0,-2.834l-0.27,0c-0.337,1.647 -0.868,2.389 -1.35,3.779c-0.434,1.369 -0.916,2.742 -1.341,4.093c-0.125,0.371 -0.26,0.596 -0.27,0.629c-0.096,0.294 -0.164,0.61 -0.27,0.945c-0.097,0.297 -0.164,0.615 -0.27,0.944c-0.097,0.301 -0.164,0.619 -0.27,0.945c-0.097,0.301 -0.174,0.622 -0.27,0.944c-0.087,0.303 -0.174,0.629 -0.27,0.945c-0.135,0.458 -0.26,0.597 -0.27,0.629c-0.087,0.309 -0.174,0.635 -0.27,0.945c-0.087,0.31 -0.174,0.638 -0.26,0.945c-0.096,0.309 -0.193,0.643 -0.27,0.944c-0.087,0.311 -0.193,0.649 -0.27,0.945c-0.087,0.315 -0.193,0.652 -0.27,0.945c-0.106,0.395 -0.154,0.806 -0.27,1.26c-0.087,0.317 -0.203,0.663 -0.27,0.944c-0.087,0.319 -0.203,0.668 -0.27,0.945c-0.097,0.401 -0.164,0.82 -0.27,1.26c-0.087,0.365 -0.222,0.758 -0.27,0.944c-0.096,0.405 -0.174,0.836 -0.27,1.26c-0.087,0.38 -0.232,0.774 -0.27,0.945c-0.087,0.407 -0.174,0.838 -0.27,1.259c-0.087,0.409 -0.174,0.841 -0.27,1.258c-0.087,0.413 -0.174,0.847 -0.26,1.26c-0.097,0.413 -0.183,0.851 -0.27,1.26c-0.097,0.416 -0.183,0.852 -0.27,1.26c-0.087,0.419 -0.183,0.85 -0.27,1.26c-0.106,0.509 -0.154,1.024 -0.27,1.574c-0.087,0.417 -0.193,0.858 -0.27,1.26c-0.106,0.509 -0.164,1.032 -0.27,1.574c-0.106,0.51 -0.164,1.036 -0.27,1.574c-0.097,0.514 -0.164,1.036 -0.27,1.574c-0.097,0.513 -0.164,1.041 -0.27,1.574c-0.097,0.518 -0.164,1.037 -0.27,1.574c-0.116,0.617 -0.135,1.214 -0.27,1.889c-0.077,0.423 -0.193,0.873 -0.27,1.26c-0.096,0.52 -0.164,1.037 -0.26,1.574c-0.096,0.426 -0.183,0.841 -0.27,1.26c-0.116,0.518 -0.145,1 -0.27,1.574c-0.097,0.445 -0.164,0.814 -0.27,1.26c-0.097,0.408 -0.174,0.832 -0.27,1.26c-0.106,0.449 -0.135,0.75 -0.27,1.26c-0.097,0.35 -0.164,0.604 -0.27,0.944c-0.097,0.32 0.029,0.362 -0.27,0.945c-1.09,3.59 -0.887,1.005 -1.08,-0.945c-0.174,-0.941 -0.145,-1.629 -0.27,-2.518c-0.087,-0.73 -0.174,-1.473 -0.26,-2.204c-0.097,-0.736 -0.183,-1.466 -0.27,-2.203c-0.106,-0.847 -0.174,-1.683 -0.27,-2.519c-0.087,-0.725 -0.183,-1.47 -0.27,-2.203c-0.096,-0.842 -0.174,-1.685 -0.27,-2.519c-0.087,-0.723 -0.183,-1.47 -0.27,-2.204c-0.087,-0.722 -0.183,-1.469 -0.27,-2.203c-0.097,-0.843 -0.174,-1.684 -0.27,-2.519c-0.087,-0.719 -0.183,-1.47 -0.27,-2.203c-0.097,-0.842 -0.174,-1.684 -0.27,-2.519c-0.077,-0.719 -0.183,-1.469 -0.27,-2.204c-0.077,-0.718 -0.183,-1.469 -0.27,-2.203c-0.087,-0.838 -0.174,-1.684 -0.26,-2.519c-0.087,-0.718 -0.193,-1.468 -0.27,-2.203c-0.096,-0.839 -0.183,-1.683 -0.27,-2.519c-0.097,-0.837 -0.183,-1.682 -0.27,-2.519c-0.087,-0.715 -0.193,-1.469 -0.27,-2.203c-0.097,-0.837 -0.174,-1.682 -0.27,-2.519c-0.077,-0.714 -0.193,-1.469 -0.27,-2.203c-0.097,-0.836 -0.174,-1.682 -0.27,-2.519c-0.087,-0.836 -0.174,-1.682 -0.27,-2.519c-0.087,-0.833 -0.174,-1.681 -0.27,-2.519c-0.087,-0.833 -0.174,-1.681 -0.27,-2.518c-0.087,-0.832 -0.174,-1.68 -0.27,-2.519c-0.087,-0.832 -0.174,-1.682 -0.27,-2.519c-0.068,-0.706 -0.183,-1.469 -0.26,-2.203c-0.097,-0.836 -0.183,-1.677 -0.27,-2.519c-0.058,-0.577 -0.212,-1.245 -0.27,-1.889c-0.039,-0.449 -0.289,-1.016 -0.27,-1.889l-0.27,0c-0.019,0.727 -0.251,1.345 -0.27,1.574c-0.067,0.847 -0.203,1.712 -0.27,2.519c-0.097,1.05 -0.164,2.093 -0.27,3.147c-0.077,0.845 -0.183,1.692 -0.27,2.519c-0.087,0.841 -0.183,1.691 -0.27,2.519c-0.087,0.839 -0.183,1.691 -0.27,2.518c-0.087,0.839 -0.183,1.69 -0.27,2.519c-0.077,0.736 -0.193,1.497 -0.27,2.204c-0.087,0.837 -0.174,1.689 -0.26,2.519c-0.106,0.939 -0.174,1.884 -0.27,2.833c-0.096,0.838 -0.183,1.688 -0.27,2.519c-0.097,0.838 -0.183,1.687 -0.27,2.519c-0.077,0.735 -0.193,1.494 -0.27,2.204c-0.087,0.836 -0.183,1.686 -0.27,2.518c-0.087,0.838 -0.174,1.683 -0.27,2.519c-0.087,0.837 -0.174,1.683 -0.27,2.519c-0.087,0.836 -0.174,1.682 -0.27,2.518c-0.077,0.735 -0.183,1.49 -0.27,2.204c-0.087,0.836 -0.174,1.682 -0.27,2.518c-0.087,0.838 -0.174,1.681 -0.27,2.519c-0.087,0.836 -0.174,1.682 -0.27,2.519c-0.077,0.734 -0.183,1.487 -0.26,2.203c-0.097,0.837 -0.174,1.68 -0.27,2.519c-0.097,0.837 -0.174,1.678 -0.27,2.519c-0.097,0.838 -0.174,1.674 -0.27,2.518c-0.087,0.736 -0.183,1.481 -0.27,2.204c-0.096,0.843 -0.164,1.663 -0.27,2.519c-0.106,0.838 -0.164,1.662 -0.27,2.519c-0.106,0.776 -0.116,1.39 -0.27,2.203c-0.087,0.547 0.26,1.602 -0.27,1.889l-0.27,0c-0.56,-0.205 -0.434,-1.255 -0.54,-1.574c-0.203,-0.511 -0.164,-0.607 -0.26,-0.945c-0.096,-0.328 -0.183,-0.593 -0.27,-0.944c-0.164,-0.546 -0.164,-0.819 -0.27,-1.26c-0.106,-0.439 -0.174,-0.842 -0.27,-1.26c-0.106,-0.441 -0.183,-0.822 -0.27,-1.26c-0.087,-0.417 -0.183,-0.824 -0.27,-1.26c-0.126,-0.563 -0.164,-1.057 -0.27,-1.574c-0.087,-0.412 -0.183,-0.831 -0.27,-1.26c-0.097,-0.532 -0.174,-1.058 -0.27,-1.574c-0.096,-0.533 -0.174,-1.06 -0.27,-1.573c-0.125,-0.67 -0.145,-1.279 -0.27,-1.89c-0.096,-0.537 -0.164,-1.062 -0.27,-1.574c-0.106,-0.541 -0.164,-1.061 -0.27,-1.574c-0.106,-0.541 -0.164,-1.064 -0.26,-1.574c-0.116,-0.546 -0.174,-1.066 -0.27,-1.574c-0.087,-0.403 -0.183,-0.842 -0.27,-1.26c-0.116,-0.551 -0.164,-1.063 -0.27,-1.574c-0.087,-0.407 -0.183,-0.839 -0.27,-1.26c-0.087,-0.405 -0.183,-0.843 -0.27,-1.26c-0.087,-0.408 -0.183,-0.846 -0.27,-1.26c-0.087,-0.412 -0.183,-0.848 -0.27,-1.26c-0.087,-0.417 -0.174,-0.847 -0.27,-1.258c-0.029,-0.152 -0.183,-0.56 -0.27,-0.945c-0.097,-0.422 -0.174,-0.85 -0.27,-1.26c-0.097,-0.424 -0.174,-0.854 -0.27,-1.26c-0.039,-0.185 -0.174,-0.574 -0.27,-0.944c-0.048,-0.201 -0.174,-0.583 -0.26,-0.945c-0.116,-0.443 -0.174,-0.859 -0.27,-1.26c-0.077,-0.281 -0.193,-0.625 -0.27,-0.944c-0.077,-0.284 -0.193,-0.626 -0.27,-0.945c-0.077,-0.286 -0.183,-0.628 -0.27,-0.945c-0.126,-0.478 -0.164,-0.881 -0.27,-1.26c-0.077,-0.297 -0.183,-0.634 -0.27,-0.944c-0.087,-0.303 -0.183,-0.635 -0.27,-0.945c-0.087,-0.307 -0.183,-0.635 -0.27,-0.945c-0.01,-0.033 -0.135,-0.162 -0.27,-0.629c-0.087,-0.308 -0.174,-0.639 -0.27,-0.945c-0.087,-0.315 -0.174,-0.638 -0.27,-0.944c-0.087,-0.32 -0.174,-0.638 -0.26,-0.945c-0.097,-0.321 -0.183,-0.637 -0.27,-0.944c-0.097,-0.321 -0.183,-0.644 -0.27,-0.945c-0.01,-0.034 -0.145,-0.222 -0.27,-0.629c-0.106,-0.33 -0.174,-0.648 -0.27,-0.945c-0.106,-0.334 -0.174,-0.652 -0.27,-0.945c-0.164,-0.502 -0.366,-1.059 -0.54,-1.574c-0.097,-0.326 -0.174,-0.648 -0.27,-0.945c-0.154,-0.493 -0.367,-1.055 -0.54,-1.574c-0.135,-0.412 -0.212,-0.796 -0.27,-0.945c-0.193,-0.501 -0.193,-0.77 -0.27,-0.944c-0.183,-0.466 -0.241,-0.902 -0.26,-0.944c-0.019,-0.035 -0.376,-0.253 -0.405,-0.63c-0.212,0.054 -0.145,0.717 -0.135,0.945c0,0.064 0.251,0.512 0.27,1.26c0.126,1.196 0.174,2.277 0.27,3.463c0.087,1.466 0.183,2.932 0.26,4.408c0.106,2.222 0.222,4.374 0.27,6.611c0.087,3.586 0.087,6.804 0,10.39c-0.048,2.349 -0.145,4.588 -0.27,6.927c-0.077,1.282 -0.164,2.503 -0.26,3.779c-0.077,0.964 -0.183,1.888 -0.27,2.832c-0.087,0.854 -0.183,1.68 -0.27,2.519c-0.087,0.754 -0.174,1.46 -0.27,2.204c-0.087,0.654 -0.183,1.254 -0.27,1.889c-0.097,0.64 -0.174,1.248 -0.27,1.889c-0.087,0.54 -0.174,1.046 -0.27,1.574c-0.097,0.532 -0.174,1.039 -0.27,1.574c-0.077,0.435 -0.193,0.858 -0.27,1.26c-0.087,0.441 -0.174,0.833 -0.27,1.26c-0.087,0.426 -0.164,0.828 -0.27,1.26c-0.087,0.4 -0.222,0.748 -0.27,0.944c-0.097,0.427 -0.145,0.795 -0.27,1.26c-0.087,0.338 -0.164,0.618 -0.26,0.945c-0.097,0.318 -0.174,0.616 -0.27,0.945c-0.097,0.32 -0.154,0.595 -0.27,0.944c-0.097,0.282 -0.077,0.447 -0.27,0.945c-0.212,0.715 -0.116,1.979 -0.81,2.519l-0.27,0c-0.54,-0.173 -0.145,-1.166 -0.27,-1.574c-0.164,-0.556 -0.164,-0.808 -0.27,-1.26c-0.097,-0.441 -0.174,-0.826 -0.27,-1.26c-0.087,-0.403 -0.174,-0.873 -0.27,-1.26c-0.048,-0.201 -0.174,-0.587 -0.27,-0.945c-0.106,-0.442 -0.164,-0.855 -0.26,-1.26c-0.077,-0.275 -0.193,-0.624 -0.27,-0.944c-0.077,-0.281 -0.193,-0.624 -0.27,-0.944c-0.135,-0.483 -0.164,-0.875 -0.27,-1.26c-0.077,-0.297 -0.183,-0.626 -0.27,-0.945c-0.077,-0.293 -0.183,-0.631 -0.27,-0.945c-0.087,-0.3 -0.183,-0.628 -0.27,-0.945c-0.087,-0.299 -0.183,-0.631 -0.27,-0.944c-0.087,-0.302 -0.183,-0.635 -0.27,-0.945c-0.087,-0.307 -0.174,-0.637 -0.27,-0.945c-0.087,-0.312 -0.174,-0.637 -0.27,-0.944c-0.087,-0.317 -0.174,-0.638 -0.27,-0.944c-0.087,-0.319 -0.174,-0.642 -0.26,-0.945c-0.106,-0.323 -0.183,-0.643 -0.27,-0.945c-0.106,-0.326 -0.183,-0.645 -0.27,-0.945c-0.01,-0.033 -0.146,-0.231 -0.27,-0.629c-0.107,-0.328 -0.174,-0.645 -0.27,-0.945c-0.164,-0.5 -0.366,-1.04 -0.541,-1.574c-0.241,-0.722 -0.375,-1.417 -0.539,-1.889c-0.338,-1.021 -0.723,-2.115 -1.08,-3.148c-2.045,-5.95 -5.431,-12.514 -7.264,-18.26l-0.271,0c0.02,0.306 -0.047,0.644 0,0.944c0.059,0.479 0.194,1.04 0.271,1.574c0.116,0.779 0.173,1.439 0.27,2.204c0.087,0.74 0.182,1.448 0.26,2.203c0.106,0.859 0.193,1.644 0.27,2.519c0.105,1.066 0.193,2.071 0.27,3.148c0.115,1.391 0.203,2.694 0.27,4.093c0.125,2.34 0.241,4.571 0.27,6.926c0.037,2.308 0.047,4.301 0,6.612c-0.048,2.043 -0.145,3.951 -0.27,5.982c-0.087,1.169 -0.165,2.296 -0.27,3.464c-0.087,0.842 -0.175,1.68 -0.27,2.518c-0.107,0.71 -0.068,1.124 -0.27,1.889c-0.078,0.385 0.232,1.17 -0.26,1.26l-0.27,0c-0.522,-0.086 -0.174,-0.912 -0.271,-1.26c-0.375,-0.951 -0.337,-1.253 -0.539,-1.889c-0.106,-0.332 -0.175,-0.64 -0.27,-0.945c-0.155,-0.477 -0.367,-1.071 -0.54,-1.573c-4.418,-11.954 -10.92,-22.514 -18.048,-32.43c-0.511,-0.637 -0.502,-0.788 -0.801,-1.26c-0.019,-0.017 -0.088,0.034 -0.27,-0.315c-0.069,-0.032 -0.174,0.018 -0.271,0c-0.019,0.189 -0.029,0.449 0,0.63c0.107,0.236 0.175,0.401 0.271,0.629c0.01,0.02 0.097,-0.095 0.27,0.315c1.369,3.11 2.121,4.858 3.232,8.186c0.193,0.542 0.347,1.044 0.529,1.574c0.241,0.736 0.368,1.326 0.541,1.889c0.01,0.033 0.145,0.221 0.27,0.63c0.126,0.368 0.173,0.645 0.27,0.944c0.116,0.343 0.173,0.637 0.27,0.945c0.105,0.336 0.174,0.634 0.27,0.944c0.105,0.332 0.174,0.63 0.27,0.945c0.096,0.324 0.174,0.626 0.27,0.945c0.087,0.316 0.174,0.624 0.269,0.945c0.088,0.307 0.184,0.621 0.27,0.944c0.078,0.3 0.184,0.624 0.271,0.945c0.077,0.298 0.182,0.62 0.27,0.945c0.077,0.292 0.182,0.615 0.26,0.944c0.115,0.452 0.174,0.847 0.27,1.26c0.058,0.215 0.183,0.567 0.27,0.944c0.105,0.441 0.174,0.84 0.27,1.26c0.037,0.169 0.183,0.541 0.269,0.945c0.097,0.431 0.175,0.84 0.27,1.26c0.097,0.427 0.175,0.834 0.271,1.26c0.087,0.421 0.182,0.83 0.27,1.26c0.087,0.409 0.182,0.829 0.27,1.26c0.077,0.4 0.183,0.828 0.27,1.26c0.077,0.392 0.183,0.826 0.27,1.258c0.105,0.545 0.164,1.052 0.27,1.574c0.096,0.538 0.164,1.055 0.26,1.574c0.106,0.538 0.183,1.05 0.269,1.575c0.107,0.639 0.175,1.265 0.27,1.889c0.107,0.642 0.175,1.27 0.271,1.889c0.126,0.77 0.154,1.474 0.27,2.203c0.135,0.704 0.182,1.938 0.27,2.204c0.019,0.05 0.415,0.534 0.404,0.945l100.659,-0.315c-0.183,-0.823 0.135,-1.481 0.27,-2.204c0.125,-0.708 0.145,-1.434 0.27,-2.204c0.106,-0.602 0.174,-1.258 0.27,-1.889c0.106,-0.616 0.154,-1.239 0.27,-1.889c0.087,-0.538 0.174,-1.035 0.27,-1.574c0.097,-0.52 0.174,-1.042 0.27,-1.574c0.097,-0.525 0.164,-1.032 0.27,-1.574c0.097,-0.521 0.164,-1.03 0.27,-1.575c0.077,-0.426 0.183,-0.861 0.27,-1.258c0.077,-0.43 0.183,-0.855 0.26,-1.26c0.096,-0.431 0.183,-0.841 0.27,-1.26c0.096,-0.425 0.183,-0.836 0.27,-1.26c0.097,-0.419 0.174,-0.831 0.27,-1.26c0.097,-0.407 0.232,-0.779 0.27,-0.944c0.097,-0.421 0.164,-0.822 0.27,-1.26c0.077,-0.334 0.203,-0.664 0.27,-0.945c0.106,-0.413 0.154,-0.804 0.27,-1.258c0.087,-0.332 0.193,-0.659 0.27,-0.945c0.087,-0.328 0.936,-3.998 0.945,-4.03" style="fill:#5cb167;fill-rule:nonzero;"/><path d="M54.544,137.527c-0.179,0.492 -1.5,2.911 -1.613,3.265c-0.094,0.279 -1.697,2.475 -1.894,2.921c-0.084,0.185 -0.788,0.97 -0.788,0.97c-0.056,-0.583 0.075,-1.233 0,-1.802c-0.178,-0.747 -0.15,-1.236 -0.263,-1.94c-0.076,-0.723 -0.178,-1.481 -0.263,-2.218c-0.094,-1.04 -0.206,-1.987 -0.263,-3.049c-0.346,-5.168 -0.263,-10.084 0,-15.248c0.057,-1.222 0.189,-2.41 0.263,-3.604c0.075,-1.043 0.16,-2.013 0.263,-3.049c0.075,-0.861 0.168,-1.645 0.263,-2.495c0.084,-0.761 0.158,-1.455 0.263,-2.218c0.075,-0.585 0.178,-1.102 0.263,-1.663c0.083,-0.559 0.178,-1.118 0.263,-1.663c0.074,-0.459 0.187,-0.949 0.261,-1.386c0.038,-0.258 -0.065,-0.617 0,-0.832l-0.261,0c-0.179,0.354 -0.253,0.26 -0.263,0.277c-1.688,4.439 -3.731,8.653 -5.504,13.03c-1.144,2.992 -2.344,6.128 -3.394,9.149c-0.263,0.72 -0.534,1.495 -0.788,2.218c-0.178,0.528 -0.394,1.005 -0.526,1.386c-0.093,0.269 -0.168,0.55 -0.263,0.832c-0.093,0.27 -0.168,0.551 -0.261,0.831c-0.084,0.272 -0.169,0.553 -0.263,0.832c-0.084,0.271 -0.17,0.556 -0.263,0.832c-0.084,0.271 -0.17,0.559 -0.263,0.831c-0.084,0.272 -0.178,0.564 -0.263,0.832c-0.085,0.273 -0.178,0.569 -0.263,0.832c-0.076,0.275 -0.178,0.572 -0.253,0.831c-0.084,0.28 -0.187,0.572 -0.263,0.832c-0.102,0.339 -0.14,0.686 -0.263,1.109c-0.083,0.282 -0.197,0.588 -0.261,0.832c-0.103,0.354 -0.16,0.719 -0.263,1.108c-0.084,0.281 -0.197,0.588 -0.263,0.832c-0.103,0.352 -0.16,0.722 -0.263,1.109c-0.095,0.36 -0.15,0.716 -0.263,1.109c-0.076,0.28 -0.197,0.59 -0.263,0.831c-0.103,0.38 0.019,0.48 -0.263,1.109c-0.074,0.354 0.16,1.18 -0.13,1.386c-0.994,0.211 -0.506,-0.616 -0.656,-0.831c-0.506,-0.776 -0.319,-0.756 -0.516,-1.386c-0.234,-0.481 -0.178,-0.593 -0.263,-0.832c-0.123,-0.332 -0.169,-0.552 -0.263,-0.832c-0.103,-0.292 -0.169,-0.556 -0.263,-0.831c-0.103,-0.297 -0.169,-0.531 -0.263,-0.832c-0.121,-0.408 -0.158,-0.746 -0.263,-1.109c-0.074,-0.252 -0.177,-0.537 -0.261,-0.831c-0.094,-0.38 -0.17,-0.737 -0.263,-1.109c-0.094,-0.376 -0.179,-0.726 -0.263,-1.109c-0.075,-0.362 -0.178,-0.724 -0.263,-1.109c-0.104,-0.482 -0.169,-0.917 -0.263,-1.386c-0.095,-0.471 -0.169,-0.912 -0.253,-1.386c-0.085,-0.459 -0.187,-0.907 -0.263,-1.387c-0.075,-0.442 -0.197,-0.902 -0.263,-1.385c-0.102,-0.664 -0.177,-1.277 -0.263,-1.941c-0.093,-0.746 -0.177,-1.468 -0.261,-2.218c-0.084,-0.733 -0.198,-1.462 -0.263,-2.217c-0.094,-1.029 -0.187,-2.014 -0.263,-3.05c-0.114,-1.685 -0.206,-3.295 -0.263,-4.99c-0.15,-4.008 -0.15,-7.636 0,-11.643c0.056,-1.695 0.158,-3.306 0.263,-4.99c0.075,-1.019 0.187,-2.05 0.263,-3.05c0.083,-0.831 0.178,-1.673 0.263,-2.495l0,-2.494l-0.263,0c-0.328,1.451 -0.845,2.103 -1.314,3.326c-0.421,1.205 -0.899,2.415 -1.302,3.604c-0.123,0.327 -0.253,0.525 -0.263,0.554c-0.095,0.26 -0.159,0.538 -0.263,0.832c-0.094,0.261 -0.159,0.542 -0.263,0.832c-0.094,0.264 -0.169,0.544 -0.263,0.831c-0.093,0.266 -0.168,0.549 -0.263,0.832c-0.083,0.266 -0.168,0.554 -0.261,0.831c-0.131,0.403 -0.253,0.526 -0.263,0.555c-0.084,0.271 -0.17,0.559 -0.263,0.832c-0.084,0.273 -0.178,0.561 -0.263,0.831c-0.085,0.273 -0.178,0.567 -0.263,0.832c-0.085,0.274 -0.178,0.571 -0.253,0.832c-0.084,0.277 -0.187,0.573 -0.263,0.831c-0.102,0.347 -0.149,0.71 -0.263,1.109c-0.083,0.28 -0.196,0.585 -0.261,0.831c-0.084,0.282 -0.198,0.588 -0.263,0.832c-0.103,0.353 -0.16,0.723 -0.263,1.109c-0.084,0.323 -0.216,0.667 -0.263,0.832c-0.095,0.356 -0.169,0.735 -0.263,1.109c-0.085,0.334 -0.225,0.68 -0.263,0.831c-0.094,0.359 -0.169,0.739 -0.263,1.109c-0.084,0.361 -0.169,0.742 -0.263,1.109c-0.083,0.363 -0.168,0.745 -0.263,1.109c-0.083,0.363 -0.177,0.749 -0.261,1.109c-0.084,0.366 -0.179,0.75 -0.253,1.109c-0.094,0.368 -0.179,0.749 -0.263,1.108c-0.103,0.448 -0.151,0.903 -0.263,1.387c-0.085,0.367 -0.187,0.756 -0.263,1.108c-0.104,0.449 -0.159,0.91 -0.263,1.386c-0.103,0.45 -0.159,0.913 -0.263,1.386c-0.093,0.453 -0.158,0.913 -0.263,1.386c-0.093,0.452 -0.158,0.917 -0.262,1.387c-0.094,0.456 -0.159,0.913 -0.263,1.386c-0.113,0.543 -0.131,1.069 -0.262,1.663c-0.075,0.371 -0.188,0.769 -0.263,1.109c-0.094,0.458 -0.159,0.913 -0.263,1.386c-0.084,0.374 -0.169,0.74 -0.253,1.109c-0.113,0.456 -0.141,0.881 -0.263,1.386c-0.094,0.391 -0.159,0.717 -0.262,1.109c-0.094,0.359 -0.169,0.732 -0.263,1.109c-0.103,0.394 -0.131,0.66 -0.263,1.108c-0.094,0.309 -0.159,0.533 -0.263,0.832c-0.094,0.282 0.028,0.319 -0.262,0.832c-1.059,3.161 -0.863,0.885 -1.05,-0.832c-0.169,-0.83 -0.141,-1.436 -0.263,-2.218c-0.084,-0.642 -0.169,-1.296 -0.263,-1.94c-0.084,-0.648 -0.169,-1.292 -0.253,-1.941c-0.103,-0.746 -0.169,-1.481 -0.263,-2.218c-0.084,-0.638 -0.178,-1.295 -0.262,-1.94c-0.103,-0.742 -0.169,-1.483 -0.263,-2.218c-0.084,-0.636 -0.178,-1.295 -0.263,-1.94c-0.084,-0.636 -0.178,-1.294 -0.263,-1.941c-0.094,-0.743 -0.169,-1.481 -0.262,-2.217c-0.084,-0.635 -0.178,-1.295 -0.263,-1.941c-0.094,-0.742 -0.169,-1.482 -0.263,-2.218c-0.075,-0.633 -0.178,-1.294 -0.263,-1.94c-0.075,-0.633 -0.178,-1.295 -0.262,-1.94c-0.094,-0.739 -0.169,-1.483 -0.263,-2.218c-0.075,-0.632 -0.178,-1.294 -0.263,-1.941c-0.084,-0.738 -0.169,-1.481 -0.253,-2.217c-0.094,-0.738 -0.178,-1.482 -0.263,-2.218c-0.084,-0.629 -0.187,-1.295 -0.262,-1.941c-0.094,-0.736 -0.178,-1.481 -0.263,-2.217c-0.075,-0.629 -0.187,-1.295 -0.263,-1.941c-0.094,-0.736 -0.178,-1.481 -0.263,-2.217c-0.094,-0.736 -0.169,-1.481 -0.262,-2.218c-0.084,-0.735 -0.178,-1.48 -0.263,-2.218c-0.084,-0.734 -0.169,-1.481 -0.263,-2.218c-0.084,-0.733 -0.178,-1.479 -0.263,-2.217c-0.084,-0.734 -0.169,-1.482 -0.262,-2.218c-0.066,-0.623 -0.188,-1.294 -0.263,-1.941c-0.084,-0.735 -0.169,-1.475 -0.253,-2.217c-0.066,-0.508 -0.206,-1.097 -0.263,-1.664c-0.037,-0.394 -0.281,-0.894 -0.262,-1.663l-0.263,0c-0.019,0.641 -0.244,1.185 -0.263,1.386c-0.066,0.747 -0.197,1.508 -0.263,2.218c-0.094,0.924 -0.169,1.843 -0.263,2.772c-0.084,0.743 -0.178,1.489 -0.262,2.218c-0.084,0.74 -0.178,1.489 -0.263,2.218c-0.084,0.738 -0.178,1.489 -0.263,2.217c-0.084,0.739 -0.178,1.488 -0.263,2.218c-0.075,0.648 -0.187,1.318 -0.262,1.94c-0.084,0.738 -0.169,1.487 -0.263,2.218c-0.094,0.827 -0.159,1.66 -0.253,2.495c-0.094,0.738 -0.178,1.485 -0.263,2.218c-0.094,0.737 -0.178,1.485 -0.262,2.218c-0.084,0.646 -0.188,1.315 -0.263,1.94c-0.094,0.737 -0.178,1.485 -0.263,2.217c-0.094,0.739 -0.178,1.483 -0.263,2.218c-0.094,0.738 -0.169,1.482 -0.262,2.218c-0.094,0.737 -0.169,1.482 -0.263,2.218c-0.075,0.646 -0.188,1.312 -0.263,1.94c-0.084,0.737 -0.169,1.482 -0.263,2.218c-0.084,0.737 -0.169,1.48 -0.263,2.218c-0.084,0.736 -0.169,1.48 -0.262,2.217c-0.075,0.647 -0.178,1.31 -0.263,1.941c-0.084,0.737 -0.169,1.478 -0.253,2.218c-0.094,0.736 -0.169,1.476 -0.263,2.217c-0.094,0.738 -0.169,1.474 -0.262,2.218c-0.084,0.648 -0.178,1.304 -0.263,1.94c-0.103,0.743 -0.159,1.466 -0.263,2.218c-0.103,0.738 -0.159,1.464 -0.263,2.218c-0.103,0.683 -0.122,1.225 -0.262,1.94c-0.084,0.483 0.253,1.411 -0.263,1.664l-0.263,0c-0.544,-0.182 -0.422,-1.105 -0.525,-1.386c-0.197,-0.451 -0.159,-0.535 -0.263,-0.832c-0.094,-0.29 -0.169,-0.522 -0.263,-0.832c-0.15,-0.48 -0.159,-0.721 -0.253,-1.108c-0.103,-0.386 -0.169,-0.743 -0.263,-1.109c-0.103,-0.388 -0.178,-0.724 -0.262,-1.109c-0.084,-0.367 -0.178,-0.727 -0.263,-1.109c-0.122,-0.495 -0.159,-0.931 -0.263,-1.386c-0.084,-0.363 -0.178,-0.732 -0.263,-1.109c-0.094,-0.47 -0.169,-0.932 -0.262,-1.386c-0.103,-0.471 -0.169,-0.934 -0.263,-1.386c-0.122,-0.589 -0.15,-1.126 -0.263,-1.663c-0.103,-0.473 -0.159,-0.936 -0.263,-1.387c-0.103,-0.476 -0.159,-0.934 -0.262,-1.386c-0.103,-0.477 -0.159,-0.936 -0.263,-1.386c-0.103,-0.48 -0.159,-0.937 -0.253,-1.386c-0.084,-0.354 -0.178,-0.742 -0.263,-1.108c-0.113,-0.487 -0.159,-0.937 -0.263,-1.387c-0.084,-0.358 -0.178,-0.739 -0.262,-1.108c-0.084,-0.357 -0.178,-0.744 -0.263,-1.109c-0.084,-0.359 -0.178,-0.745 -0.263,-1.109c-0.084,-0.362 -0.178,-0.748 -0.263,-1.109c-0.094,-0.368 -0.169,-0.747 -0.262,-1.109c-0.028,-0.133 -0.178,-0.493 -0.263,-0.831c-0.094,-0.372 -0.169,-0.749 -0.263,-1.109c-0.094,-0.374 -0.169,-0.753 -0.263,-1.109c-0.037,-0.164 -0.169,-0.505 -0.262,-0.832c-0.047,-0.176 -0.169,-0.512 -0.263,-0.832c-0.103,-0.389 -0.159,-0.756 -0.253,-1.109c-0.075,-0.246 -0.187,-0.549 -0.263,-0.831c-0.075,-0.249 -0.187,-0.55 -0.263,-0.832c-0.075,-0.251 -0.187,-0.552 -0.262,-0.831c-0.122,-0.421 -0.159,-0.775 -0.263,-1.109c-0.084,-0.261 -0.178,-0.558 -0.263,-0.832c-0.084,-0.267 -0.178,-0.558 -0.263,-0.831c-0.084,-0.271 -0.178,-0.56 -0.262,-0.832c-0.009,-0.029 -0.131,-0.143 -0.263,-0.555c-0.084,-0.27 -0.169,-0.562 -0.263,-0.831c-0.084,-0.277 -0.169,-0.563 -0.263,-0.832c-0.094,-0.282 -0.169,-0.561 -0.262,-0.831c-0.094,-0.283 -0.169,-0.562 -0.263,-0.832c-0.094,-0.282 -0.169,-0.566 -0.253,-0.832c-0.019,-0.029 -0.141,-0.195 -0.263,-0.554c-0.103,-0.29 -0.169,-0.57 -0.262,-0.832c-0.103,-0.294 -0.169,-0.574 -0.263,-0.831c-0.159,-0.442 -0.356,-0.933 -0.525,-1.387c-0.103,-0.286 -0.169,-0.571 -0.263,-0.831c-0.15,-0.434 -0.356,-0.929 -0.525,-1.386c-0.141,-0.362 -0.206,-0.701 -0.263,-0.832c-0.187,-0.441 -0.197,-0.678 -0.263,-0.831c-0.178,-0.411 -0.234,-0.794 -0.262,-0.832c-0.009,-0.03 -0.356,-0.222 -0.384,-0.554c-0.206,0.047 -0.141,0.631 -0.131,0.831c0,0.058 0.244,0.451 0.253,1.109c0.131,1.054 0.178,2.005 0.263,3.049c0.094,1.292 0.187,2.582 0.262,3.881c0.103,1.957 0.216,3.852 0.263,5.822c0.084,3.157 0.084,5.99 0,9.149c-0.047,2.067 -0.141,4.039 -0.263,6.1c-0.075,1.129 -0.159,2.203 -0.262,3.326c-0.066,0.85 -0.169,1.663 -0.263,2.495c-0.075,0.752 -0.169,1.478 -0.253,2.218c-0.084,0.664 -0.178,1.286 -0.263,1.94c-0.084,0.576 -0.178,1.105 -0.262,1.663c-0.094,0.565 -0.169,1.1 -0.263,1.664c-0.084,0.475 -0.178,0.92 -0.263,1.386c-0.094,0.469 -0.169,0.913 -0.263,1.386c-0.075,0.382 -0.187,0.755 -0.262,1.109c-0.084,0.387 -0.169,0.733 -0.263,1.109c-0.094,0.374 -0.169,0.728 -0.263,1.109c-0.084,0.351 -0.216,0.657 -0.263,0.831c-0.094,0.376 -0.141,0.7 -0.263,1.109c-0.084,0.297 -0.169,0.544 -0.262,0.832c-0.084,0.279 -0.159,0.541 -0.253,0.831c-0.103,0.282 -0.159,0.525 -0.263,0.832c-0.094,0.248 -0.075,0.393 -0.263,0.832c-0.206,0.629 -0.113,1.743 -0.788,2.217l-0.263,0c-0.525,-0.151 -0.15,-1.026 -0.262,-1.386c-0.159,-0.489 -0.159,-0.712 -0.263,-1.109c-0.103,-0.388 -0.169,-0.727 -0.263,-1.109c-0.084,-0.353 -0.169,-0.769 -0.263,-1.108c-0.047,-0.177 -0.169,-0.517 -0.262,-0.832c-0.103,-0.389 -0.159,-0.753 -0.263,-1.109c-0.066,-0.242 -0.178,-0.55 -0.253,-0.831c-0.075,-0.247 -0.187,-0.55 -0.263,-0.832c-0.131,-0.424 -0.169,-0.771 -0.263,-1.109c-0.084,-0.261 -0.178,-0.551 -0.262,-0.832c-0.075,-0.258 -0.178,-0.556 -0.263,-0.831c-0.084,-0.265 -0.178,-0.553 -0.263,-0.832c-0.084,-0.263 -0.178,-0.557 -0.263,-0.832c-0.084,-0.266 -0.178,-0.558 -0.262,-0.831c-0.084,-0.27 -0.178,-0.562 -0.263,-0.832c-0.084,-0.275 -0.169,-0.561 -0.263,-0.832c-0.084,-0.278 -0.169,-0.561 -0.263,-0.831c-0.094,-0.28 -0.169,-0.564 -0.262,-0.832c-0.094,-0.283 -0.169,-0.566 -0.253,-0.831c-0.103,-0.288 -0.178,-0.568 -0.263,-0.832c-0.019,-0.029 -0.141,-0.205 -0.263,-0.555c-0.103,-0.289 -0.169,-0.567 -0.263,-0.831c-0.159,-0.441 -0.356,-0.915 -0.525,-1.386c-0.234,-0.635 -0.366,-1.248 -0.525,-1.663c-0.328,-0.9 -0.703,-1.863 -1.05,-2.773c-1.988,-5.24 -5.278,-11.019 -7.069,-16.079l-0.253,0c0.019,0.27 -0.047,0.567 0,0.832c0.056,0.422 0.187,0.915 0.253,1.386c0.122,0.685 0.178,1.267 0.262,1.94c0.094,0.652 0.188,1.276 0.263,1.941c0.103,0.756 0.188,1.448 0.263,2.217c0.103,0.938 0.187,1.824 0.263,2.772c0.113,1.226 0.187,2.373 0.262,3.604c0.122,2.061 0.234,4.025 0.263,6.1c0.038,2.033 0.047,3.786 0,5.821c-0.047,1.799 -0.141,3.48 -0.263,5.268c-0.084,1.029 -0.159,2.021 -0.262,3.049c-0.084,0.742 -0.169,1.479 -0.263,2.218c-0.103,0.626 -0.066,0.99 -0.263,1.663c-0.075,0.338 0.225,1.031 -0.263,1.109l-0.262,0c-0.497,-0.075 -0.159,-0.804 -0.253,-1.109c-0.366,-0.838 -0.328,-1.104 -0.525,-1.663c-0.103,-0.292 -0.169,-0.564 -0.262,-0.832c-0.15,-0.421 -0.366,-0.943 -0.525,-1.386c-4.294,-10.526 -10.613,-19.825 -17.542,-28.556c-0.497,-0.562 -0.488,-0.695 -0.788,-1.109c-0.009,-0.016 -0.075,0.03 -0.253,-0.277c-0.066,-0.029 -0.169,0.016 -0.263,0c-0.019,0.167 -0.038,0.395 0,0.554c0.103,0.208 0.169,0.354 0.263,0.555c0,0.018 0.084,-0.084 0.253,0.277c1.341,2.738 2.072,4.278 3.15,7.208c0.187,0.478 0.338,0.919 0.516,1.387c0.234,0.647 0.356,1.168 0.525,1.663c0.009,0.029 0.141,0.195 0.262,0.554c0.122,0.325 0.169,0.568 0.263,0.832c0.103,0.301 0.169,0.56 0.263,0.832c0.103,0.296 0.169,0.557 0.263,0.831c0.094,0.291 0.169,0.554 0.262,0.832c0.094,0.284 0.169,0.551 0.263,0.831c0.084,0.279 0.169,0.549 0.263,0.832c0.084,0.271 0.169,0.547 0.263,0.832c0.075,0.263 0.178,0.548 0.253,0.831c0.084,0.262 0.187,0.546 0.262,0.832c0.075,0.258 0.188,0.542 0.263,0.832c0.113,0.398 0.169,0.745 0.263,1.108c0.056,0.19 0.178,0.5 0.263,0.832c0.103,0.387 0.169,0.74 0.262,1.109c0.038,0.148 0.178,0.476 0.263,0.832c0.094,0.378 0.169,0.74 0.263,1.108c0.094,0.376 0.169,0.736 0.263,1.109c0.084,0.37 0.178,0.731 0.262,1.109c0.084,0.36 0.178,0.731 0.263,1.109c0.075,0.352 0.178,0.73 0.263,1.109c0.066,0.347 0.178,0.728 0.263,1.109c0.103,0.479 0.159,0.926 0.253,1.386c0.103,0.473 0.169,0.928 0.262,1.386c0.103,0.474 0.169,0.923 0.263,1.386c0.103,0.564 0.169,1.114 0.263,1.663c0.103,0.566 0.169,1.119 0.263,1.663c0.122,0.678 0.15,1.298 0.262,1.941c0.131,0.619 0.178,1.707 0.263,1.941c0.019,0.043 0.394,0.471 0.394,0.831l97.833,-0.277c-0.177,-0.724 0.132,-1.304 0.263,-1.941c0.123,-0.623 0.132,-1.263 0.263,-1.94c0.103,-0.531 0.16,-1.108 0.263,-1.663c0.103,-0.542 0.149,-1.092 0.263,-1.663c0.084,-0.475 0.158,-0.912 0.263,-1.387c0.093,-0.457 0.159,-0.916 0.263,-1.386c0.093,-0.463 0.159,-0.908 0.263,-1.386c0.094,-0.458 0.15,-0.907 0.263,-1.386c0.075,-0.375 0.178,-0.759 0.252,-1.109c0.085,-0.377 0.189,-0.752 0.263,-1.108c0.085,-0.38 0.179,-0.741 0.263,-1.109c0.094,-0.374 0.168,-0.736 0.263,-1.109c0.094,-0.37 0.168,-0.733 0.263,-1.109c0.094,-0.358 0.225,-0.687 0.263,-0.832c0.093,-0.369 0.159,-0.723 0.263,-1.109c0.074,-0.293 0.197,-0.584 0.263,-0.832c0.103,-0.362 0.15,-0.707 0.261,-1.108c0.076,-0.291 0.189,-0.58 0.263,-0.832c0.076,-0.288 0.901,-3.52 0.919,-3.549" style="fill:#5cb167;fill-rule:nonzero;"/><path d="M235.675,149.24c-0.169,0.492 -1.491,2.911 -1.603,3.265c-0.094,0.279 -1.706,2.475 -1.903,2.921c-0.075,0.185 -0.778,0.97 -0.778,0.97c-0.056,-0.583 0.075,-1.233 0,-1.802c-0.178,-0.747 -0.159,-1.236 -0.263,-1.94c-0.084,-0.723 -0.178,-1.481 -0.262,-2.218c-0.094,-1.04 -0.216,-1.987 -0.263,-3.049c-0.347,-5.168 -0.272,-10.084 0,-15.248c0.047,-1.222 0.187,-2.41 0.263,-3.604c0.075,-1.043 0.159,-2.013 0.262,-3.049c0.075,-0.861 0.16,-1.645 0.263,-2.495c0.084,-0.761 0.15,-1.455 0.263,-2.218c0.066,-0.585 0.169,-1.102 0.253,-1.663c0.084,-0.559 0.187,-1.118 0.263,-1.663c0.084,-0.459 0.187,-0.949 0.263,-1.386c0.047,-0.258 -0.056,-0.617 0,-0.832l-0.263,0c-0.169,0.354 -0.253,0.26 -0.263,0.277c-1.688,4.439 -3.731,8.653 -5.494,13.03c-1.144,2.992 -2.344,6.128 -3.403,9.149c-0.263,0.72 -0.534,1.495 -0.788,2.218c-0.178,0.528 -0.394,1.005 -0.515,1.386c-0.094,0.269 -0.169,0.55 -0.263,0.832c-0.094,0.27 -0.169,0.551 -0.263,0.831c-0.094,0.272 -0.169,0.553 -0.263,0.832c-0.094,0.271 -0.178,0.556 -0.263,0.832c-0.084,0.271 -0.178,0.559 -0.263,0.831c-0.084,0.272 -0.178,0.564 -0.263,0.832c-0.084,0.273 -0.178,0.569 -0.263,0.832c-0.084,0.275 -0.187,0.572 -0.262,0.831c-0.084,0.28 -0.178,0.572 -0.263,0.832c-0.094,0.339 -0.131,0.686 -0.263,1.109c-0.075,0.282 -0.187,0.588 -0.263,0.832c-0.094,0.354 -0.15,0.719 -0.263,1.108c-0.075,0.281 -0.187,0.588 -0.253,0.832c-0.103,0.352 -0.159,0.722 -0.263,1.109c-0.103,0.36 -0.159,0.716 -0.263,1.109c-0.084,0.28 -0.197,0.59 -0.263,0.831c-0.103,0.38 0.019,0.48 -0.262,1.109c-0.075,0.354 0.159,1.18 -0.131,1.386c-0.994,0.211 -0.516,-0.616 -0.656,-0.831c-0.516,-0.776 -0.319,-0.756 -0.525,-1.386c-0.225,-0.481 -0.169,-0.593 -0.263,-0.832c-0.122,-0.332 -0.159,-0.552 -0.263,-0.832c-0.094,-0.292 -0.169,-0.556 -0.253,-0.831c-0.103,-0.297 -0.178,-0.531 -0.263,-0.832c-0.122,-0.408 -0.16,-0.746 -0.263,-1.109c-0.075,-0.252 -0.187,-0.537 -0.263,-0.831c-0.094,-0.38 -0.169,-0.737 -0.263,-1.109c-0.094,-0.376 -0.178,-0.726 -0.263,-1.109c-0.084,-0.362 -0.178,-0.724 -0.263,-1.109c-0.103,-0.482 -0.169,-0.917 -0.263,-1.386c-0.094,-0.471 -0.178,-0.912 -0.263,-1.386c-0.084,-0.459 -0.178,-0.907 -0.262,-1.387c-0.066,-0.442 -0.188,-0.902 -0.263,-1.385c-0.094,-0.664 -0.169,-1.277 -0.263,-1.941c-0.094,-0.746 -0.169,-1.468 -0.263,-2.218c-0.075,-0.733 -0.187,-1.462 -0.253,-2.217c-0.103,-1.029 -0.187,-2.014 -0.263,-3.05c-0.112,-1.685 -0.206,-3.295 -0.263,-4.99c-0.15,-4.008 -0.15,-7.636 0,-11.643c0.056,-1.695 0.15,-3.306 0.263,-4.99c0.066,-1.019 0.187,-2.05 0.263,-3.05c0.075,-0.831 0.178,-1.673 0.253,-2.495c0.009,-0.828 0,-1.666 0,-2.494l-0.253,0c-0.328,1.451 -0.844,2.103 -1.312,3.326c-0.422,1.205 -0.9,2.415 -1.313,3.604c-0.112,0.327 -0.244,0.525 -0.263,0.554c-0.094,0.26 -0.15,0.538 -0.253,0.832c-0.094,0.261 -0.169,0.542 -0.262,0.832c-0.094,0.264 -0.169,0.544 -0.263,0.831c-0.094,0.266 -0.169,0.549 -0.263,0.832c-0.094,0.266 -0.178,0.554 -0.263,0.831c-0.131,0.403 -0.253,0.526 -0.263,0.555c-0.084,0.271 -0.178,0.559 -0.263,0.832c-0.084,0.273 -0.178,0.561 -0.263,0.831c-0.084,0.273 -0.178,0.567 -0.263,0.832c-0.084,0.274 -0.178,0.571 -0.262,0.832c-0.084,0.277 -0.188,0.573 -0.263,0.831c-0.103,0.347 -0.141,0.71 -0.263,1.109c-0.075,0.28 -0.187,0.585 -0.263,0.831c-0.075,0.282 -0.187,0.588 -0.253,0.832c-0.103,0.353 -0.159,0.723 -0.263,1.109c-0.094,0.323 -0.225,0.667 -0.263,0.832c-0.094,0.356 -0.169,0.735 -0.263,1.109c-0.084,0.334 -0.225,0.68 -0.263,0.831c-0.094,0.359 -0.169,0.739 -0.262,1.109c-0.094,0.361 -0.169,0.742 -0.263,1.109c-0.084,0.363 -0.178,0.745 -0.263,1.109c-0.084,0.363 -0.178,0.749 -0.263,1.109c-0.084,0.366 -0.178,0.75 -0.263,1.109c-0.084,0.368 -0.178,0.749 -0.263,1.108c-0.103,0.448 -0.15,0.903 -0.263,1.387c-0.084,0.367 -0.178,0.756 -0.263,1.108c-0.094,0.449 -0.15,0.91 -0.253,1.386c-0.103,0.45 -0.169,0.913 -0.262,1.386c-0.103,0.453 -0.169,0.913 -0.263,1.386c-0.103,0.452 -0.169,0.917 -0.263,1.387c-0.094,0.456 -0.169,0.913 -0.263,1.386c-0.113,0.543 -0.131,1.069 -0.263,1.663c-0.075,0.371 -0.187,0.769 -0.263,1.109c-0.094,0.458 -0.159,0.913 -0.263,1.386c-0.084,0.374 -0.169,0.74 -0.263,1.109c-0.103,0.456 -0.131,0.881 -0.262,1.386c-0.084,0.391 -0.16,0.717 -0.263,1.109c-0.094,0.359 -0.16,0.732 -0.263,1.109c-0.094,0.394 -0.122,0.66 -0.263,1.108c-0.084,0.309 -0.159,0.533 -0.253,0.832c-0.103,0.282 0.028,0.319 -0.263,0.832c-1.069,3.161 -0.862,0.885 -1.05,-0.832c-0.178,-0.83 -0.141,-1.436 -0.263,-2.218c-0.084,-0.642 -0.169,-1.296 -0.263,-1.94c-0.094,-0.648 -0.169,-1.292 -0.263,-1.941c-0.094,-0.746 -0.159,-1.481 -0.263,-2.218c-0.084,-0.638 -0.178,-1.295 -0.263,-1.94c-0.094,-0.742 -0.159,-1.483 -0.263,-2.218c-0.075,-0.636 -0.178,-1.295 -0.263,-1.94c-0.075,-0.636 -0.178,-1.294 -0.253,-1.941c-0.103,-0.743 -0.169,-1.481 -0.263,-2.217c-0.084,-0.635 -0.178,-1.295 -0.263,-1.941c-0.094,-0.742 -0.169,-1.482 -0.263,-2.218c-0.084,-0.633 -0.178,-1.294 -0.263,-1.94c-0.084,-0.633 -0.178,-1.295 -0.263,-1.94c-0.094,-0.739 -0.169,-1.483 -0.263,-2.218c-0.075,-0.632 -0.178,-1.294 -0.263,-1.941c-0.094,-0.738 -0.169,-1.481 -0.263,-2.217c-0.094,-0.738 -0.169,-1.482 -0.262,-2.218c-0.075,-0.629 -0.178,-1.295 -0.263,-1.941c-0.084,-0.736 -0.169,-1.481 -0.263,-2.217c-0.075,-0.629 -0.178,-1.295 -0.253,-1.941c-0.094,-0.736 -0.178,-1.481 -0.263,-2.217c-0.094,-0.736 -0.178,-1.481 -0.263,-2.218c-0.094,-0.735 -0.178,-1.48 -0.263,-2.218c-0.094,-0.734 -0.178,-1.481 -0.263,-2.218c-0.084,-0.733 -0.178,-1.479 -0.262,-2.217c-0.084,-0.734 -0.178,-1.482 -0.263,-2.218c-0.075,-0.623 -0.188,-1.294 -0.263,-1.941c-0.084,-0.735 -0.178,-1.475 -0.263,-2.217c-0.056,-0.508 -0.206,-1.097 -0.263,-1.664c-0.038,-0.394 -0.272,-0.894 -0.263,-1.663l-0.263,0c-0.009,0.641 -0.244,1.185 -0.263,1.386c-0.056,0.747 -0.187,1.508 -0.253,2.218c-0.103,0.924 -0.169,1.843 -0.262,2.772c-0.084,0.743 -0.188,1.489 -0.263,2.218c-0.084,0.74 -0.178,1.489 -0.263,2.218c-0.084,0.738 -0.178,1.489 -0.263,2.217c-0.084,0.739 -0.178,1.488 -0.263,2.218c-0.075,0.648 -0.187,1.318 -0.263,1.94c-0.084,0.738 -0.178,1.487 -0.263,2.218c-0.094,0.827 -0.159,1.66 -0.263,2.495c-0.084,0.738 -0.178,1.485 -0.262,2.218c-0.084,0.737 -0.169,1.485 -0.263,2.218c-0.075,0.646 -0.188,1.315 -0.263,1.94c-0.084,0.737 -0.169,1.485 -0.253,2.217c-0.094,0.739 -0.178,1.483 -0.263,2.218c-0.094,0.738 -0.178,1.482 -0.263,2.218c-0.094,0.737 -0.178,1.482 -0.263,2.218c-0.084,0.646 -0.187,1.312 -0.263,1.94c-0.094,0.737 -0.169,1.482 -0.263,2.218c-0.094,0.737 -0.169,1.48 -0.262,2.218c-0.094,0.736 -0.169,1.48 -0.263,2.217c-0.084,0.647 -0.178,1.31 -0.263,1.941c-0.094,0.737 -0.169,1.478 -0.263,2.218c-0.094,0.736 -0.169,1.476 -0.263,2.217c-0.094,0.738 -0.159,1.474 -0.263,2.218c-0.075,0.648 -0.178,1.304 -0.263,1.94c-0.094,0.743 -0.15,1.466 -0.253,2.218c-0.103,0.738 -0.159,1.464 -0.263,2.218c-0.112,0.683 -0.122,1.225 -0.262,1.94c-0.084,0.483 0.253,1.411 -0.263,1.664l-0.263,0c-0.553,-0.182 -0.422,-1.105 -0.525,-1.386c-0.197,-0.451 -0.169,-0.535 -0.263,-0.832c-0.094,-0.29 -0.178,-0.522 -0.263,-0.832c-0.15,-0.48 -0.159,-0.721 -0.263,-1.108c-0.103,-0.386 -0.169,-0.743 -0.262,-1.109c-0.094,-0.388 -0.169,-0.724 -0.263,-1.109c-0.084,-0.367 -0.178,-0.727 -0.263,-1.109c-0.113,-0.495 -0.15,-0.931 -0.253,-1.386c-0.084,-0.363 -0.178,-0.732 -0.263,-1.109c-0.103,-0.47 -0.169,-0.932 -0.263,-1.386c-0.103,-0.471 -0.169,-0.934 -0.263,-1.386c-0.131,-0.589 -0.15,-1.126 -0.263,-1.663c-0.103,-0.473 -0.169,-0.936 -0.263,-1.387c-0.103,-0.476 -0.159,-0.934 -0.262,-1.386c-0.103,-0.477 -0.16,-0.936 -0.263,-1.386c-0.103,-0.48 -0.16,-0.937 -0.263,-1.386c-0.075,-0.354 -0.178,-0.742 -0.263,-1.108c-0.113,-0.487 -0.159,-0.937 -0.263,-1.387c-0.075,-0.358 -0.178,-0.739 -0.263,-1.108c-0.075,-0.357 -0.169,-0.744 -0.263,-1.109c-0.075,-0.359 -0.169,-0.745 -0.253,-1.109c-0.094,-0.362 -0.178,-0.748 -0.262,-1.109c-0.094,-0.368 -0.178,-0.747 -0.263,-1.109c-0.038,-0.133 -0.178,-0.493 -0.263,-0.831c-0.094,-0.372 -0.169,-0.749 -0.263,-1.109c-0.094,-0.374 -0.169,-0.753 -0.263,-1.109c-0.047,-0.164 -0.178,-0.505 -0.263,-0.832c-0.047,-0.176 -0.178,-0.512 -0.263,-0.832c-0.103,-0.389 -0.159,-0.756 -0.263,-1.109c-0.065,-0.246 -0.178,-0.549 -0.263,-0.831c-0.065,-0.249 -0.178,-0.55 -0.262,-0.832c-0.066,-0.251 -0.178,-0.552 -0.263,-0.831c-0.122,-0.421 -0.16,-0.775 -0.263,-1.109c-0.075,-0.261 -0.169,-0.558 -0.253,-0.832c-0.084,-0.267 -0.178,-0.558 -0.263,-0.831c-0.084,-0.271 -0.178,-0.56 -0.263,-0.832c-0.009,-0.029 -0.131,-0.143 -0.263,-0.555c-0.084,-0.27 -0.178,-0.562 -0.263,-0.831c-0.094,-0.277 -0.178,-0.563 -0.262,-0.832c-0.094,-0.282 -0.169,-0.561 -0.263,-0.831c-0.094,-0.283 -0.169,-0.562 -0.263,-0.832c-0.094,-0.282 -0.169,-0.566 -0.263,-0.832c-0.009,-0.029 -0.131,-0.195 -0.263,-0.554c-0.094,-0.29 -0.169,-0.57 -0.263,-0.832c-0.103,-0.294 -0.169,-0.574 -0.263,-0.831c-0.159,-0.442 -0.347,-0.933 -0.516,-1.387c-0.103,-0.286 -0.178,-0.571 -0.262,-0.831c-0.16,-0.434 -0.356,-0.929 -0.525,-1.386c-0.141,-0.362 -0.206,-0.701 -0.263,-0.832c-0.197,-0.441 -0.197,-0.678 -0.263,-0.831c-0.178,-0.411 -0.244,-0.794 -0.263,-0.832c-0.019,-0.03 -0.356,-0.222 -0.394,-0.554c-0.206,0.047 -0.141,0.631 -0.131,0.831c0,0.058 0.244,0.451 0.263,1.109c0.122,1.054 0.169,2.005 0.263,3.049c0.084,1.292 0.187,2.582 0.263,3.881c0.103,1.957 0.216,3.852 0.263,5.822c0.084,3.157 0.084,5.99 0,9.149c-0.056,2.067 -0.141,4.039 -0.263,6.1c-0.075,1.129 -0.159,2.203 -0.263,3.326c-0.075,0.85 -0.178,1.663 -0.263,2.495c-0.075,0.752 -0.169,1.478 -0.263,2.218c-0.075,0.664 -0.169,1.286 -0.262,1.94c-0.075,0.576 -0.169,1.105 -0.263,1.663c-0.084,0.565 -0.16,1.1 -0.263,1.664c-0.084,0.475 -0.169,0.92 -0.253,1.386c-0.094,0.469 -0.169,0.913 -0.263,1.386c-0.084,0.382 -0.187,0.755 -0.263,1.109c-0.084,0.387 -0.178,0.733 -0.263,1.109c-0.094,0.374 -0.169,0.728 -0.263,1.109c-0.094,0.351 -0.216,0.657 -0.263,0.831c-0.103,0.376 -0.141,0.7 -0.262,1.109c-0.084,0.297 -0.169,0.544 -0.263,0.832c-0.094,0.279 -0.16,0.541 -0.263,0.831c-0.094,0.282 -0.15,0.525 -0.263,0.832c-0.084,0.248 -0.075,0.393 -0.263,0.832c-0.206,0.629 -0.112,1.743 -0.778,2.217l-0.263,0c-0.525,-0.151 -0.15,-1.026 -0.262,-1.386c-0.16,-0.489 -0.16,-0.712 -0.263,-1.109c-0.103,-0.388 -0.169,-0.727 -0.263,-1.109c-0.084,-0.353 -0.169,-0.769 -0.263,-1.108c-0.047,-0.177 -0.178,-0.517 -0.263,-0.832c-0.103,-0.389 -0.159,-0.753 -0.263,-1.109c-0.066,-0.242 -0.178,-0.55 -0.263,-0.831c-0.065,-0.247 -0.178,-0.55 -0.263,-0.832c-0.122,-0.424 -0.159,-0.771 -0.262,-1.109c-0.075,-0.261 -0.178,-0.551 -0.263,-0.832c-0.075,-0.258 -0.178,-0.556 -0.253,-0.831c-0.084,-0.265 -0.178,-0.553 -0.263,-0.832c-0.084,-0.263 -0.178,-0.557 -0.263,-0.832c-0.084,-0.266 -0.178,-0.558 -0.263,-0.831c-0.084,-0.27 -0.178,-0.562 -0.263,-0.832c-0.094,-0.275 -0.178,-0.561 -0.263,-0.832c-0.094,-0.278 -0.178,-0.561 -0.263,-0.831c-0.094,-0.28 -0.169,-0.564 -0.262,-0.832c-0.094,-0.283 -0.169,-0.566 -0.263,-0.831c-0.094,-0.288 -0.169,-0.568 -0.263,-0.832c-0.009,-0.029 -0.141,-0.205 -0.263,-0.555c-0.094,-0.289 -0.169,-0.567 -0.263,-0.831c-0.15,-0.441 -0.356,-0.915 -0.516,-1.386c-0.234,-0.635 -0.375,-1.248 -0.525,-1.663c-0.328,-0.9 -0.713,-1.863 -1.05,-2.773c-1.988,-5.24 -5.278,-11.019 -7.069,-16.079l-0.263,0c0.028,0.27 -0.038,0.567 0,0.832c0.066,0.422 0.197,0.915 0.263,1.386c0.122,0.685 0.169,1.267 0.263,1.94c0.094,0.652 0.187,1.276 0.263,1.941c0.094,0.756 0.187,1.448 0.263,2.217c0.094,0.938 0.187,1.824 0.263,2.772c0.103,1.226 0.187,2.373 0.263,3.604c0.112,2.061 0.225,4.025 0.262,6.1c0.038,2.033 0.047,3.786 0,5.821c-0.047,1.799 -0.141,3.48 -0.262,5.268c-0.084,1.029 -0.16,2.021 -0.263,3.049c-0.084,0.742 -0.169,1.479 -0.263,2.218c-0.113,0.626 -0.075,0.99 -0.263,1.663c-0.084,0.338 0.225,1.031 -0.263,1.109l-0.263,0c-0.497,-0.075 -0.159,-0.804 -0.263,-1.109c-0.356,-0.838 -0.319,-1.104 -0.525,-1.663c-0.094,-0.292 -0.169,-0.564 -0.263,-0.832c-0.141,-0.421 -0.356,-0.943 -0.516,-1.386c-4.303,-10.526 -10.613,-19.825 -17.542,-28.556c-0.497,-0.562 -0.488,-0.695 -0.788,-1.109c-0.009,-0.016 -0.084,0.03 -0.263,-0.277c-0.056,-0.029 -0.169,0.016 -0.263,0c-0.019,0.167 -0.028,0.395 0,0.554c0.113,0.208 0.169,0.354 0.263,0.555c0.009,0.018 0.094,-0.084 0.263,0.277c1.341,2.738 2.063,4.278 3.141,7.208c0.197,0.478 0.347,0.919 0.525,1.387c0.234,0.647 0.347,1.168 0.525,1.663c0.009,0.029 0.141,0.195 0.263,0.554c0.113,0.325 0.169,0.568 0.263,0.832c0.103,0.301 0.169,0.56 0.263,0.832c0.103,0.296 0.169,0.557 0.263,0.831c0.094,0.291 0.169,0.554 0.253,0.832c0.094,0.284 0.178,0.551 0.262,0.831c0.094,0.279 0.178,0.549 0.263,0.832c0.084,0.271 0.178,0.547 0.263,0.832c0.084,0.263 0.178,0.548 0.263,0.831c0.075,0.262 0.178,0.546 0.263,0.832c0.075,0.258 0.178,0.542 0.263,0.832c0.112,0.398 0.159,0.745 0.263,1.108c0.047,0.19 0.169,0.5 0.263,0.832c0.103,0.387 0.169,0.74 0.263,1.109c0.037,0.148 0.169,0.476 0.262,0.832c0.094,0.378 0.169,0.74 0.263,1.108c0.094,0.376 0.169,0.736 0.253,1.109c0.094,0.37 0.178,0.731 0.263,1.109c0.084,0.36 0.187,0.731 0.263,1.109c0.084,0.352 0.187,0.73 0.263,1.109c0.075,0.347 0.187,0.728 0.263,1.109c0.103,0.479 0.169,0.926 0.263,1.386c0.103,0.473 0.169,0.928 0.262,1.386c0.103,0.474 0.169,0.923 0.263,1.386c0.103,0.564 0.169,1.114 0.263,1.663c0.103,0.566 0.16,1.119 0.263,1.663c0.122,0.678 0.15,1.298 0.263,1.941c0.131,0.619 0.178,1.707 0.263,1.941c0.009,0.043 0.394,0.471 0.394,0.831l97.834,-0.277c-0.178,-0.724 0.131,-1.304 0.263,-1.941c0.122,-0.623 0.131,-1.263 0.263,-1.94c0.103,-0.531 0.159,-1.108 0.262,-1.663c0.103,-0.542 0.15,-1.092 0.253,-1.663c0.094,-0.475 0.169,-0.912 0.263,-1.387c0.094,-0.457 0.169,-0.916 0.263,-1.386c0.094,-0.463 0.159,-0.908 0.263,-1.386c0.103,-0.458 0.159,-0.907 0.263,-1.386c0.084,-0.375 0.187,-0.759 0.263,-1.109c0.084,-0.377 0.187,-0.752 0.263,-1.108c0.084,-0.38 0.178,-0.741 0.263,-1.109c0.084,-0.374 0.169,-0.736 0.262,-1.109c0.094,-0.37 0.169,-0.733 0.263,-1.109c0.084,-0.358 0.225,-0.687 0.263,-0.832c0.094,-0.369 0.159,-0.723 0.263,-1.109c0.075,-0.293 0.187,-0.584 0.263,-0.832c0.094,-0.362 0.141,-0.707 0.253,-1.108c0.084,-0.291 0.197,-0.58 0.263,-0.832c0.084,-0.288 0.909,-3.52 0.919,-3.549" style="fill:#5cb167;fill-rule:nonzero;"/><path d="M-10.64,147.805l247.683,0l-10.859,67.026l-37.494,19.245l-65.133,14.599l-59.201,-1.31l-55.26,-27.226l-31.581,-53.278l11.844,-19.056Z" style="fill:#5cb167;fill-rule:nonzero;"/></g></g></svg>