<?xml version="1.0" encoding="UTF-8" standalone="no"?><!DOCTYPE svg PUBLIC "-//W3C//DTD SVG 1.1//EN" "http://www.w3.org/Graphics/SVG/1.1/DTD/svg11.dtd"><svg width="100%" height="100%" viewBox="0 0 30 31" version="1.1" xmlns="http://www.w3.org/2000/svg" xmlns:xlink="http://www.w3.org/1999/xlink" xml:space="preserve" xmlns:serif="http://www.serif.com/" style="fill-rule:evenodd;clip-rule:evenodd;stroke-linejoin:round;stroke-miterlimit:2;"><g><g><path d="M19.825,8.653c0,0 -2.737,0.722 -6.547,6.437c-2.943,4.412 -3.238,7.87 -5.7,10.188c-1.253,1.177 -3.273,1.985 -3.273,1.985c0,0 -1.617,-0.038 -1.727,0.037c-0.11,0.073 -0.433,0.883 0.172,1.878c0.5,0.822 1.263,1.03 1.52,1.065c0.258,0.037 0.735,-1.068 0.92,-1.215c0.185,-0.148 2.358,-0.983 3.9,-2.685c3.163,-3.495 3.113,-6.528 5.408,-10.52c2.537,-4.413 5.665,-6.548 5.665,-6.548l-0.338,-0.622Z" style="fill:#5cb167;fill-rule:nonzero;"/></g><g><path d="M29.373,0.028c-0.098,-0.108 -6.336,-0.013 -9.538,2.88c-3.805,3.434 -2.775,8.19 -2.775,8.19c0,0 4.442,1.052 7.795,-1.983c3.91,-3.537 4.615,-8.98 4.518,-9.087m-12.573,16.775c0.205,0.16 0.5,0.347 0.923,0.557c2.39,1.195 5.375,0.54 6.837,-0.04c2.032,-0.807 5.053,-3.237 5.053,-3.422c0,-0.185 -1.375,-0.845 -3.33,-1.428c-1.955,-0.582 -4.568,-0.61 -6.553,0.238c-1.82,0.777 -2.667,2.145 -3.135,2.965c0,0 -0.725,0.114 -1.25,0.204c-0.925,0.158 -1.637,0.476 -1.637,0.476l-0.713,1.48c0,0 1.453,-0.66 2.193,-0.82c0.74,-0.16 1.612,-0.21 1.612,-0.21m-4.522,-15.44c-0.233,0.047 -1.333,1.764 -2.008,3.407c-0.532,1.293 -1.065,4.595 -0.112,6.63c0.952,2.035 2.054,2.42 2.054,2.42c0,0 0.135,0.592 0.12,1.388c-0.007,0.45 -0.052,1.69 -0.052,1.69l1.087,-0.473c0,0 0.073,-1.04 0.068,-1.545c-0.008,-0.532 -0.072,-1.205 -0.072,-1.205c0,0 1.797,-1.682 1.93,-4.295c0.105,-2.06 -0.115,-3.972 -1.25,-6.035c-0.89,-1.607 -1.633,-2.007 -1.765,-1.982m-12.128,4.055c-0.27,0.307 0.343,1.082 0.397,2.827c0.043,1.428 0.29,6.263 1.718,8.745c1.428,2.482 3.408,3.093 4.043,3.302c0.635,0.213 2.007,0.238 2.007,0.238c0,0 0.583,0.503 0.793,1.215c0.212,0.712 0.422,1.77 0.422,1.77l1.005,-1.48c0,0 -0.29,-1.163 -0.582,-1.69c-0.29,-0.528 -0.398,-0.713 -0.398,-0.713c0,0 0.643,-3.997 -0.45,-7.292c-1.292,-3.91 -3.512,-5.39 -5.573,-6.262c-2.06,-0.873 -3.197,-0.87 -3.382,-0.66m11.125,17.015c0,0 0.473,-0.288 1.317,-0.308c0.778,-0.017 1.26,0.128 1.26,0.128c0,0 1.453,-1.668 3.078,-2.145c1.532,-0.45 3.555,-0.853 7.117,0.625c3.568,1.48 5.618,2.915 5.593,3.365c-0.028,0.45 -3.532,2.055 -4.985,2.555c-1.453,0.502 -4.785,1.557 -7.91,0.35c-2.483,-0.96 -3.038,-3.25 -3.038,-3.25c0,0 -0.575,-0.318 -1.235,-0.28c-1.207,0.065 -2.224,0.967 -2.224,0.967l1.027,-2.007Z" style="fill:#5cb167;fill-rule:nonzero;"/></g></g></svg>