<?xml version="1.0" encoding="UTF-8" standalone="no"?>
<!DOCTYPE svg PUBLIC "-//W3C//DTD SVG 1.1//EN" "http://www.w3.org/Graphics/SVG/1.1/DTD/svg11.dtd">
<svg width="100%" height="100%" viewBox="0 0 101 118" version="1.1" xmlns="http://www.w3.org/2000/svg" xmlns:xlink="http://www.w3.org/1999/xlink" xml:space="preserve" xmlns:serif="http://www.serif.com/" style="fill-rule:evenodd;clip-rule:evenodd;stroke-linejoin:round;stroke-miterlimit:2;">
    <g transform="matrix(1,0,0,1,-11759,-8799.61)">
        <g transform="matrix(1,0,0,1,11743,8796.96)">
            <path d="M99.508,6.248L97.752,2.648L94.16,4.408C78.824,11.888 72.384,30.396 79.88,45.756L80.104,46.216C76.3,55.645 69.853,63.778 61.54,69.632L57.84,62.02C67.662,56.738 71.622,44.483 66.748,34.452L57.76,15.976L54.164,17.724C43.853,22.742 39.498,35.357 44.516,45.668L50.664,58.308C50.701,58.415 50.744,58.517 50.792,58.616L57.552,72.52C48.93,79.328 42.434,88.462 38.832,98.84L37.808,101.8L33.952,93.868C46.085,87.449 51.022,72.367 45.032,60.016L33.992,37.368L30.392,39.128C17.704,45.328 12.384,60.636 18.596,73.356L27.732,92.096C27.772,92.221 27.821,92.344 27.88,92.464L35.568,108.28L32.072,118.4L36.632,119.96L40.66,108.332L55.86,109.916L56.152,109.924L74.296,111.82C75.187,111.914 76.083,111.961 76.979,111.961C90.026,111.961 101.093,101.992 102.452,89.016L102.868,85.036L77.808,82.424C64.131,80.983 51.61,90.802 49.748,104.428L42.28,103.648L43.392,100.44C46.52,91.464 52.014,83.497 59.292,77.384L72.224,78.756L72.224,78.764L74.732,79.024L76.76,79.24L76.868,79.248L92.696,80.9C104.16,82.084 114.464,73.78 115.652,62.292L116.064,58.316L95.624,56.184L95.612,56.184C84.384,54.976 74.372,62.936 72.76,73.964L65.012,73.136C73.812,66.74 80.623,57.981 84.652,47.876L85.224,47.596C100.608,40.112 107,21.596 99.504,6.248M85.612,38.008L85.476,37.968C83.168,29.011 86.488,19.496 93.868,13.92C96.235,22.862 92.966,32.398 85.612,38.008M51.708,42.172C49.269,37.162 50.333,31.113 54.336,27.236L59.552,37.948C61.984,42.959 60.915,49.004 56.912,52.876L51.708,42.172ZM25.78,69.844C22.214,62.516 24.183,53.623 30.508,48.484L37.828,63.504L37.828,63.508C41.384,70.839 39.421,79.725 33.108,84.876L25.78,69.844ZM93.52,72.944L81.66,71.704C83.914,66.619 89.229,63.55 94.76,64.14L94.772,64.14L106.648,65.38C104.369,70.457 99.055,73.517 93.52,72.94M58.48,102.12C61.163,94.414 68.86,89.526 76.976,90.376L93.624,92.112C90.941,99.818 83.244,104.706 75.128,103.856L58.48,102.12Z" style="fill-rule:nonzero;"/>
        </g>
    </g>
</svg>
