<?xml version="1.0" encoding="UTF-8" standalone="no"?>
<!DOCTYPE svg PUBLIC "-//W3C//DTD SVG 1.1//EN" "http://www.w3.org/Graphics/SVG/1.1/DTD/svg11.dtd">
<svg width="100%" height="100%" viewBox="0 0 30 31" version="1.1" xmlns="http://www.w3.org/2000/svg" xmlns:xlink="http://www.w3.org/1999/xlink" xml:space="preserve" xmlns:serif="http://www.serif.com/" style="fill-rule:evenodd;clip-rule:evenodd;stroke-linejoin:round;stroke-miterlimit:2;">
    <g transform="matrix(1,0,0,1,-11796.2,-8843.15)">
        <g transform="matrix(1,0,0,1,11794.9,8842.33)">
            <path d="M21.125,9.473C21.125,9.473 18.388,10.195 14.578,15.91C11.635,20.322 11.34,23.78 8.878,26.098C7.625,27.275 5.605,28.083 5.605,28.083C5.605,28.083 3.988,28.045 3.878,28.12C3.768,28.193 3.445,29.003 4.05,29.998C4.55,30.82 5.313,31.028 5.57,31.063C5.828,31.1 6.305,29.995 6.49,29.848C6.675,29.7 8.848,28.865 10.39,27.163C13.553,23.668 13.503,20.635 15.798,16.643C18.335,12.23 21.463,10.095 21.463,10.095L21.125,9.473Z" style="fill:rgb(91,152,33);fill-rule:nonzero;"/>
        </g>
        <g transform="matrix(1,0,0,1,11794.9,8842.33)">
            <path d="M30.673,0.848C30.575,0.74 24.337,0.835 21.135,3.728C17.33,7.162 18.36,11.918 18.36,11.918C18.36,11.918 22.802,12.97 26.155,9.935C30.065,6.398 30.77,0.955 30.673,0.848M18.1,17.623C18.305,17.783 18.6,17.97 19.023,18.18C21.413,19.375 24.398,18.72 25.86,18.14C27.892,17.333 30.913,14.903 30.913,14.718C30.913,14.533 29.538,13.873 27.583,13.29C25.628,12.708 23.015,12.68 21.03,13.528C19.21,14.305 18.363,15.673 17.895,16.493C17.895,16.493 17.17,16.607 16.645,16.697C15.72,16.855 15.008,17.173 15.008,17.173L14.295,18.653C14.295,18.653 15.748,17.993 16.488,17.833C17.228,17.673 18.1,17.623 18.1,17.623M13.578,2.183C13.345,2.23 12.245,3.947 11.57,5.59C11.038,6.883 10.505,10.185 11.458,12.22C12.41,14.255 13.512,14.64 13.512,14.64C13.512,14.64 13.647,15.232 13.632,16.028C13.625,16.478 13.58,17.718 13.58,17.718L14.667,17.245C14.667,17.245 14.74,16.205 14.735,15.7C14.727,15.168 14.663,14.495 14.663,14.495C14.663,14.495 16.46,12.813 16.593,10.2C16.698,8.14 16.478,6.228 15.343,4.165C14.453,2.558 13.71,2.158 13.578,2.183M1.45,6.238C1.18,6.545 1.793,7.32 1.847,9.065C1.89,10.493 2.137,15.328 3.565,17.81C4.993,20.292 6.973,20.903 7.608,21.112C8.243,21.325 9.615,21.35 9.615,21.35C9.615,21.35 10.198,21.853 10.408,22.565C10.62,23.277 10.83,24.335 10.83,24.335L11.835,22.855C11.835,22.855 11.545,21.692 11.253,21.165C10.963,20.637 10.855,20.452 10.855,20.452C10.855,20.452 11.498,16.455 10.405,13.16C9.113,9.25 6.893,7.77 4.832,6.898C2.772,6.025 1.635,6.028 1.45,6.238M12.575,23.253C12.575,23.253 13.048,22.965 13.892,22.945C14.67,22.928 15.152,23.073 15.152,23.073C15.152,23.073 16.605,21.405 18.23,20.928C19.762,20.478 21.785,20.075 25.347,21.553C28.915,23.033 30.965,24.468 30.94,24.918C30.912,25.368 27.408,26.973 25.955,27.473C24.502,27.975 21.17,29.03 18.045,27.823C15.562,26.863 15.007,24.573 15.007,24.573C15.007,24.573 14.432,24.255 13.772,24.293C12.565,24.358 11.548,25.26 11.548,25.26L12.575,23.253Z" style="fill:rgb(91,152,33);fill-rule:nonzero;"/>
        </g>
    </g>
</svg>
