<?xml version="1.0" encoding="UTF-8" standalone="no"?>
<!DOCTYPE svg PUBLIC "-//W3C//DTD SVG 1.1//EN" "http://www.w3.org/Graphics/SVG/1.1/DTD/svg11.dtd">
<svg width="100%" height="100%" viewBox="0 0 311 311" version="1.1" xmlns="http://www.w3.org/2000/svg" xmlns:xlink="http://www.w3.org/1999/xlink" xml:space="preserve" xmlns:serif="http://www.serif.com/" style="fill-rule:evenodd;clip-rule:evenodd;stroke-linejoin:round;stroke-miterlimit:1.5;">
    <g transform="matrix(1,0,0,1,-579.042,-7444.94)">
        <g transform="matrix(2.04044,0,0,2.04044,-299.752,2906.35)">
            <circle cx="506.759" cy="2300.39" r="76.069" style="fill:rgb(127,223,242);"/>
            <clipPath id="_clip1">
                <circle cx="506.759" cy="2300.39" r="76.069"/>
            </clipPath>
            <g clip-path="url(#_clip1)">
                <g transform="matrix(1.09753,0,0,1.09753,-53.3387,-222.503)">
                    <g opacity="0.76">
                        <g transform="matrix(0.911134,4.95758e-17,-2.47879e-17,0.456847,28.482,1256.52)">
                            <rect x="327.539" y="2272.05" width="379.561" height="245.861" style="fill:rgb(8,178,40);"/>
                        </g>
                        <g transform="matrix(0.144234,-0.0624492,0.0444084,0.102566,130.973,2223.34)">
                            <path d="M1773.14,1545.98C1792.46,1579.32 1803.52,1618.05 1803.52,1659.33C1803.52,1700.62 1792.46,1739.34 1773.14,1772.68C1753.82,1739.34 1742.76,1700.62 1742.76,1659.33C1742.76,1618.05 1753.82,1579.32 1773.14,1545.98Z" style="fill:rgb(8,178,40);"/>
                        </g>
                        <g transform="matrix(0.114396,0.0931591,-0.0662465,0.0813482,380.063,1985.03)">
                            <path d="M1773.14,1545.98C1792.46,1579.32 1803.52,1618.05 1803.52,1659.33C1803.52,1700.62 1792.46,1739.34 1773.14,1772.68C1753.82,1739.34 1742.76,1700.62 1742.76,1659.33C1742.76,1618.05 1753.82,1579.32 1773.14,1545.98Z" style="fill:rgb(8,178,40);"/>
                        </g>
                    </g>
                    <g transform="matrix(0.297235,0,0,0.297235,232.524,1772.12)">
                        <g opacity="0.71">
                            <g transform="matrix(1.27393,0,0,1.27393,-297.679,-529.683)">
                                <circle cx="996.456" cy="1710.82" r="23.178" style="fill:none;stroke:white;stroke-width:9.83px;"/>
                            </g>
                            <g transform="matrix(2.54787,0,0,2.54787,-1567.1,-2709.16)">
                                <circle cx="996.456" cy="1710.82" r="23.178" style="fill:none;stroke:white;stroke-width:4.91px;"/>
                            </g>
                            <g transform="matrix(3.8218,0,0,3.8218,-2836.52,-4888.63)">
                                <circle cx="996.456" cy="1710.82" r="23.178" style="fill:none;stroke:white;stroke-width:3.28px;"/>
                            </g>
                        </g>
                    </g>
                    <g transform="matrix(0.86591,0,0,0.431758,50.7999,1316.54)">
                        <rect x="327.539" y="2272.05" width="379.561" height="245.861" style="fill:rgb(247,180,102);"/>
                    </g>
                    <g transform="matrix(0.86591,0,0,0.374708,51.7955,1478.96)">
                        <rect x="327.539" y="2272.05" width="379.561" height="245.861" style="fill:rgb(235,100,98);fill-opacity:0.67;"/>
                    </g>
                    <g transform="matrix(0.86591,0,0,0.86591,69.9181,311.288)">
                        <g transform="matrix(1.17838,0,0,1.17838,-87.8811,-414.647)">
                            <g transform="matrix(0.0621974,0,0,0.0621974,464.997,2291.68)">
                                <path d="M20,414.842C20,414.842 23.33,416.945 25,417.99C28.65,420.275 32.314,422.536 36,424.763C46.77,431.27 57.723,437.492 69,443.081C103.931,460.397 141.978,470.314 181,463.89C276.003,448.251 340.355,360.957 434,341.423C445.501,339.024 457.249,337.83 469,338.02C585.86,339.907 659.779,465.582 777,465.999C896.881,466.425 972.405,334.571 1093,338.064C1106.88,338.467 1120.66,340.802 1134,344.623C1222.47,369.961 1286.67,452.897 1380,464.752C1418.99,469.705 1456.6,458.335 1491,440.597C1501.91,434.97 1512.53,428.796 1523,422.383C1526.68,420.126 1530.35,417.838 1534,415.53C1535.67,414.475 1539,412.355 1539,412.355" style="fill:none;fill-rule:nonzero;stroke:rgb(196,245,255);stroke-width:100.49px;stroke-linecap:round;stroke-miterlimit:10;"/>
                            </g>
                            <g transform="matrix(0.0621974,0,0,0.0621974,542.192,2291.68)">
                                <path d="M20,414.842C20,414.842 23.33,416.945 25,417.99C28.65,420.275 32.314,422.536 36,424.763C46.77,431.27 57.723,437.492 69,443.081C103.931,460.397 141.978,470.314 181,463.89C276.003,448.251 340.355,360.957 434,341.423C445.501,339.024 457.249,337.83 469,338.02C585.86,339.907 659.779,465.582 777,465.999C896.881,466.425 972.405,334.571 1093,338.064C1106.88,338.467 1120.66,340.802 1134,344.623C1222.47,369.961 1286.67,452.897 1380,464.752C1418.99,469.705 1456.6,458.335 1491,440.597C1501.91,434.97 1512.53,428.796 1523,422.383C1526.68,420.126 1530.35,417.838 1534,415.53C1535.67,414.475 1539,412.355 1539,412.355" style="fill:none;fill-rule:nonzero;stroke:rgb(196,245,255);stroke-width:100.49px;stroke-linecap:round;stroke-miterlimit:10;"/>
                            </g>
                        </g>
                        <g transform="matrix(0.0732923,0,0,0.0732923,487.282,2319)">
                            <path d="M20,414.842C20,414.842 23.33,416.945 25,417.99C28.65,420.275 32.314,422.536 36,424.763C46.77,431.27 57.723,437.492 69,443.081C103.931,460.397 141.978,470.314 181,463.89C276.003,448.251 340.355,360.957 434,341.423C445.501,339.024 457.249,337.83 469,338.02C585.86,339.907 659.779,465.582 777,465.999C896.881,466.425 972.405,334.571 1093,338.064C1106.88,338.467 1120.66,340.802 1134,344.623C1222.47,369.961 1286.67,452.897 1380,464.752C1418.99,469.705 1456.6,458.335 1491,440.597C1501.91,434.97 1512.53,428.796 1523,422.383C1526.68,420.126 1530.35,417.838 1534,415.53C1535.67,414.475 1539,412.355 1539,412.355" style="fill:none;fill-rule:nonzero;stroke:rgb(196,245,255);stroke-width:100.49px;stroke-linecap:round;stroke-miterlimit:10;"/>
                        </g>
                    </g>
                    <g transform="matrix(0.424375,0,0,0.424375,308.459,1377.6)">
                        <path d="M466.898,2210.45L502.842,2174.51L499.896,2171.56L463.952,2207.51L466.898,2210.45Z" style="fill:rgb(105,105,105);"/>
                        <path d="M503.693,2269.65L503.693,2084.85L499.526,2084.85L499.526,2269.65L503.693,2269.65Z" style="fill:rgb(105,105,105);"/>
                        <g transform="matrix(2.57013,0,0,2.57013,-623.286,-3382.8)">
                            <circle cx="437.68" cy="2199.28" r="2.9" style="fill:rgb(105,105,105);"/>
                        </g>
                        <g transform="matrix(2.57013,0,0,2.57013,-659.471,-3443.47)">
                            <circle cx="437.68" cy="2199.28" r="2.9" style="fill:rgb(105,105,105);"/>
                        </g>
                        <g transform="matrix(2.57013,0,0,2.57013,-623.286,-3567.29)">
                            <circle cx="437.68" cy="2199.28" r="2.9" style="fill:rgb(105,105,105);"/>
                        </g>
                    </g>
                </g>
            </g>
        </g>
    </g>
</svg>
